G75*
%MOIN*%
%OFA0B0*%
%FSLAX25Y25*%
%IPPOS*%
%LPD*%
%AMOC8*
5,1,8,0,0,1.08239X$1,22.5*
%
%ADD10C,0.00000*%
%ADD11R,0.08000X0.08000*%
%ADD12C,0.08000*%
%ADD13R,0.06000X0.06000*%
%ADD14C,0.06000*%
%ADD15C,0.06500*%
%ADD16C,0.01969*%
%ADD17C,0.02781*%
D10*
X0020748Y0005000D02*
X0245157Y0005000D01*
X0240827Y0018780D02*
X0240829Y0018938D01*
X0240835Y0019096D01*
X0240845Y0019254D01*
X0240859Y0019412D01*
X0240877Y0019569D01*
X0240898Y0019726D01*
X0240924Y0019882D01*
X0240954Y0020038D01*
X0240987Y0020193D01*
X0241025Y0020346D01*
X0241066Y0020499D01*
X0241111Y0020651D01*
X0241160Y0020802D01*
X0241213Y0020951D01*
X0241269Y0021099D01*
X0241329Y0021245D01*
X0241393Y0021390D01*
X0241461Y0021533D01*
X0241532Y0021675D01*
X0241606Y0021815D01*
X0241684Y0021952D01*
X0241766Y0022088D01*
X0241850Y0022222D01*
X0241939Y0022353D01*
X0242030Y0022482D01*
X0242125Y0022609D01*
X0242222Y0022734D01*
X0242323Y0022856D01*
X0242427Y0022975D01*
X0242534Y0023092D01*
X0242644Y0023206D01*
X0242757Y0023317D01*
X0242872Y0023426D01*
X0242990Y0023531D01*
X0243111Y0023633D01*
X0243234Y0023733D01*
X0243360Y0023829D01*
X0243488Y0023922D01*
X0243618Y0024012D01*
X0243751Y0024098D01*
X0243886Y0024182D01*
X0244022Y0024261D01*
X0244161Y0024338D01*
X0244302Y0024410D01*
X0244444Y0024480D01*
X0244588Y0024545D01*
X0244734Y0024607D01*
X0244881Y0024665D01*
X0245030Y0024720D01*
X0245180Y0024771D01*
X0245331Y0024818D01*
X0245483Y0024861D01*
X0245636Y0024900D01*
X0245791Y0024936D01*
X0245946Y0024967D01*
X0246102Y0024995D01*
X0246258Y0025019D01*
X0246415Y0025039D01*
X0246573Y0025055D01*
X0246730Y0025067D01*
X0246889Y0025075D01*
X0247047Y0025079D01*
X0247205Y0025079D01*
X0247363Y0025075D01*
X0247522Y0025067D01*
X0247679Y0025055D01*
X0247837Y0025039D01*
X0247994Y0025019D01*
X0248150Y0024995D01*
X0248306Y0024967D01*
X0248461Y0024936D01*
X0248616Y0024900D01*
X0248769Y0024861D01*
X0248921Y0024818D01*
X0249072Y0024771D01*
X0249222Y0024720D01*
X0249371Y0024665D01*
X0249518Y0024607D01*
X0249664Y0024545D01*
X0249808Y0024480D01*
X0249950Y0024410D01*
X0250091Y0024338D01*
X0250230Y0024261D01*
X0250366Y0024182D01*
X0250501Y0024098D01*
X0250634Y0024012D01*
X0250764Y0023922D01*
X0250892Y0023829D01*
X0251018Y0023733D01*
X0251141Y0023633D01*
X0251262Y0023531D01*
X0251380Y0023426D01*
X0251495Y0023317D01*
X0251608Y0023206D01*
X0251718Y0023092D01*
X0251825Y0022975D01*
X0251929Y0022856D01*
X0252030Y0022734D01*
X0252127Y0022609D01*
X0252222Y0022482D01*
X0252313Y0022353D01*
X0252402Y0022222D01*
X0252486Y0022088D01*
X0252568Y0021952D01*
X0252646Y0021815D01*
X0252720Y0021675D01*
X0252791Y0021533D01*
X0252859Y0021390D01*
X0252923Y0021245D01*
X0252983Y0021099D01*
X0253039Y0020951D01*
X0253092Y0020802D01*
X0253141Y0020651D01*
X0253186Y0020499D01*
X0253227Y0020346D01*
X0253265Y0020193D01*
X0253298Y0020038D01*
X0253328Y0019882D01*
X0253354Y0019726D01*
X0253375Y0019569D01*
X0253393Y0019412D01*
X0253407Y0019254D01*
X0253417Y0019096D01*
X0253423Y0018938D01*
X0253425Y0018780D01*
X0253423Y0018622D01*
X0253417Y0018464D01*
X0253407Y0018306D01*
X0253393Y0018148D01*
X0253375Y0017991D01*
X0253354Y0017834D01*
X0253328Y0017678D01*
X0253298Y0017522D01*
X0253265Y0017367D01*
X0253227Y0017214D01*
X0253186Y0017061D01*
X0253141Y0016909D01*
X0253092Y0016758D01*
X0253039Y0016609D01*
X0252983Y0016461D01*
X0252923Y0016315D01*
X0252859Y0016170D01*
X0252791Y0016027D01*
X0252720Y0015885D01*
X0252646Y0015745D01*
X0252568Y0015608D01*
X0252486Y0015472D01*
X0252402Y0015338D01*
X0252313Y0015207D01*
X0252222Y0015078D01*
X0252127Y0014951D01*
X0252030Y0014826D01*
X0251929Y0014704D01*
X0251825Y0014585D01*
X0251718Y0014468D01*
X0251608Y0014354D01*
X0251495Y0014243D01*
X0251380Y0014134D01*
X0251262Y0014029D01*
X0251141Y0013927D01*
X0251018Y0013827D01*
X0250892Y0013731D01*
X0250764Y0013638D01*
X0250634Y0013548D01*
X0250501Y0013462D01*
X0250366Y0013378D01*
X0250230Y0013299D01*
X0250091Y0013222D01*
X0249950Y0013150D01*
X0249808Y0013080D01*
X0249664Y0013015D01*
X0249518Y0012953D01*
X0249371Y0012895D01*
X0249222Y0012840D01*
X0249072Y0012789D01*
X0248921Y0012742D01*
X0248769Y0012699D01*
X0248616Y0012660D01*
X0248461Y0012624D01*
X0248306Y0012593D01*
X0248150Y0012565D01*
X0247994Y0012541D01*
X0247837Y0012521D01*
X0247679Y0012505D01*
X0247522Y0012493D01*
X0247363Y0012485D01*
X0247205Y0012481D01*
X0247047Y0012481D01*
X0246889Y0012485D01*
X0246730Y0012493D01*
X0246573Y0012505D01*
X0246415Y0012521D01*
X0246258Y0012541D01*
X0246102Y0012565D01*
X0245946Y0012593D01*
X0245791Y0012624D01*
X0245636Y0012660D01*
X0245483Y0012699D01*
X0245331Y0012742D01*
X0245180Y0012789D01*
X0245030Y0012840D01*
X0244881Y0012895D01*
X0244734Y0012953D01*
X0244588Y0013015D01*
X0244444Y0013080D01*
X0244302Y0013150D01*
X0244161Y0013222D01*
X0244022Y0013299D01*
X0243886Y0013378D01*
X0243751Y0013462D01*
X0243618Y0013548D01*
X0243488Y0013638D01*
X0243360Y0013731D01*
X0243234Y0013827D01*
X0243111Y0013927D01*
X0242990Y0014029D01*
X0242872Y0014134D01*
X0242757Y0014243D01*
X0242644Y0014354D01*
X0242534Y0014468D01*
X0242427Y0014585D01*
X0242323Y0014704D01*
X0242222Y0014826D01*
X0242125Y0014951D01*
X0242030Y0015078D01*
X0241939Y0015207D01*
X0241850Y0015338D01*
X0241766Y0015472D01*
X0241684Y0015608D01*
X0241606Y0015745D01*
X0241532Y0015885D01*
X0241461Y0016027D01*
X0241393Y0016170D01*
X0241329Y0016315D01*
X0241269Y0016461D01*
X0241213Y0016609D01*
X0241160Y0016758D01*
X0241111Y0016909D01*
X0241066Y0017061D01*
X0241025Y0017214D01*
X0240987Y0017367D01*
X0240954Y0017522D01*
X0240924Y0017678D01*
X0240898Y0017834D01*
X0240877Y0017991D01*
X0240859Y0018148D01*
X0240845Y0018306D01*
X0240835Y0018464D01*
X0240829Y0018622D01*
X0240827Y0018780D01*
X0245157Y0005000D02*
X0245538Y0005005D01*
X0245918Y0005018D01*
X0246298Y0005041D01*
X0246677Y0005074D01*
X0247055Y0005115D01*
X0247432Y0005165D01*
X0247808Y0005225D01*
X0248183Y0005293D01*
X0248555Y0005371D01*
X0248926Y0005458D01*
X0249294Y0005553D01*
X0249660Y0005658D01*
X0250023Y0005771D01*
X0250384Y0005893D01*
X0250741Y0006023D01*
X0251095Y0006163D01*
X0251446Y0006310D01*
X0251793Y0006467D01*
X0252136Y0006631D01*
X0252475Y0006804D01*
X0252810Y0006985D01*
X0253141Y0007174D01*
X0253466Y0007371D01*
X0253787Y0007575D01*
X0254103Y0007788D01*
X0254413Y0008008D01*
X0254719Y0008235D01*
X0255018Y0008470D01*
X0255312Y0008712D01*
X0255600Y0008960D01*
X0255882Y0009216D01*
X0256157Y0009479D01*
X0256426Y0009748D01*
X0256689Y0010023D01*
X0256945Y0010305D01*
X0257193Y0010593D01*
X0257435Y0010887D01*
X0257670Y0011186D01*
X0257897Y0011492D01*
X0258117Y0011802D01*
X0258330Y0012118D01*
X0258534Y0012439D01*
X0258731Y0012764D01*
X0258920Y0013095D01*
X0259101Y0013430D01*
X0259274Y0013769D01*
X0259438Y0014112D01*
X0259595Y0014459D01*
X0259742Y0014810D01*
X0259882Y0015164D01*
X0260012Y0015521D01*
X0260134Y0015882D01*
X0260247Y0016245D01*
X0260352Y0016611D01*
X0260447Y0016979D01*
X0260534Y0017350D01*
X0260612Y0017722D01*
X0260680Y0018097D01*
X0260740Y0018473D01*
X0260790Y0018850D01*
X0260831Y0019228D01*
X0260864Y0019607D01*
X0260887Y0019987D01*
X0260900Y0020367D01*
X0260905Y0020748D01*
X0260906Y0020748D02*
X0260906Y0209724D01*
X0240827Y0211693D02*
X0240829Y0211851D01*
X0240835Y0212009D01*
X0240845Y0212167D01*
X0240859Y0212325D01*
X0240877Y0212482D01*
X0240898Y0212639D01*
X0240924Y0212795D01*
X0240954Y0212951D01*
X0240987Y0213106D01*
X0241025Y0213259D01*
X0241066Y0213412D01*
X0241111Y0213564D01*
X0241160Y0213715D01*
X0241213Y0213864D01*
X0241269Y0214012D01*
X0241329Y0214158D01*
X0241393Y0214303D01*
X0241461Y0214446D01*
X0241532Y0214588D01*
X0241606Y0214728D01*
X0241684Y0214865D01*
X0241766Y0215001D01*
X0241850Y0215135D01*
X0241939Y0215266D01*
X0242030Y0215395D01*
X0242125Y0215522D01*
X0242222Y0215647D01*
X0242323Y0215769D01*
X0242427Y0215888D01*
X0242534Y0216005D01*
X0242644Y0216119D01*
X0242757Y0216230D01*
X0242872Y0216339D01*
X0242990Y0216444D01*
X0243111Y0216546D01*
X0243234Y0216646D01*
X0243360Y0216742D01*
X0243488Y0216835D01*
X0243618Y0216925D01*
X0243751Y0217011D01*
X0243886Y0217095D01*
X0244022Y0217174D01*
X0244161Y0217251D01*
X0244302Y0217323D01*
X0244444Y0217393D01*
X0244588Y0217458D01*
X0244734Y0217520D01*
X0244881Y0217578D01*
X0245030Y0217633D01*
X0245180Y0217684D01*
X0245331Y0217731D01*
X0245483Y0217774D01*
X0245636Y0217813D01*
X0245791Y0217849D01*
X0245946Y0217880D01*
X0246102Y0217908D01*
X0246258Y0217932D01*
X0246415Y0217952D01*
X0246573Y0217968D01*
X0246730Y0217980D01*
X0246889Y0217988D01*
X0247047Y0217992D01*
X0247205Y0217992D01*
X0247363Y0217988D01*
X0247522Y0217980D01*
X0247679Y0217968D01*
X0247837Y0217952D01*
X0247994Y0217932D01*
X0248150Y0217908D01*
X0248306Y0217880D01*
X0248461Y0217849D01*
X0248616Y0217813D01*
X0248769Y0217774D01*
X0248921Y0217731D01*
X0249072Y0217684D01*
X0249222Y0217633D01*
X0249371Y0217578D01*
X0249518Y0217520D01*
X0249664Y0217458D01*
X0249808Y0217393D01*
X0249950Y0217323D01*
X0250091Y0217251D01*
X0250230Y0217174D01*
X0250366Y0217095D01*
X0250501Y0217011D01*
X0250634Y0216925D01*
X0250764Y0216835D01*
X0250892Y0216742D01*
X0251018Y0216646D01*
X0251141Y0216546D01*
X0251262Y0216444D01*
X0251380Y0216339D01*
X0251495Y0216230D01*
X0251608Y0216119D01*
X0251718Y0216005D01*
X0251825Y0215888D01*
X0251929Y0215769D01*
X0252030Y0215647D01*
X0252127Y0215522D01*
X0252222Y0215395D01*
X0252313Y0215266D01*
X0252402Y0215135D01*
X0252486Y0215001D01*
X0252568Y0214865D01*
X0252646Y0214728D01*
X0252720Y0214588D01*
X0252791Y0214446D01*
X0252859Y0214303D01*
X0252923Y0214158D01*
X0252983Y0214012D01*
X0253039Y0213864D01*
X0253092Y0213715D01*
X0253141Y0213564D01*
X0253186Y0213412D01*
X0253227Y0213259D01*
X0253265Y0213106D01*
X0253298Y0212951D01*
X0253328Y0212795D01*
X0253354Y0212639D01*
X0253375Y0212482D01*
X0253393Y0212325D01*
X0253407Y0212167D01*
X0253417Y0212009D01*
X0253423Y0211851D01*
X0253425Y0211693D01*
X0253423Y0211535D01*
X0253417Y0211377D01*
X0253407Y0211219D01*
X0253393Y0211061D01*
X0253375Y0210904D01*
X0253354Y0210747D01*
X0253328Y0210591D01*
X0253298Y0210435D01*
X0253265Y0210280D01*
X0253227Y0210127D01*
X0253186Y0209974D01*
X0253141Y0209822D01*
X0253092Y0209671D01*
X0253039Y0209522D01*
X0252983Y0209374D01*
X0252923Y0209228D01*
X0252859Y0209083D01*
X0252791Y0208940D01*
X0252720Y0208798D01*
X0252646Y0208658D01*
X0252568Y0208521D01*
X0252486Y0208385D01*
X0252402Y0208251D01*
X0252313Y0208120D01*
X0252222Y0207991D01*
X0252127Y0207864D01*
X0252030Y0207739D01*
X0251929Y0207617D01*
X0251825Y0207498D01*
X0251718Y0207381D01*
X0251608Y0207267D01*
X0251495Y0207156D01*
X0251380Y0207047D01*
X0251262Y0206942D01*
X0251141Y0206840D01*
X0251018Y0206740D01*
X0250892Y0206644D01*
X0250764Y0206551D01*
X0250634Y0206461D01*
X0250501Y0206375D01*
X0250366Y0206291D01*
X0250230Y0206212D01*
X0250091Y0206135D01*
X0249950Y0206063D01*
X0249808Y0205993D01*
X0249664Y0205928D01*
X0249518Y0205866D01*
X0249371Y0205808D01*
X0249222Y0205753D01*
X0249072Y0205702D01*
X0248921Y0205655D01*
X0248769Y0205612D01*
X0248616Y0205573D01*
X0248461Y0205537D01*
X0248306Y0205506D01*
X0248150Y0205478D01*
X0247994Y0205454D01*
X0247837Y0205434D01*
X0247679Y0205418D01*
X0247522Y0205406D01*
X0247363Y0205398D01*
X0247205Y0205394D01*
X0247047Y0205394D01*
X0246889Y0205398D01*
X0246730Y0205406D01*
X0246573Y0205418D01*
X0246415Y0205434D01*
X0246258Y0205454D01*
X0246102Y0205478D01*
X0245946Y0205506D01*
X0245791Y0205537D01*
X0245636Y0205573D01*
X0245483Y0205612D01*
X0245331Y0205655D01*
X0245180Y0205702D01*
X0245030Y0205753D01*
X0244881Y0205808D01*
X0244734Y0205866D01*
X0244588Y0205928D01*
X0244444Y0205993D01*
X0244302Y0206063D01*
X0244161Y0206135D01*
X0244022Y0206212D01*
X0243886Y0206291D01*
X0243751Y0206375D01*
X0243618Y0206461D01*
X0243488Y0206551D01*
X0243360Y0206644D01*
X0243234Y0206740D01*
X0243111Y0206840D01*
X0242990Y0206942D01*
X0242872Y0207047D01*
X0242757Y0207156D01*
X0242644Y0207267D01*
X0242534Y0207381D01*
X0242427Y0207498D01*
X0242323Y0207617D01*
X0242222Y0207739D01*
X0242125Y0207864D01*
X0242030Y0207991D01*
X0241939Y0208120D01*
X0241850Y0208251D01*
X0241766Y0208385D01*
X0241684Y0208521D01*
X0241606Y0208658D01*
X0241532Y0208798D01*
X0241461Y0208940D01*
X0241393Y0209083D01*
X0241329Y0209228D01*
X0241269Y0209374D01*
X0241213Y0209522D01*
X0241160Y0209671D01*
X0241111Y0209822D01*
X0241066Y0209974D01*
X0241025Y0210127D01*
X0240987Y0210280D01*
X0240954Y0210435D01*
X0240924Y0210591D01*
X0240898Y0210747D01*
X0240877Y0210904D01*
X0240859Y0211061D01*
X0240845Y0211219D01*
X0240835Y0211377D01*
X0240829Y0211535D01*
X0240827Y0211693D01*
X0245157Y0225472D02*
X0245538Y0225467D01*
X0245918Y0225454D01*
X0246298Y0225431D01*
X0246677Y0225398D01*
X0247055Y0225357D01*
X0247432Y0225307D01*
X0247808Y0225247D01*
X0248183Y0225179D01*
X0248555Y0225101D01*
X0248926Y0225014D01*
X0249294Y0224919D01*
X0249660Y0224814D01*
X0250023Y0224701D01*
X0250384Y0224579D01*
X0250741Y0224449D01*
X0251095Y0224309D01*
X0251446Y0224162D01*
X0251793Y0224005D01*
X0252136Y0223841D01*
X0252475Y0223668D01*
X0252810Y0223487D01*
X0253141Y0223298D01*
X0253466Y0223101D01*
X0253787Y0222897D01*
X0254103Y0222684D01*
X0254413Y0222464D01*
X0254719Y0222237D01*
X0255018Y0222002D01*
X0255312Y0221760D01*
X0255600Y0221512D01*
X0255882Y0221256D01*
X0256157Y0220993D01*
X0256426Y0220724D01*
X0256689Y0220449D01*
X0256945Y0220167D01*
X0257193Y0219879D01*
X0257435Y0219585D01*
X0257670Y0219286D01*
X0257897Y0218980D01*
X0258117Y0218670D01*
X0258330Y0218354D01*
X0258534Y0218033D01*
X0258731Y0217708D01*
X0258920Y0217377D01*
X0259101Y0217042D01*
X0259274Y0216703D01*
X0259438Y0216360D01*
X0259595Y0216013D01*
X0259742Y0215662D01*
X0259882Y0215308D01*
X0260012Y0214951D01*
X0260134Y0214590D01*
X0260247Y0214227D01*
X0260352Y0213861D01*
X0260447Y0213493D01*
X0260534Y0213122D01*
X0260612Y0212750D01*
X0260680Y0212375D01*
X0260740Y0211999D01*
X0260790Y0211622D01*
X0260831Y0211244D01*
X0260864Y0210865D01*
X0260887Y0210485D01*
X0260900Y0210105D01*
X0260905Y0209724D01*
X0245157Y0225472D02*
X0020748Y0225472D01*
X0012481Y0211693D02*
X0012483Y0211851D01*
X0012489Y0212009D01*
X0012499Y0212167D01*
X0012513Y0212325D01*
X0012531Y0212482D01*
X0012552Y0212639D01*
X0012578Y0212795D01*
X0012608Y0212951D01*
X0012641Y0213106D01*
X0012679Y0213259D01*
X0012720Y0213412D01*
X0012765Y0213564D01*
X0012814Y0213715D01*
X0012867Y0213864D01*
X0012923Y0214012D01*
X0012983Y0214158D01*
X0013047Y0214303D01*
X0013115Y0214446D01*
X0013186Y0214588D01*
X0013260Y0214728D01*
X0013338Y0214865D01*
X0013420Y0215001D01*
X0013504Y0215135D01*
X0013593Y0215266D01*
X0013684Y0215395D01*
X0013779Y0215522D01*
X0013876Y0215647D01*
X0013977Y0215769D01*
X0014081Y0215888D01*
X0014188Y0216005D01*
X0014298Y0216119D01*
X0014411Y0216230D01*
X0014526Y0216339D01*
X0014644Y0216444D01*
X0014765Y0216546D01*
X0014888Y0216646D01*
X0015014Y0216742D01*
X0015142Y0216835D01*
X0015272Y0216925D01*
X0015405Y0217011D01*
X0015540Y0217095D01*
X0015676Y0217174D01*
X0015815Y0217251D01*
X0015956Y0217323D01*
X0016098Y0217393D01*
X0016242Y0217458D01*
X0016388Y0217520D01*
X0016535Y0217578D01*
X0016684Y0217633D01*
X0016834Y0217684D01*
X0016985Y0217731D01*
X0017137Y0217774D01*
X0017290Y0217813D01*
X0017445Y0217849D01*
X0017600Y0217880D01*
X0017756Y0217908D01*
X0017912Y0217932D01*
X0018069Y0217952D01*
X0018227Y0217968D01*
X0018384Y0217980D01*
X0018543Y0217988D01*
X0018701Y0217992D01*
X0018859Y0217992D01*
X0019017Y0217988D01*
X0019176Y0217980D01*
X0019333Y0217968D01*
X0019491Y0217952D01*
X0019648Y0217932D01*
X0019804Y0217908D01*
X0019960Y0217880D01*
X0020115Y0217849D01*
X0020270Y0217813D01*
X0020423Y0217774D01*
X0020575Y0217731D01*
X0020726Y0217684D01*
X0020876Y0217633D01*
X0021025Y0217578D01*
X0021172Y0217520D01*
X0021318Y0217458D01*
X0021462Y0217393D01*
X0021604Y0217323D01*
X0021745Y0217251D01*
X0021884Y0217174D01*
X0022020Y0217095D01*
X0022155Y0217011D01*
X0022288Y0216925D01*
X0022418Y0216835D01*
X0022546Y0216742D01*
X0022672Y0216646D01*
X0022795Y0216546D01*
X0022916Y0216444D01*
X0023034Y0216339D01*
X0023149Y0216230D01*
X0023262Y0216119D01*
X0023372Y0216005D01*
X0023479Y0215888D01*
X0023583Y0215769D01*
X0023684Y0215647D01*
X0023781Y0215522D01*
X0023876Y0215395D01*
X0023967Y0215266D01*
X0024056Y0215135D01*
X0024140Y0215001D01*
X0024222Y0214865D01*
X0024300Y0214728D01*
X0024374Y0214588D01*
X0024445Y0214446D01*
X0024513Y0214303D01*
X0024577Y0214158D01*
X0024637Y0214012D01*
X0024693Y0213864D01*
X0024746Y0213715D01*
X0024795Y0213564D01*
X0024840Y0213412D01*
X0024881Y0213259D01*
X0024919Y0213106D01*
X0024952Y0212951D01*
X0024982Y0212795D01*
X0025008Y0212639D01*
X0025029Y0212482D01*
X0025047Y0212325D01*
X0025061Y0212167D01*
X0025071Y0212009D01*
X0025077Y0211851D01*
X0025079Y0211693D01*
X0025077Y0211535D01*
X0025071Y0211377D01*
X0025061Y0211219D01*
X0025047Y0211061D01*
X0025029Y0210904D01*
X0025008Y0210747D01*
X0024982Y0210591D01*
X0024952Y0210435D01*
X0024919Y0210280D01*
X0024881Y0210127D01*
X0024840Y0209974D01*
X0024795Y0209822D01*
X0024746Y0209671D01*
X0024693Y0209522D01*
X0024637Y0209374D01*
X0024577Y0209228D01*
X0024513Y0209083D01*
X0024445Y0208940D01*
X0024374Y0208798D01*
X0024300Y0208658D01*
X0024222Y0208521D01*
X0024140Y0208385D01*
X0024056Y0208251D01*
X0023967Y0208120D01*
X0023876Y0207991D01*
X0023781Y0207864D01*
X0023684Y0207739D01*
X0023583Y0207617D01*
X0023479Y0207498D01*
X0023372Y0207381D01*
X0023262Y0207267D01*
X0023149Y0207156D01*
X0023034Y0207047D01*
X0022916Y0206942D01*
X0022795Y0206840D01*
X0022672Y0206740D01*
X0022546Y0206644D01*
X0022418Y0206551D01*
X0022288Y0206461D01*
X0022155Y0206375D01*
X0022020Y0206291D01*
X0021884Y0206212D01*
X0021745Y0206135D01*
X0021604Y0206063D01*
X0021462Y0205993D01*
X0021318Y0205928D01*
X0021172Y0205866D01*
X0021025Y0205808D01*
X0020876Y0205753D01*
X0020726Y0205702D01*
X0020575Y0205655D01*
X0020423Y0205612D01*
X0020270Y0205573D01*
X0020115Y0205537D01*
X0019960Y0205506D01*
X0019804Y0205478D01*
X0019648Y0205454D01*
X0019491Y0205434D01*
X0019333Y0205418D01*
X0019176Y0205406D01*
X0019017Y0205398D01*
X0018859Y0205394D01*
X0018701Y0205394D01*
X0018543Y0205398D01*
X0018384Y0205406D01*
X0018227Y0205418D01*
X0018069Y0205434D01*
X0017912Y0205454D01*
X0017756Y0205478D01*
X0017600Y0205506D01*
X0017445Y0205537D01*
X0017290Y0205573D01*
X0017137Y0205612D01*
X0016985Y0205655D01*
X0016834Y0205702D01*
X0016684Y0205753D01*
X0016535Y0205808D01*
X0016388Y0205866D01*
X0016242Y0205928D01*
X0016098Y0205993D01*
X0015956Y0206063D01*
X0015815Y0206135D01*
X0015676Y0206212D01*
X0015540Y0206291D01*
X0015405Y0206375D01*
X0015272Y0206461D01*
X0015142Y0206551D01*
X0015014Y0206644D01*
X0014888Y0206740D01*
X0014765Y0206840D01*
X0014644Y0206942D01*
X0014526Y0207047D01*
X0014411Y0207156D01*
X0014298Y0207267D01*
X0014188Y0207381D01*
X0014081Y0207498D01*
X0013977Y0207617D01*
X0013876Y0207739D01*
X0013779Y0207864D01*
X0013684Y0207991D01*
X0013593Y0208120D01*
X0013504Y0208251D01*
X0013420Y0208385D01*
X0013338Y0208521D01*
X0013260Y0208658D01*
X0013186Y0208798D01*
X0013115Y0208940D01*
X0013047Y0209083D01*
X0012983Y0209228D01*
X0012923Y0209374D01*
X0012867Y0209522D01*
X0012814Y0209671D01*
X0012765Y0209822D01*
X0012720Y0209974D01*
X0012679Y0210127D01*
X0012641Y0210280D01*
X0012608Y0210435D01*
X0012578Y0210591D01*
X0012552Y0210747D01*
X0012531Y0210904D01*
X0012513Y0211061D01*
X0012499Y0211219D01*
X0012489Y0211377D01*
X0012483Y0211535D01*
X0012481Y0211693D01*
X0005000Y0209724D02*
X0005000Y0020748D01*
X0012481Y0018780D02*
X0012483Y0018938D01*
X0012489Y0019096D01*
X0012499Y0019254D01*
X0012513Y0019412D01*
X0012531Y0019569D01*
X0012552Y0019726D01*
X0012578Y0019882D01*
X0012608Y0020038D01*
X0012641Y0020193D01*
X0012679Y0020346D01*
X0012720Y0020499D01*
X0012765Y0020651D01*
X0012814Y0020802D01*
X0012867Y0020951D01*
X0012923Y0021099D01*
X0012983Y0021245D01*
X0013047Y0021390D01*
X0013115Y0021533D01*
X0013186Y0021675D01*
X0013260Y0021815D01*
X0013338Y0021952D01*
X0013420Y0022088D01*
X0013504Y0022222D01*
X0013593Y0022353D01*
X0013684Y0022482D01*
X0013779Y0022609D01*
X0013876Y0022734D01*
X0013977Y0022856D01*
X0014081Y0022975D01*
X0014188Y0023092D01*
X0014298Y0023206D01*
X0014411Y0023317D01*
X0014526Y0023426D01*
X0014644Y0023531D01*
X0014765Y0023633D01*
X0014888Y0023733D01*
X0015014Y0023829D01*
X0015142Y0023922D01*
X0015272Y0024012D01*
X0015405Y0024098D01*
X0015540Y0024182D01*
X0015676Y0024261D01*
X0015815Y0024338D01*
X0015956Y0024410D01*
X0016098Y0024480D01*
X0016242Y0024545D01*
X0016388Y0024607D01*
X0016535Y0024665D01*
X0016684Y0024720D01*
X0016834Y0024771D01*
X0016985Y0024818D01*
X0017137Y0024861D01*
X0017290Y0024900D01*
X0017445Y0024936D01*
X0017600Y0024967D01*
X0017756Y0024995D01*
X0017912Y0025019D01*
X0018069Y0025039D01*
X0018227Y0025055D01*
X0018384Y0025067D01*
X0018543Y0025075D01*
X0018701Y0025079D01*
X0018859Y0025079D01*
X0019017Y0025075D01*
X0019176Y0025067D01*
X0019333Y0025055D01*
X0019491Y0025039D01*
X0019648Y0025019D01*
X0019804Y0024995D01*
X0019960Y0024967D01*
X0020115Y0024936D01*
X0020270Y0024900D01*
X0020423Y0024861D01*
X0020575Y0024818D01*
X0020726Y0024771D01*
X0020876Y0024720D01*
X0021025Y0024665D01*
X0021172Y0024607D01*
X0021318Y0024545D01*
X0021462Y0024480D01*
X0021604Y0024410D01*
X0021745Y0024338D01*
X0021884Y0024261D01*
X0022020Y0024182D01*
X0022155Y0024098D01*
X0022288Y0024012D01*
X0022418Y0023922D01*
X0022546Y0023829D01*
X0022672Y0023733D01*
X0022795Y0023633D01*
X0022916Y0023531D01*
X0023034Y0023426D01*
X0023149Y0023317D01*
X0023262Y0023206D01*
X0023372Y0023092D01*
X0023479Y0022975D01*
X0023583Y0022856D01*
X0023684Y0022734D01*
X0023781Y0022609D01*
X0023876Y0022482D01*
X0023967Y0022353D01*
X0024056Y0022222D01*
X0024140Y0022088D01*
X0024222Y0021952D01*
X0024300Y0021815D01*
X0024374Y0021675D01*
X0024445Y0021533D01*
X0024513Y0021390D01*
X0024577Y0021245D01*
X0024637Y0021099D01*
X0024693Y0020951D01*
X0024746Y0020802D01*
X0024795Y0020651D01*
X0024840Y0020499D01*
X0024881Y0020346D01*
X0024919Y0020193D01*
X0024952Y0020038D01*
X0024982Y0019882D01*
X0025008Y0019726D01*
X0025029Y0019569D01*
X0025047Y0019412D01*
X0025061Y0019254D01*
X0025071Y0019096D01*
X0025077Y0018938D01*
X0025079Y0018780D01*
X0025077Y0018622D01*
X0025071Y0018464D01*
X0025061Y0018306D01*
X0025047Y0018148D01*
X0025029Y0017991D01*
X0025008Y0017834D01*
X0024982Y0017678D01*
X0024952Y0017522D01*
X0024919Y0017367D01*
X0024881Y0017214D01*
X0024840Y0017061D01*
X0024795Y0016909D01*
X0024746Y0016758D01*
X0024693Y0016609D01*
X0024637Y0016461D01*
X0024577Y0016315D01*
X0024513Y0016170D01*
X0024445Y0016027D01*
X0024374Y0015885D01*
X0024300Y0015745D01*
X0024222Y0015608D01*
X0024140Y0015472D01*
X0024056Y0015338D01*
X0023967Y0015207D01*
X0023876Y0015078D01*
X0023781Y0014951D01*
X0023684Y0014826D01*
X0023583Y0014704D01*
X0023479Y0014585D01*
X0023372Y0014468D01*
X0023262Y0014354D01*
X0023149Y0014243D01*
X0023034Y0014134D01*
X0022916Y0014029D01*
X0022795Y0013927D01*
X0022672Y0013827D01*
X0022546Y0013731D01*
X0022418Y0013638D01*
X0022288Y0013548D01*
X0022155Y0013462D01*
X0022020Y0013378D01*
X0021884Y0013299D01*
X0021745Y0013222D01*
X0021604Y0013150D01*
X0021462Y0013080D01*
X0021318Y0013015D01*
X0021172Y0012953D01*
X0021025Y0012895D01*
X0020876Y0012840D01*
X0020726Y0012789D01*
X0020575Y0012742D01*
X0020423Y0012699D01*
X0020270Y0012660D01*
X0020115Y0012624D01*
X0019960Y0012593D01*
X0019804Y0012565D01*
X0019648Y0012541D01*
X0019491Y0012521D01*
X0019333Y0012505D01*
X0019176Y0012493D01*
X0019017Y0012485D01*
X0018859Y0012481D01*
X0018701Y0012481D01*
X0018543Y0012485D01*
X0018384Y0012493D01*
X0018227Y0012505D01*
X0018069Y0012521D01*
X0017912Y0012541D01*
X0017756Y0012565D01*
X0017600Y0012593D01*
X0017445Y0012624D01*
X0017290Y0012660D01*
X0017137Y0012699D01*
X0016985Y0012742D01*
X0016834Y0012789D01*
X0016684Y0012840D01*
X0016535Y0012895D01*
X0016388Y0012953D01*
X0016242Y0013015D01*
X0016098Y0013080D01*
X0015956Y0013150D01*
X0015815Y0013222D01*
X0015676Y0013299D01*
X0015540Y0013378D01*
X0015405Y0013462D01*
X0015272Y0013548D01*
X0015142Y0013638D01*
X0015014Y0013731D01*
X0014888Y0013827D01*
X0014765Y0013927D01*
X0014644Y0014029D01*
X0014526Y0014134D01*
X0014411Y0014243D01*
X0014298Y0014354D01*
X0014188Y0014468D01*
X0014081Y0014585D01*
X0013977Y0014704D01*
X0013876Y0014826D01*
X0013779Y0014951D01*
X0013684Y0015078D01*
X0013593Y0015207D01*
X0013504Y0015338D01*
X0013420Y0015472D01*
X0013338Y0015608D01*
X0013260Y0015745D01*
X0013186Y0015885D01*
X0013115Y0016027D01*
X0013047Y0016170D01*
X0012983Y0016315D01*
X0012923Y0016461D01*
X0012867Y0016609D01*
X0012814Y0016758D01*
X0012765Y0016909D01*
X0012720Y0017061D01*
X0012679Y0017214D01*
X0012641Y0017367D01*
X0012608Y0017522D01*
X0012578Y0017678D01*
X0012552Y0017834D01*
X0012531Y0017991D01*
X0012513Y0018148D01*
X0012499Y0018306D01*
X0012489Y0018464D01*
X0012483Y0018622D01*
X0012481Y0018780D01*
X0005000Y0020748D02*
X0005005Y0020367D01*
X0005018Y0019987D01*
X0005041Y0019607D01*
X0005074Y0019228D01*
X0005115Y0018850D01*
X0005165Y0018473D01*
X0005225Y0018097D01*
X0005293Y0017722D01*
X0005371Y0017350D01*
X0005458Y0016979D01*
X0005553Y0016611D01*
X0005658Y0016245D01*
X0005771Y0015882D01*
X0005893Y0015521D01*
X0006023Y0015164D01*
X0006163Y0014810D01*
X0006310Y0014459D01*
X0006467Y0014112D01*
X0006631Y0013769D01*
X0006804Y0013430D01*
X0006985Y0013095D01*
X0007174Y0012764D01*
X0007371Y0012439D01*
X0007575Y0012118D01*
X0007788Y0011802D01*
X0008008Y0011492D01*
X0008235Y0011186D01*
X0008470Y0010887D01*
X0008712Y0010593D01*
X0008960Y0010305D01*
X0009216Y0010023D01*
X0009479Y0009748D01*
X0009748Y0009479D01*
X0010023Y0009216D01*
X0010305Y0008960D01*
X0010593Y0008712D01*
X0010887Y0008470D01*
X0011186Y0008235D01*
X0011492Y0008008D01*
X0011802Y0007788D01*
X0012118Y0007575D01*
X0012439Y0007371D01*
X0012764Y0007174D01*
X0013095Y0006985D01*
X0013430Y0006804D01*
X0013769Y0006631D01*
X0014112Y0006467D01*
X0014459Y0006310D01*
X0014810Y0006163D01*
X0015164Y0006023D01*
X0015521Y0005893D01*
X0015882Y0005771D01*
X0016245Y0005658D01*
X0016611Y0005553D01*
X0016979Y0005458D01*
X0017350Y0005371D01*
X0017722Y0005293D01*
X0018097Y0005225D01*
X0018473Y0005165D01*
X0018850Y0005115D01*
X0019228Y0005074D01*
X0019607Y0005041D01*
X0019987Y0005018D01*
X0020367Y0005005D01*
X0020748Y0005000D01*
X0005000Y0209724D02*
X0005005Y0210105D01*
X0005018Y0210485D01*
X0005041Y0210865D01*
X0005074Y0211244D01*
X0005115Y0211622D01*
X0005165Y0211999D01*
X0005225Y0212375D01*
X0005293Y0212750D01*
X0005371Y0213122D01*
X0005458Y0213493D01*
X0005553Y0213861D01*
X0005658Y0214227D01*
X0005771Y0214590D01*
X0005893Y0214951D01*
X0006023Y0215308D01*
X0006163Y0215662D01*
X0006310Y0216013D01*
X0006467Y0216360D01*
X0006631Y0216703D01*
X0006804Y0217042D01*
X0006985Y0217377D01*
X0007174Y0217708D01*
X0007371Y0218033D01*
X0007575Y0218354D01*
X0007788Y0218670D01*
X0008008Y0218980D01*
X0008235Y0219286D01*
X0008470Y0219585D01*
X0008712Y0219879D01*
X0008960Y0220167D01*
X0009216Y0220449D01*
X0009479Y0220724D01*
X0009748Y0220993D01*
X0010023Y0221256D01*
X0010305Y0221512D01*
X0010593Y0221760D01*
X0010887Y0222002D01*
X0011186Y0222237D01*
X0011492Y0222464D01*
X0011802Y0222684D01*
X0012118Y0222897D01*
X0012439Y0223101D01*
X0012764Y0223298D01*
X0013095Y0223487D01*
X0013430Y0223668D01*
X0013769Y0223841D01*
X0014112Y0224005D01*
X0014459Y0224162D01*
X0014810Y0224309D01*
X0015164Y0224449D01*
X0015521Y0224579D01*
X0015882Y0224701D01*
X0016245Y0224814D01*
X0016611Y0224919D01*
X0016979Y0225014D01*
X0017350Y0225101D01*
X0017722Y0225179D01*
X0018097Y0225247D01*
X0018473Y0225307D01*
X0018850Y0225357D01*
X0019228Y0225398D01*
X0019607Y0225431D01*
X0019987Y0225454D01*
X0020367Y0225467D01*
X0020748Y0225472D01*
D11*
X0020748Y0182165D03*
X0020748Y0130984D03*
D12*
X0020748Y0111299D03*
X0020748Y0162480D03*
D13*
X0037953Y0206693D03*
D14*
X0047900Y0206700D03*
X0057900Y0206700D03*
X0067900Y0206700D03*
X0077900Y0206700D03*
X0087900Y0206700D03*
X0097900Y0206700D03*
X0107900Y0206700D03*
X0117900Y0206700D03*
X0127900Y0206700D03*
X0137900Y0206700D03*
X0147900Y0206700D03*
X0157900Y0206700D03*
X0167900Y0206700D03*
X0177900Y0206700D03*
X0187900Y0206700D03*
X0197900Y0206700D03*
X0207900Y0206700D03*
X0217900Y0206700D03*
X0227900Y0206700D03*
X0227900Y0216700D03*
X0217900Y0216700D03*
X0207900Y0216700D03*
X0197900Y0216700D03*
X0187900Y0216700D03*
X0177900Y0216700D03*
X0167900Y0216700D03*
X0157900Y0216700D03*
X0147900Y0216700D03*
X0137900Y0216700D03*
X0127900Y0216700D03*
X0117900Y0216700D03*
X0107900Y0216700D03*
X0097900Y0216700D03*
X0087900Y0216700D03*
X0077900Y0216700D03*
X0067900Y0216700D03*
X0057900Y0216700D03*
X0047900Y0216700D03*
X0037900Y0216700D03*
D15*
X0229409Y0176417D03*
X0229409Y0156417D03*
D16*
X0235612Y0156460D02*
X0255921Y0156460D01*
X0255921Y0154493D02*
X0235326Y0154493D01*
X0235612Y0155184D02*
X0234668Y0152904D01*
X0232923Y0151159D01*
X0230643Y0150215D01*
X0228176Y0150215D01*
X0225896Y0151159D01*
X0224151Y0152904D01*
X0223207Y0155184D01*
X0223207Y0157651D01*
X0224151Y0159931D01*
X0225896Y0161676D01*
X0228176Y0162620D01*
X0230643Y0162620D01*
X0232923Y0161676D01*
X0234668Y0159931D01*
X0235612Y0157651D01*
X0235612Y0155184D01*
X0234290Y0152526D02*
X0255921Y0152526D01*
X0255921Y0150559D02*
X0231475Y0150559D01*
X0227344Y0150559D02*
X0105166Y0150559D01*
X0107133Y0148592D02*
X0255921Y0148592D01*
X0255921Y0146625D02*
X0109100Y0146625D01*
X0111067Y0144658D02*
X0255921Y0144658D01*
X0255921Y0142691D02*
X0182918Y0142691D01*
X0182636Y0142808D02*
X0180908Y0142808D01*
X0179311Y0142147D01*
X0178090Y0140925D01*
X0177428Y0139329D01*
X0177428Y0137601D01*
X0178090Y0136004D01*
X0178476Y0135618D01*
X0168330Y0125472D01*
X0130253Y0125472D01*
X0101063Y0154662D01*
X0101063Y0172447D01*
X0101469Y0173427D01*
X0101469Y0175155D01*
X0100808Y0176752D01*
X0099586Y0177973D01*
X0097990Y0178635D01*
X0096262Y0178635D01*
X0094666Y0177973D01*
X0093444Y0176752D01*
X0092783Y0175155D01*
X0092783Y0173427D01*
X0093189Y0172447D01*
X0093189Y0152248D01*
X0093788Y0150801D01*
X0125284Y0119305D01*
X0126392Y0118198D01*
X0127839Y0117598D01*
X0170744Y0117598D01*
X0172191Y0118198D01*
X0185577Y0131584D01*
X0186684Y0132691D01*
X0187283Y0134138D01*
X0187283Y0137673D01*
X0186684Y0139120D01*
X0185860Y0139944D01*
X0185454Y0140925D01*
X0184232Y0142147D01*
X0182636Y0142808D01*
X0180626Y0142691D02*
X0113034Y0142691D01*
X0115001Y0140724D02*
X0178006Y0140724D01*
X0177428Y0138757D02*
X0116968Y0138757D01*
X0118935Y0136790D02*
X0177764Y0136790D01*
X0177680Y0134823D02*
X0120902Y0134823D01*
X0122869Y0132856D02*
X0175713Y0132856D01*
X0173746Y0130889D02*
X0124836Y0130889D01*
X0126803Y0128922D02*
X0171779Y0128922D01*
X0169812Y0126955D02*
X0128770Y0126955D01*
X0128622Y0121535D02*
X0169961Y0121535D01*
X0183346Y0134921D01*
X0183346Y0136890D01*
X0181772Y0138465D01*
X0185537Y0140724D02*
X0255921Y0140724D01*
X0255921Y0138757D02*
X0186834Y0138757D01*
X0187283Y0136790D02*
X0255921Y0136790D01*
X0255921Y0134823D02*
X0187283Y0134823D01*
X0186752Y0132856D02*
X0255921Y0132856D01*
X0255921Y0130889D02*
X0184882Y0130889D01*
X0182915Y0128922D02*
X0255921Y0128922D01*
X0255921Y0126955D02*
X0180948Y0126955D01*
X0178981Y0124988D02*
X0255921Y0124988D01*
X0255921Y0123021D02*
X0177014Y0123021D01*
X0175047Y0121054D02*
X0255921Y0121054D01*
X0255921Y0119087D02*
X0173080Y0119087D01*
X0189646Y0154213D02*
X0136890Y0154213D01*
X0150737Y0168262D02*
X0101063Y0168262D01*
X0101063Y0166295D02*
X0152704Y0166295D01*
X0154671Y0164328D02*
X0101063Y0164328D01*
X0101063Y0162361D02*
X0156638Y0162361D01*
X0158605Y0160394D02*
X0101063Y0160394D01*
X0101063Y0158427D02*
X0159997Y0158427D01*
X0159586Y0158839D02*
X0160807Y0157617D01*
X0162404Y0156956D01*
X0164132Y0156956D01*
X0165728Y0157617D01*
X0166950Y0158839D01*
X0167611Y0160435D01*
X0167611Y0162163D01*
X0166950Y0163759D01*
X0165728Y0164981D01*
X0164747Y0165388D01*
X0143189Y0186946D01*
X0143189Y0194759D01*
X0142590Y0196207D01*
X0141482Y0197314D01*
X0138049Y0200747D01*
X0139084Y0200747D01*
X0141272Y0201653D01*
X0142900Y0203282D01*
X0144528Y0201653D01*
X0146716Y0200747D01*
X0149084Y0200747D01*
X0151272Y0201653D01*
X0152900Y0203282D01*
X0154528Y0201653D01*
X0156716Y0200747D01*
X0159084Y0200747D01*
X0161272Y0201653D01*
X0162900Y0203282D01*
X0164528Y0201653D01*
X0166716Y0200747D01*
X0169084Y0200747D01*
X0171272Y0201653D01*
X0172900Y0203282D01*
X0174528Y0201653D01*
X0176716Y0200747D01*
X0179084Y0200747D01*
X0181272Y0201653D01*
X0182900Y0203282D01*
X0184528Y0201653D01*
X0186716Y0200747D01*
X0189084Y0200747D01*
X0191272Y0201653D01*
X0192900Y0203282D01*
X0194528Y0201653D01*
X0196716Y0200747D01*
X0199084Y0200747D01*
X0201272Y0201653D01*
X0202900Y0203282D01*
X0204528Y0201653D01*
X0206716Y0200747D01*
X0209084Y0200747D01*
X0211272Y0201653D01*
X0212900Y0203282D01*
X0214528Y0201653D01*
X0216716Y0200747D01*
X0219084Y0200747D01*
X0221272Y0201653D01*
X0222900Y0203282D01*
X0224528Y0201653D01*
X0226716Y0200747D01*
X0229084Y0200747D01*
X0231272Y0201653D01*
X0232946Y0203328D01*
X0233853Y0205516D01*
X0233853Y0207884D01*
X0232946Y0210072D01*
X0231318Y0211700D01*
X0232946Y0213328D01*
X0233853Y0215516D01*
X0233853Y0217884D01*
X0232946Y0220072D01*
X0232530Y0220488D01*
X0239964Y0220488D01*
X0238097Y0218621D01*
X0236611Y0216048D01*
X0235843Y0213178D01*
X0235843Y0210207D01*
X0236611Y0207338D01*
X0238097Y0204765D01*
X0240198Y0202664D01*
X0242771Y0201178D01*
X0245640Y0200409D01*
X0248611Y0200409D01*
X0251481Y0201178D01*
X0254054Y0202664D01*
X0255921Y0204531D01*
X0255921Y0025941D01*
X0254054Y0027809D01*
X0251481Y0029294D01*
X0248611Y0030063D01*
X0245640Y0030063D01*
X0242771Y0029294D01*
X0240198Y0027809D01*
X0238097Y0025708D01*
X0236611Y0023135D01*
X0235843Y0020265D01*
X0235843Y0017294D01*
X0236611Y0014424D01*
X0238097Y0011851D01*
X0239964Y0009984D01*
X0025941Y0009984D01*
X0027809Y0011851D01*
X0029294Y0014424D01*
X0030063Y0017294D01*
X0030063Y0020265D01*
X0029294Y0023135D01*
X0027809Y0025708D01*
X0025708Y0027809D01*
X0023135Y0029294D01*
X0020265Y0030063D01*
X0017294Y0030063D01*
X0014424Y0029294D01*
X0011851Y0027809D01*
X0009984Y0025941D01*
X0009984Y0204531D01*
X0011851Y0202664D01*
X0014424Y0201178D01*
X0017294Y0200409D01*
X0020265Y0200409D01*
X0023135Y0201178D01*
X0025708Y0202664D01*
X0027809Y0204765D01*
X0029294Y0207338D01*
X0030063Y0210207D01*
X0030063Y0213178D01*
X0029294Y0216048D01*
X0027809Y0218621D01*
X0025941Y0220488D01*
X0033270Y0220488D01*
X0032853Y0220072D01*
X0031947Y0217884D01*
X0031947Y0215516D01*
X0032853Y0213328D01*
X0033779Y0212403D01*
X0033280Y0212196D01*
X0032450Y0211366D01*
X0032000Y0210280D01*
X0032000Y0203106D01*
X0032450Y0202020D01*
X0033280Y0201190D01*
X0034365Y0200740D01*
X0041540Y0200740D01*
X0042625Y0201190D01*
X0043456Y0202020D01*
X0043663Y0202519D01*
X0044528Y0201653D01*
X0046716Y0200747D01*
X0049084Y0200747D01*
X0049206Y0200798D01*
X0049694Y0199620D01*
X0053237Y0196077D01*
X0054345Y0194969D01*
X0055792Y0194370D01*
X0098645Y0194370D01*
X0117841Y0175174D01*
X0118247Y0174193D01*
X0119469Y0172971D01*
X0121065Y0172310D01*
X0122793Y0172310D01*
X0124389Y0172971D01*
X0125611Y0174193D01*
X0126272Y0175790D01*
X0126272Y0177517D01*
X0125611Y0179114D01*
X0124389Y0180336D01*
X0123409Y0180742D01*
X0103613Y0200537D01*
X0102506Y0201645D01*
X0101627Y0202009D01*
X0102900Y0203282D01*
X0104528Y0201653D01*
X0106716Y0200747D01*
X0109084Y0200747D01*
X0111272Y0201653D01*
X0112900Y0203282D01*
X0114528Y0201653D01*
X0116716Y0200747D01*
X0119084Y0200747D01*
X0121272Y0201653D01*
X0122900Y0203282D01*
X0124528Y0201653D01*
X0126716Y0200747D01*
X0126913Y0200747D01*
X0135315Y0192346D01*
X0135315Y0184532D01*
X0135914Y0183085D01*
X0159179Y0159820D01*
X0159586Y0158839D01*
X0163268Y0161299D02*
X0139252Y0185315D01*
X0139252Y0193976D01*
X0127900Y0205328D01*
X0127900Y0206700D01*
X0124480Y0201702D02*
X0121320Y0201702D01*
X0127926Y0199735D02*
X0104416Y0199735D01*
X0103613Y0200537D02*
X0103613Y0200537D01*
X0104480Y0201702D02*
X0102369Y0201702D01*
X0100276Y0198307D02*
X0121929Y0176654D01*
X0126032Y0178097D02*
X0140902Y0178097D01*
X0142869Y0176130D02*
X0126272Y0176130D01*
X0125581Y0174163D02*
X0144836Y0174163D01*
X0146803Y0172196D02*
X0101063Y0172196D01*
X0101063Y0170229D02*
X0148770Y0170229D01*
X0154004Y0176130D02*
X0223207Y0176130D01*
X0223207Y0175184D02*
X0224151Y0172904D01*
X0225896Y0171159D01*
X0228176Y0170215D01*
X0230643Y0170215D01*
X0232923Y0171159D01*
X0234668Y0172904D01*
X0235612Y0175184D01*
X0235612Y0177651D01*
X0234668Y0179931D01*
X0232923Y0181676D01*
X0230643Y0182620D01*
X0228176Y0182620D01*
X0225896Y0181676D01*
X0224151Y0179931D01*
X0223207Y0177651D01*
X0223207Y0175184D01*
X0223629Y0174163D02*
X0155971Y0174163D01*
X0157938Y0172196D02*
X0224858Y0172196D01*
X0228140Y0170229D02*
X0159905Y0170229D01*
X0161872Y0168262D02*
X0255921Y0168262D01*
X0255921Y0166295D02*
X0163839Y0166295D01*
X0166381Y0164328D02*
X0255921Y0164328D01*
X0255921Y0162361D02*
X0231268Y0162361D01*
X0227551Y0162361D02*
X0167529Y0162361D01*
X0167594Y0160394D02*
X0224614Y0160394D01*
X0223528Y0158427D02*
X0166538Y0158427D01*
X0189646Y0154213D02*
X0194764Y0159331D01*
X0223207Y0156460D02*
X0101063Y0156460D01*
X0101232Y0154493D02*
X0223493Y0154493D01*
X0224529Y0152526D02*
X0103199Y0152526D01*
X0097126Y0153031D02*
X0128622Y0121535D01*
X0125503Y0119087D02*
X0009984Y0119087D01*
X0009984Y0121054D02*
X0123536Y0121054D01*
X0121569Y0123021D02*
X0009984Y0123021D01*
X0009984Y0124988D02*
X0014569Y0124988D01*
X0014245Y0125312D02*
X0015075Y0124481D01*
X0016161Y0124031D01*
X0025335Y0124031D01*
X0026421Y0124481D01*
X0027251Y0125312D01*
X0027701Y0126397D01*
X0027701Y0127047D01*
X0047515Y0127047D01*
X0048962Y0127647D01*
X0050931Y0129615D01*
X0052038Y0130723D01*
X0052638Y0132170D01*
X0052638Y0169956D01*
X0052038Y0171403D01*
X0039046Y0184395D01*
X0037939Y0185503D01*
X0036492Y0186102D01*
X0027701Y0186102D01*
X0027701Y0186753D01*
X0027251Y0187838D01*
X0026421Y0188669D01*
X0025335Y0189118D01*
X0016161Y0189118D01*
X0015075Y0188669D01*
X0014245Y0187838D01*
X0013795Y0186753D01*
X0013795Y0177578D01*
X0014245Y0176493D01*
X0015075Y0175662D01*
X0016161Y0175213D01*
X0025335Y0175213D01*
X0026421Y0175662D01*
X0027251Y0176493D01*
X0027701Y0177578D01*
X0027701Y0178228D01*
X0034078Y0178228D01*
X0044764Y0167542D01*
X0044764Y0134921D01*
X0027701Y0134921D01*
X0027701Y0135572D01*
X0027251Y0136657D01*
X0026421Y0137487D01*
X0025335Y0137937D01*
X0016161Y0137937D01*
X0015075Y0137487D01*
X0014245Y0136657D01*
X0013795Y0135572D01*
X0013795Y0126397D01*
X0014245Y0125312D01*
X0013795Y0126955D02*
X0009984Y0126955D01*
X0009984Y0128922D02*
X0013795Y0128922D01*
X0013795Y0130889D02*
X0009984Y0130889D01*
X0009984Y0132856D02*
X0013795Y0132856D01*
X0013795Y0134823D02*
X0009984Y0134823D01*
X0009984Y0136790D02*
X0014378Y0136790D01*
X0009984Y0138757D02*
X0044764Y0138757D01*
X0044764Y0136790D02*
X0027118Y0136790D01*
X0020748Y0130984D02*
X0046732Y0130984D01*
X0048701Y0132953D01*
X0048701Y0169173D01*
X0035709Y0182165D01*
X0020748Y0182165D01*
X0013795Y0182031D02*
X0009984Y0182031D01*
X0009984Y0180064D02*
X0013795Y0180064D01*
X0013795Y0178097D02*
X0009984Y0178097D01*
X0009984Y0176130D02*
X0014607Y0176130D01*
X0009984Y0174163D02*
X0038143Y0174163D01*
X0040110Y0172196D02*
X0009984Y0172196D01*
X0009984Y0170229D02*
X0042077Y0170229D01*
X0044044Y0168262D02*
X0024799Y0168262D01*
X0024686Y0168375D02*
X0022131Y0169433D01*
X0019365Y0169433D01*
X0016810Y0168375D01*
X0014854Y0166419D01*
X0013795Y0163863D01*
X0013795Y0161097D01*
X0014854Y0158542D01*
X0016810Y0156586D01*
X0019365Y0155528D01*
X0022131Y0155528D01*
X0024686Y0156586D01*
X0026642Y0158542D01*
X0027701Y0161097D01*
X0027701Y0163863D01*
X0026642Y0166419D01*
X0024686Y0168375D01*
X0026693Y0166295D02*
X0044764Y0166295D01*
X0044764Y0164328D02*
X0027508Y0164328D01*
X0027701Y0162361D02*
X0044764Y0162361D01*
X0044764Y0160394D02*
X0027410Y0160394D01*
X0026528Y0158427D02*
X0044764Y0158427D01*
X0044764Y0156460D02*
X0024383Y0156460D01*
X0017113Y0156460D02*
X0009984Y0156460D01*
X0009984Y0154493D02*
X0044764Y0154493D01*
X0044764Y0152526D02*
X0009984Y0152526D01*
X0009984Y0150559D02*
X0044764Y0150559D01*
X0044764Y0148592D02*
X0009984Y0148592D01*
X0009984Y0146625D02*
X0044764Y0146625D01*
X0044764Y0144658D02*
X0009984Y0144658D01*
X0009984Y0142691D02*
X0044764Y0142691D01*
X0044764Y0140724D02*
X0009984Y0140724D01*
X0027701Y0126955D02*
X0117635Y0126955D01*
X0119602Y0124988D02*
X0026928Y0124988D01*
X0024686Y0117193D02*
X0022131Y0118252D01*
X0019365Y0118252D01*
X0016810Y0117193D01*
X0014854Y0115238D01*
X0013795Y0112682D01*
X0013795Y0109916D01*
X0014854Y0107361D01*
X0016810Y0105405D01*
X0019365Y0104346D01*
X0022131Y0104346D01*
X0024686Y0105405D01*
X0026642Y0107361D01*
X0027701Y0109916D01*
X0027701Y0112682D01*
X0026642Y0115238D01*
X0024686Y0117193D01*
X0024760Y0117120D02*
X0255921Y0117120D01*
X0255921Y0115153D02*
X0026677Y0115153D01*
X0027492Y0113186D02*
X0255921Y0113186D01*
X0255921Y0111219D02*
X0027701Y0111219D01*
X0027426Y0109252D02*
X0255921Y0109252D01*
X0255921Y0107285D02*
X0026566Y0107285D01*
X0024476Y0105318D02*
X0255921Y0105318D01*
X0255921Y0103351D02*
X0009984Y0103351D01*
X0009984Y0105318D02*
X0017020Y0105318D01*
X0014930Y0107285D02*
X0009984Y0107285D01*
X0009984Y0109252D02*
X0014070Y0109252D01*
X0013795Y0111219D02*
X0009984Y0111219D01*
X0009984Y0113186D02*
X0014004Y0113186D01*
X0014819Y0115153D02*
X0009984Y0115153D01*
X0009984Y0117120D02*
X0016736Y0117120D01*
X0009984Y0101384D02*
X0255921Y0101384D01*
X0255921Y0099417D02*
X0009984Y0099417D01*
X0009984Y0097450D02*
X0255921Y0097450D01*
X0255921Y0095483D02*
X0009984Y0095483D01*
X0009984Y0093516D02*
X0255921Y0093516D01*
X0255921Y0091549D02*
X0009984Y0091549D01*
X0009984Y0089582D02*
X0255921Y0089582D01*
X0255921Y0087615D02*
X0009984Y0087615D01*
X0009984Y0085648D02*
X0255921Y0085648D01*
X0255921Y0083681D02*
X0009984Y0083681D01*
X0009984Y0081714D02*
X0255921Y0081714D01*
X0255921Y0079747D02*
X0009984Y0079747D01*
X0009984Y0077780D02*
X0255921Y0077780D01*
X0255921Y0075813D02*
X0009984Y0075813D01*
X0009984Y0073846D02*
X0255921Y0073846D01*
X0255921Y0071879D02*
X0009984Y0071879D01*
X0009984Y0069912D02*
X0255921Y0069912D01*
X0255921Y0067944D02*
X0009984Y0067944D01*
X0009984Y0065977D02*
X0255921Y0065977D01*
X0255921Y0064010D02*
X0009984Y0064010D01*
X0009984Y0062043D02*
X0255921Y0062043D01*
X0255921Y0060076D02*
X0009984Y0060076D01*
X0009984Y0058109D02*
X0255921Y0058109D01*
X0255921Y0056142D02*
X0009984Y0056142D01*
X0009984Y0054175D02*
X0255921Y0054175D01*
X0255921Y0052208D02*
X0009984Y0052208D01*
X0009984Y0050241D02*
X0255921Y0050241D01*
X0255921Y0048274D02*
X0009984Y0048274D01*
X0009984Y0046307D02*
X0255921Y0046307D01*
X0255921Y0044340D02*
X0009984Y0044340D01*
X0009984Y0042373D02*
X0255921Y0042373D01*
X0255921Y0040406D02*
X0009984Y0040406D01*
X0009984Y0038439D02*
X0255921Y0038439D01*
X0255921Y0036472D02*
X0009984Y0036472D01*
X0009984Y0034505D02*
X0255921Y0034505D01*
X0255921Y0032538D02*
X0009984Y0032538D01*
X0009984Y0030571D02*
X0255921Y0030571D01*
X0255921Y0028604D02*
X0252676Y0028604D01*
X0255226Y0026637D02*
X0255921Y0026637D01*
X0241576Y0028604D02*
X0024330Y0028604D01*
X0026879Y0026637D02*
X0239026Y0026637D01*
X0237498Y0024670D02*
X0028408Y0024670D01*
X0029410Y0022703D02*
X0236496Y0022703D01*
X0235969Y0020736D02*
X0029937Y0020736D01*
X0030063Y0018769D02*
X0235843Y0018769D01*
X0235974Y0016802D02*
X0029931Y0016802D01*
X0029404Y0014835D02*
X0236501Y0014835D01*
X0237510Y0012868D02*
X0028396Y0012868D01*
X0026858Y0010901D02*
X0239047Y0010901D01*
X0115668Y0128922D02*
X0050238Y0128922D01*
X0052107Y0130889D02*
X0113701Y0130889D01*
X0111734Y0132856D02*
X0052638Y0132856D01*
X0052638Y0134823D02*
X0109767Y0134823D01*
X0107800Y0136790D02*
X0052638Y0136790D01*
X0052638Y0138757D02*
X0105833Y0138757D01*
X0103866Y0140724D02*
X0052638Y0140724D01*
X0052638Y0142691D02*
X0101899Y0142691D01*
X0099932Y0144658D02*
X0052638Y0144658D01*
X0052638Y0146625D02*
X0097965Y0146625D01*
X0095998Y0148592D02*
X0052638Y0148592D01*
X0052638Y0150559D02*
X0094031Y0150559D01*
X0093189Y0152526D02*
X0052638Y0152526D01*
X0052638Y0154493D02*
X0093189Y0154493D01*
X0093189Y0156460D02*
X0052638Y0156460D01*
X0052638Y0158427D02*
X0093189Y0158427D01*
X0093189Y0160394D02*
X0052638Y0160394D01*
X0052638Y0162361D02*
X0093189Y0162361D01*
X0093189Y0164328D02*
X0052638Y0164328D01*
X0052638Y0166295D02*
X0093189Y0166295D01*
X0093189Y0168262D02*
X0052638Y0168262D01*
X0052525Y0170229D02*
X0093189Y0170229D01*
X0093189Y0172196D02*
X0051245Y0172196D01*
X0049278Y0174163D02*
X0092783Y0174163D01*
X0093187Y0176130D02*
X0047311Y0176130D01*
X0045344Y0178097D02*
X0094965Y0178097D01*
X0099287Y0178097D02*
X0114918Y0178097D01*
X0116885Y0176130D02*
X0101065Y0176130D01*
X0101469Y0174163D02*
X0118277Y0174163D01*
X0112951Y0180064D02*
X0043377Y0180064D01*
X0041410Y0182031D02*
X0110984Y0182031D01*
X0109017Y0183998D02*
X0039443Y0183998D01*
X0036822Y0185965D02*
X0107050Y0185965D01*
X0105082Y0187932D02*
X0027157Y0187932D01*
X0027701Y0178097D02*
X0034209Y0178097D01*
X0036176Y0176130D02*
X0026889Y0176130D01*
X0016697Y0168262D02*
X0009984Y0168262D01*
X0009984Y0166295D02*
X0014803Y0166295D01*
X0013988Y0164328D02*
X0009984Y0164328D01*
X0009984Y0162361D02*
X0013795Y0162361D01*
X0014087Y0160394D02*
X0009984Y0160394D01*
X0009984Y0158427D02*
X0014968Y0158427D01*
X0013795Y0183998D02*
X0009984Y0183998D01*
X0009984Y0185965D02*
X0013795Y0185965D01*
X0014339Y0187932D02*
X0009984Y0187932D01*
X0009984Y0189899D02*
X0103115Y0189899D01*
X0101148Y0191866D02*
X0009984Y0191866D01*
X0009984Y0193833D02*
X0099181Y0193833D01*
X0100276Y0198307D02*
X0056575Y0198307D01*
X0053031Y0201850D01*
X0053031Y0213268D01*
X0049599Y0216700D01*
X0047900Y0216700D01*
X0037900Y0216700D01*
X0032577Y0219405D02*
X0027025Y0219405D01*
X0028492Y0217438D02*
X0031947Y0217438D01*
X0031966Y0215471D02*
X0029449Y0215471D01*
X0029976Y0213504D02*
X0032781Y0213504D01*
X0032621Y0211537D02*
X0030063Y0211537D01*
X0029892Y0209570D02*
X0032000Y0209570D01*
X0032000Y0207603D02*
X0029365Y0207603D01*
X0028311Y0205636D02*
X0032000Y0205636D01*
X0032000Y0203669D02*
X0026712Y0203669D01*
X0024041Y0201702D02*
X0032768Y0201702D01*
X0043137Y0201702D02*
X0044480Y0201702D01*
X0049647Y0199735D02*
X0009984Y0199735D01*
X0009984Y0201702D02*
X0013518Y0201702D01*
X0010847Y0203669D02*
X0009984Y0203669D01*
X0009984Y0197767D02*
X0051547Y0197767D01*
X0053514Y0195800D02*
X0009984Y0195800D01*
X0097126Y0174291D02*
X0097126Y0153031D01*
X0124661Y0180064D02*
X0138935Y0180064D01*
X0136968Y0182031D02*
X0122119Y0182031D01*
X0120152Y0183998D02*
X0135536Y0183998D01*
X0135315Y0185965D02*
X0118185Y0185965D01*
X0116218Y0187932D02*
X0135315Y0187932D01*
X0135315Y0189899D02*
X0114251Y0189899D01*
X0112284Y0191866D02*
X0135315Y0191866D01*
X0133827Y0193833D02*
X0110317Y0193833D01*
X0108350Y0195800D02*
X0131860Y0195800D01*
X0129893Y0197767D02*
X0106383Y0197767D01*
X0111320Y0201702D02*
X0114480Y0201702D01*
X0139062Y0199735D02*
X0255921Y0199735D01*
X0255921Y0201702D02*
X0252387Y0201702D01*
X0255059Y0203669D02*
X0255921Y0203669D01*
X0255921Y0197767D02*
X0141029Y0197767D01*
X0142758Y0195800D02*
X0255921Y0195800D01*
X0255921Y0193833D02*
X0143189Y0193833D01*
X0143189Y0191866D02*
X0255921Y0191866D01*
X0255921Y0189899D02*
X0143189Y0189899D01*
X0143189Y0187932D02*
X0255921Y0187932D01*
X0255921Y0185965D02*
X0144169Y0185965D01*
X0146136Y0183998D02*
X0255921Y0183998D01*
X0255921Y0182031D02*
X0232064Y0182031D01*
X0234534Y0180064D02*
X0255921Y0180064D01*
X0255921Y0178097D02*
X0235427Y0178097D01*
X0235612Y0176130D02*
X0255921Y0176130D01*
X0255921Y0174163D02*
X0235190Y0174163D01*
X0233960Y0172196D02*
X0255921Y0172196D01*
X0255921Y0170229D02*
X0230679Y0170229D01*
X0234205Y0160394D02*
X0255921Y0160394D01*
X0255921Y0158427D02*
X0235291Y0158427D01*
X0223392Y0178097D02*
X0152037Y0178097D01*
X0150070Y0180064D02*
X0224284Y0180064D01*
X0226754Y0182031D02*
X0148103Y0182031D01*
X0151320Y0201702D02*
X0154480Y0201702D01*
X0161320Y0201702D02*
X0164480Y0201702D01*
X0171320Y0201702D02*
X0174480Y0201702D01*
X0181320Y0201702D02*
X0184480Y0201702D01*
X0191320Y0201702D02*
X0194480Y0201702D01*
X0201320Y0201702D02*
X0204480Y0201702D01*
X0211320Y0201702D02*
X0214480Y0201702D01*
X0221320Y0201702D02*
X0224480Y0201702D01*
X0231320Y0201702D02*
X0241865Y0201702D01*
X0239193Y0203669D02*
X0233088Y0203669D01*
X0233853Y0205636D02*
X0237594Y0205636D01*
X0236540Y0207603D02*
X0233853Y0207603D01*
X0233155Y0209570D02*
X0236013Y0209570D01*
X0235843Y0211537D02*
X0231482Y0211537D01*
X0233019Y0213504D02*
X0235930Y0213504D01*
X0236457Y0215471D02*
X0233834Y0215471D01*
X0233853Y0217438D02*
X0237414Y0217438D01*
X0238881Y0219405D02*
X0233223Y0219405D01*
X0144480Y0201702D02*
X0141320Y0201702D01*
X0013229Y0028604D02*
X0009984Y0028604D01*
X0009984Y0026637D02*
X0010680Y0026637D01*
D17*
X0079803Y0091614D03*
X0091614Y0091614D03*
X0103425Y0091614D03*
X0119173Y0091614D03*
X0134921Y0091614D03*
X0154606Y0091614D03*
X0154606Y0111299D03*
X0134921Y0111299D03*
X0119173Y0111299D03*
X0103425Y0111299D03*
X0091614Y0111299D03*
X0079803Y0111299D03*
X0136890Y0154213D03*
X0121929Y0176654D03*
X0130984Y0178228D03*
X0123110Y0186102D03*
X0115236Y0193976D03*
X0099488Y0182165D03*
X0091614Y0190039D03*
X0097126Y0174291D03*
X0087677Y0166417D03*
X0079803Y0174291D03*
X0071929Y0182165D03*
X0056181Y0170354D03*
X0064055Y0162480D03*
X0107362Y0174291D03*
X0163268Y0161299D03*
X0181772Y0138465D03*
X0201850Y0158543D03*
X0194764Y0159331D03*
X0193976Y0174291D03*
X0201850Y0174291D03*
X0201850Y0182165D03*
X0193976Y0182165D03*
X0201850Y0190039D03*
X0201850Y0197913D03*
X0213661Y0197913D03*
X0213661Y0190039D03*
X0225472Y0190039D03*
X0225472Y0197913D03*
X0237283Y0197913D03*
X0237283Y0190039D03*
X0249094Y0190039D03*
X0249094Y0197913D03*
X0241220Y0166417D03*
X0233346Y0166417D03*
X0233346Y0138858D03*
X0217598Y0138858D03*
X0217598Y0123110D03*
X0233346Y0123110D03*
X0249094Y0123110D03*
X0249094Y0138858D03*
X0174291Y0111299D03*
X0174291Y0091614D03*
X0028622Y0197913D03*
X0020748Y0197913D03*
M02*
