G75*
%MOIN*%
%OFA0B0*%
%FSLAX25Y25*%
%IPPOS*%
%LPD*%
%AMOC8*
5,1,8,0,0,1.08239X$1,22.5*
%
%ADD10C,0.00000*%
%ADD11C,0.00600*%
%ADD12C,0.00500*%
%ADD13C,0.00800*%
%ADD14C,0.00010*%
D10*
X0020748Y0005000D02*
X0245157Y0005000D01*
X0240827Y0018780D02*
X0240829Y0018938D01*
X0240835Y0019096D01*
X0240845Y0019254D01*
X0240859Y0019412D01*
X0240877Y0019569D01*
X0240898Y0019726D01*
X0240924Y0019882D01*
X0240954Y0020038D01*
X0240987Y0020193D01*
X0241025Y0020346D01*
X0241066Y0020499D01*
X0241111Y0020651D01*
X0241160Y0020802D01*
X0241213Y0020951D01*
X0241269Y0021099D01*
X0241329Y0021245D01*
X0241393Y0021390D01*
X0241461Y0021533D01*
X0241532Y0021675D01*
X0241606Y0021815D01*
X0241684Y0021952D01*
X0241766Y0022088D01*
X0241850Y0022222D01*
X0241939Y0022353D01*
X0242030Y0022482D01*
X0242125Y0022609D01*
X0242222Y0022734D01*
X0242323Y0022856D01*
X0242427Y0022975D01*
X0242534Y0023092D01*
X0242644Y0023206D01*
X0242757Y0023317D01*
X0242872Y0023426D01*
X0242990Y0023531D01*
X0243111Y0023633D01*
X0243234Y0023733D01*
X0243360Y0023829D01*
X0243488Y0023922D01*
X0243618Y0024012D01*
X0243751Y0024098D01*
X0243886Y0024182D01*
X0244022Y0024261D01*
X0244161Y0024338D01*
X0244302Y0024410D01*
X0244444Y0024480D01*
X0244588Y0024545D01*
X0244734Y0024607D01*
X0244881Y0024665D01*
X0245030Y0024720D01*
X0245180Y0024771D01*
X0245331Y0024818D01*
X0245483Y0024861D01*
X0245636Y0024900D01*
X0245791Y0024936D01*
X0245946Y0024967D01*
X0246102Y0024995D01*
X0246258Y0025019D01*
X0246415Y0025039D01*
X0246573Y0025055D01*
X0246730Y0025067D01*
X0246889Y0025075D01*
X0247047Y0025079D01*
X0247205Y0025079D01*
X0247363Y0025075D01*
X0247522Y0025067D01*
X0247679Y0025055D01*
X0247837Y0025039D01*
X0247994Y0025019D01*
X0248150Y0024995D01*
X0248306Y0024967D01*
X0248461Y0024936D01*
X0248616Y0024900D01*
X0248769Y0024861D01*
X0248921Y0024818D01*
X0249072Y0024771D01*
X0249222Y0024720D01*
X0249371Y0024665D01*
X0249518Y0024607D01*
X0249664Y0024545D01*
X0249808Y0024480D01*
X0249950Y0024410D01*
X0250091Y0024338D01*
X0250230Y0024261D01*
X0250366Y0024182D01*
X0250501Y0024098D01*
X0250634Y0024012D01*
X0250764Y0023922D01*
X0250892Y0023829D01*
X0251018Y0023733D01*
X0251141Y0023633D01*
X0251262Y0023531D01*
X0251380Y0023426D01*
X0251495Y0023317D01*
X0251608Y0023206D01*
X0251718Y0023092D01*
X0251825Y0022975D01*
X0251929Y0022856D01*
X0252030Y0022734D01*
X0252127Y0022609D01*
X0252222Y0022482D01*
X0252313Y0022353D01*
X0252402Y0022222D01*
X0252486Y0022088D01*
X0252568Y0021952D01*
X0252646Y0021815D01*
X0252720Y0021675D01*
X0252791Y0021533D01*
X0252859Y0021390D01*
X0252923Y0021245D01*
X0252983Y0021099D01*
X0253039Y0020951D01*
X0253092Y0020802D01*
X0253141Y0020651D01*
X0253186Y0020499D01*
X0253227Y0020346D01*
X0253265Y0020193D01*
X0253298Y0020038D01*
X0253328Y0019882D01*
X0253354Y0019726D01*
X0253375Y0019569D01*
X0253393Y0019412D01*
X0253407Y0019254D01*
X0253417Y0019096D01*
X0253423Y0018938D01*
X0253425Y0018780D01*
X0253423Y0018622D01*
X0253417Y0018464D01*
X0253407Y0018306D01*
X0253393Y0018148D01*
X0253375Y0017991D01*
X0253354Y0017834D01*
X0253328Y0017678D01*
X0253298Y0017522D01*
X0253265Y0017367D01*
X0253227Y0017214D01*
X0253186Y0017061D01*
X0253141Y0016909D01*
X0253092Y0016758D01*
X0253039Y0016609D01*
X0252983Y0016461D01*
X0252923Y0016315D01*
X0252859Y0016170D01*
X0252791Y0016027D01*
X0252720Y0015885D01*
X0252646Y0015745D01*
X0252568Y0015608D01*
X0252486Y0015472D01*
X0252402Y0015338D01*
X0252313Y0015207D01*
X0252222Y0015078D01*
X0252127Y0014951D01*
X0252030Y0014826D01*
X0251929Y0014704D01*
X0251825Y0014585D01*
X0251718Y0014468D01*
X0251608Y0014354D01*
X0251495Y0014243D01*
X0251380Y0014134D01*
X0251262Y0014029D01*
X0251141Y0013927D01*
X0251018Y0013827D01*
X0250892Y0013731D01*
X0250764Y0013638D01*
X0250634Y0013548D01*
X0250501Y0013462D01*
X0250366Y0013378D01*
X0250230Y0013299D01*
X0250091Y0013222D01*
X0249950Y0013150D01*
X0249808Y0013080D01*
X0249664Y0013015D01*
X0249518Y0012953D01*
X0249371Y0012895D01*
X0249222Y0012840D01*
X0249072Y0012789D01*
X0248921Y0012742D01*
X0248769Y0012699D01*
X0248616Y0012660D01*
X0248461Y0012624D01*
X0248306Y0012593D01*
X0248150Y0012565D01*
X0247994Y0012541D01*
X0247837Y0012521D01*
X0247679Y0012505D01*
X0247522Y0012493D01*
X0247363Y0012485D01*
X0247205Y0012481D01*
X0247047Y0012481D01*
X0246889Y0012485D01*
X0246730Y0012493D01*
X0246573Y0012505D01*
X0246415Y0012521D01*
X0246258Y0012541D01*
X0246102Y0012565D01*
X0245946Y0012593D01*
X0245791Y0012624D01*
X0245636Y0012660D01*
X0245483Y0012699D01*
X0245331Y0012742D01*
X0245180Y0012789D01*
X0245030Y0012840D01*
X0244881Y0012895D01*
X0244734Y0012953D01*
X0244588Y0013015D01*
X0244444Y0013080D01*
X0244302Y0013150D01*
X0244161Y0013222D01*
X0244022Y0013299D01*
X0243886Y0013378D01*
X0243751Y0013462D01*
X0243618Y0013548D01*
X0243488Y0013638D01*
X0243360Y0013731D01*
X0243234Y0013827D01*
X0243111Y0013927D01*
X0242990Y0014029D01*
X0242872Y0014134D01*
X0242757Y0014243D01*
X0242644Y0014354D01*
X0242534Y0014468D01*
X0242427Y0014585D01*
X0242323Y0014704D01*
X0242222Y0014826D01*
X0242125Y0014951D01*
X0242030Y0015078D01*
X0241939Y0015207D01*
X0241850Y0015338D01*
X0241766Y0015472D01*
X0241684Y0015608D01*
X0241606Y0015745D01*
X0241532Y0015885D01*
X0241461Y0016027D01*
X0241393Y0016170D01*
X0241329Y0016315D01*
X0241269Y0016461D01*
X0241213Y0016609D01*
X0241160Y0016758D01*
X0241111Y0016909D01*
X0241066Y0017061D01*
X0241025Y0017214D01*
X0240987Y0017367D01*
X0240954Y0017522D01*
X0240924Y0017678D01*
X0240898Y0017834D01*
X0240877Y0017991D01*
X0240859Y0018148D01*
X0240845Y0018306D01*
X0240835Y0018464D01*
X0240829Y0018622D01*
X0240827Y0018780D01*
X0245157Y0005000D02*
X0245538Y0005005D01*
X0245918Y0005018D01*
X0246298Y0005041D01*
X0246677Y0005074D01*
X0247055Y0005115D01*
X0247432Y0005165D01*
X0247808Y0005225D01*
X0248183Y0005293D01*
X0248555Y0005371D01*
X0248926Y0005458D01*
X0249294Y0005553D01*
X0249660Y0005658D01*
X0250023Y0005771D01*
X0250384Y0005893D01*
X0250741Y0006023D01*
X0251095Y0006163D01*
X0251446Y0006310D01*
X0251793Y0006467D01*
X0252136Y0006631D01*
X0252475Y0006804D01*
X0252810Y0006985D01*
X0253141Y0007174D01*
X0253466Y0007371D01*
X0253787Y0007575D01*
X0254103Y0007788D01*
X0254413Y0008008D01*
X0254719Y0008235D01*
X0255018Y0008470D01*
X0255312Y0008712D01*
X0255600Y0008960D01*
X0255882Y0009216D01*
X0256157Y0009479D01*
X0256426Y0009748D01*
X0256689Y0010023D01*
X0256945Y0010305D01*
X0257193Y0010593D01*
X0257435Y0010887D01*
X0257670Y0011186D01*
X0257897Y0011492D01*
X0258117Y0011802D01*
X0258330Y0012118D01*
X0258534Y0012439D01*
X0258731Y0012764D01*
X0258920Y0013095D01*
X0259101Y0013430D01*
X0259274Y0013769D01*
X0259438Y0014112D01*
X0259595Y0014459D01*
X0259742Y0014810D01*
X0259882Y0015164D01*
X0260012Y0015521D01*
X0260134Y0015882D01*
X0260247Y0016245D01*
X0260352Y0016611D01*
X0260447Y0016979D01*
X0260534Y0017350D01*
X0260612Y0017722D01*
X0260680Y0018097D01*
X0260740Y0018473D01*
X0260790Y0018850D01*
X0260831Y0019228D01*
X0260864Y0019607D01*
X0260887Y0019987D01*
X0260900Y0020367D01*
X0260905Y0020748D01*
X0260906Y0020748D02*
X0260906Y0209724D01*
X0240827Y0211693D02*
X0240829Y0211851D01*
X0240835Y0212009D01*
X0240845Y0212167D01*
X0240859Y0212325D01*
X0240877Y0212482D01*
X0240898Y0212639D01*
X0240924Y0212795D01*
X0240954Y0212951D01*
X0240987Y0213106D01*
X0241025Y0213259D01*
X0241066Y0213412D01*
X0241111Y0213564D01*
X0241160Y0213715D01*
X0241213Y0213864D01*
X0241269Y0214012D01*
X0241329Y0214158D01*
X0241393Y0214303D01*
X0241461Y0214446D01*
X0241532Y0214588D01*
X0241606Y0214728D01*
X0241684Y0214865D01*
X0241766Y0215001D01*
X0241850Y0215135D01*
X0241939Y0215266D01*
X0242030Y0215395D01*
X0242125Y0215522D01*
X0242222Y0215647D01*
X0242323Y0215769D01*
X0242427Y0215888D01*
X0242534Y0216005D01*
X0242644Y0216119D01*
X0242757Y0216230D01*
X0242872Y0216339D01*
X0242990Y0216444D01*
X0243111Y0216546D01*
X0243234Y0216646D01*
X0243360Y0216742D01*
X0243488Y0216835D01*
X0243618Y0216925D01*
X0243751Y0217011D01*
X0243886Y0217095D01*
X0244022Y0217174D01*
X0244161Y0217251D01*
X0244302Y0217323D01*
X0244444Y0217393D01*
X0244588Y0217458D01*
X0244734Y0217520D01*
X0244881Y0217578D01*
X0245030Y0217633D01*
X0245180Y0217684D01*
X0245331Y0217731D01*
X0245483Y0217774D01*
X0245636Y0217813D01*
X0245791Y0217849D01*
X0245946Y0217880D01*
X0246102Y0217908D01*
X0246258Y0217932D01*
X0246415Y0217952D01*
X0246573Y0217968D01*
X0246730Y0217980D01*
X0246889Y0217988D01*
X0247047Y0217992D01*
X0247205Y0217992D01*
X0247363Y0217988D01*
X0247522Y0217980D01*
X0247679Y0217968D01*
X0247837Y0217952D01*
X0247994Y0217932D01*
X0248150Y0217908D01*
X0248306Y0217880D01*
X0248461Y0217849D01*
X0248616Y0217813D01*
X0248769Y0217774D01*
X0248921Y0217731D01*
X0249072Y0217684D01*
X0249222Y0217633D01*
X0249371Y0217578D01*
X0249518Y0217520D01*
X0249664Y0217458D01*
X0249808Y0217393D01*
X0249950Y0217323D01*
X0250091Y0217251D01*
X0250230Y0217174D01*
X0250366Y0217095D01*
X0250501Y0217011D01*
X0250634Y0216925D01*
X0250764Y0216835D01*
X0250892Y0216742D01*
X0251018Y0216646D01*
X0251141Y0216546D01*
X0251262Y0216444D01*
X0251380Y0216339D01*
X0251495Y0216230D01*
X0251608Y0216119D01*
X0251718Y0216005D01*
X0251825Y0215888D01*
X0251929Y0215769D01*
X0252030Y0215647D01*
X0252127Y0215522D01*
X0252222Y0215395D01*
X0252313Y0215266D01*
X0252402Y0215135D01*
X0252486Y0215001D01*
X0252568Y0214865D01*
X0252646Y0214728D01*
X0252720Y0214588D01*
X0252791Y0214446D01*
X0252859Y0214303D01*
X0252923Y0214158D01*
X0252983Y0214012D01*
X0253039Y0213864D01*
X0253092Y0213715D01*
X0253141Y0213564D01*
X0253186Y0213412D01*
X0253227Y0213259D01*
X0253265Y0213106D01*
X0253298Y0212951D01*
X0253328Y0212795D01*
X0253354Y0212639D01*
X0253375Y0212482D01*
X0253393Y0212325D01*
X0253407Y0212167D01*
X0253417Y0212009D01*
X0253423Y0211851D01*
X0253425Y0211693D01*
X0253423Y0211535D01*
X0253417Y0211377D01*
X0253407Y0211219D01*
X0253393Y0211061D01*
X0253375Y0210904D01*
X0253354Y0210747D01*
X0253328Y0210591D01*
X0253298Y0210435D01*
X0253265Y0210280D01*
X0253227Y0210127D01*
X0253186Y0209974D01*
X0253141Y0209822D01*
X0253092Y0209671D01*
X0253039Y0209522D01*
X0252983Y0209374D01*
X0252923Y0209228D01*
X0252859Y0209083D01*
X0252791Y0208940D01*
X0252720Y0208798D01*
X0252646Y0208658D01*
X0252568Y0208521D01*
X0252486Y0208385D01*
X0252402Y0208251D01*
X0252313Y0208120D01*
X0252222Y0207991D01*
X0252127Y0207864D01*
X0252030Y0207739D01*
X0251929Y0207617D01*
X0251825Y0207498D01*
X0251718Y0207381D01*
X0251608Y0207267D01*
X0251495Y0207156D01*
X0251380Y0207047D01*
X0251262Y0206942D01*
X0251141Y0206840D01*
X0251018Y0206740D01*
X0250892Y0206644D01*
X0250764Y0206551D01*
X0250634Y0206461D01*
X0250501Y0206375D01*
X0250366Y0206291D01*
X0250230Y0206212D01*
X0250091Y0206135D01*
X0249950Y0206063D01*
X0249808Y0205993D01*
X0249664Y0205928D01*
X0249518Y0205866D01*
X0249371Y0205808D01*
X0249222Y0205753D01*
X0249072Y0205702D01*
X0248921Y0205655D01*
X0248769Y0205612D01*
X0248616Y0205573D01*
X0248461Y0205537D01*
X0248306Y0205506D01*
X0248150Y0205478D01*
X0247994Y0205454D01*
X0247837Y0205434D01*
X0247679Y0205418D01*
X0247522Y0205406D01*
X0247363Y0205398D01*
X0247205Y0205394D01*
X0247047Y0205394D01*
X0246889Y0205398D01*
X0246730Y0205406D01*
X0246573Y0205418D01*
X0246415Y0205434D01*
X0246258Y0205454D01*
X0246102Y0205478D01*
X0245946Y0205506D01*
X0245791Y0205537D01*
X0245636Y0205573D01*
X0245483Y0205612D01*
X0245331Y0205655D01*
X0245180Y0205702D01*
X0245030Y0205753D01*
X0244881Y0205808D01*
X0244734Y0205866D01*
X0244588Y0205928D01*
X0244444Y0205993D01*
X0244302Y0206063D01*
X0244161Y0206135D01*
X0244022Y0206212D01*
X0243886Y0206291D01*
X0243751Y0206375D01*
X0243618Y0206461D01*
X0243488Y0206551D01*
X0243360Y0206644D01*
X0243234Y0206740D01*
X0243111Y0206840D01*
X0242990Y0206942D01*
X0242872Y0207047D01*
X0242757Y0207156D01*
X0242644Y0207267D01*
X0242534Y0207381D01*
X0242427Y0207498D01*
X0242323Y0207617D01*
X0242222Y0207739D01*
X0242125Y0207864D01*
X0242030Y0207991D01*
X0241939Y0208120D01*
X0241850Y0208251D01*
X0241766Y0208385D01*
X0241684Y0208521D01*
X0241606Y0208658D01*
X0241532Y0208798D01*
X0241461Y0208940D01*
X0241393Y0209083D01*
X0241329Y0209228D01*
X0241269Y0209374D01*
X0241213Y0209522D01*
X0241160Y0209671D01*
X0241111Y0209822D01*
X0241066Y0209974D01*
X0241025Y0210127D01*
X0240987Y0210280D01*
X0240954Y0210435D01*
X0240924Y0210591D01*
X0240898Y0210747D01*
X0240877Y0210904D01*
X0240859Y0211061D01*
X0240845Y0211219D01*
X0240835Y0211377D01*
X0240829Y0211535D01*
X0240827Y0211693D01*
X0245157Y0225472D02*
X0245538Y0225467D01*
X0245918Y0225454D01*
X0246298Y0225431D01*
X0246677Y0225398D01*
X0247055Y0225357D01*
X0247432Y0225307D01*
X0247808Y0225247D01*
X0248183Y0225179D01*
X0248555Y0225101D01*
X0248926Y0225014D01*
X0249294Y0224919D01*
X0249660Y0224814D01*
X0250023Y0224701D01*
X0250384Y0224579D01*
X0250741Y0224449D01*
X0251095Y0224309D01*
X0251446Y0224162D01*
X0251793Y0224005D01*
X0252136Y0223841D01*
X0252475Y0223668D01*
X0252810Y0223487D01*
X0253141Y0223298D01*
X0253466Y0223101D01*
X0253787Y0222897D01*
X0254103Y0222684D01*
X0254413Y0222464D01*
X0254719Y0222237D01*
X0255018Y0222002D01*
X0255312Y0221760D01*
X0255600Y0221512D01*
X0255882Y0221256D01*
X0256157Y0220993D01*
X0256426Y0220724D01*
X0256689Y0220449D01*
X0256945Y0220167D01*
X0257193Y0219879D01*
X0257435Y0219585D01*
X0257670Y0219286D01*
X0257897Y0218980D01*
X0258117Y0218670D01*
X0258330Y0218354D01*
X0258534Y0218033D01*
X0258731Y0217708D01*
X0258920Y0217377D01*
X0259101Y0217042D01*
X0259274Y0216703D01*
X0259438Y0216360D01*
X0259595Y0216013D01*
X0259742Y0215662D01*
X0259882Y0215308D01*
X0260012Y0214951D01*
X0260134Y0214590D01*
X0260247Y0214227D01*
X0260352Y0213861D01*
X0260447Y0213493D01*
X0260534Y0213122D01*
X0260612Y0212750D01*
X0260680Y0212375D01*
X0260740Y0211999D01*
X0260790Y0211622D01*
X0260831Y0211244D01*
X0260864Y0210865D01*
X0260887Y0210485D01*
X0260900Y0210105D01*
X0260905Y0209724D01*
X0245157Y0225472D02*
X0020748Y0225472D01*
X0012481Y0211693D02*
X0012483Y0211851D01*
X0012489Y0212009D01*
X0012499Y0212167D01*
X0012513Y0212325D01*
X0012531Y0212482D01*
X0012552Y0212639D01*
X0012578Y0212795D01*
X0012608Y0212951D01*
X0012641Y0213106D01*
X0012679Y0213259D01*
X0012720Y0213412D01*
X0012765Y0213564D01*
X0012814Y0213715D01*
X0012867Y0213864D01*
X0012923Y0214012D01*
X0012983Y0214158D01*
X0013047Y0214303D01*
X0013115Y0214446D01*
X0013186Y0214588D01*
X0013260Y0214728D01*
X0013338Y0214865D01*
X0013420Y0215001D01*
X0013504Y0215135D01*
X0013593Y0215266D01*
X0013684Y0215395D01*
X0013779Y0215522D01*
X0013876Y0215647D01*
X0013977Y0215769D01*
X0014081Y0215888D01*
X0014188Y0216005D01*
X0014298Y0216119D01*
X0014411Y0216230D01*
X0014526Y0216339D01*
X0014644Y0216444D01*
X0014765Y0216546D01*
X0014888Y0216646D01*
X0015014Y0216742D01*
X0015142Y0216835D01*
X0015272Y0216925D01*
X0015405Y0217011D01*
X0015540Y0217095D01*
X0015676Y0217174D01*
X0015815Y0217251D01*
X0015956Y0217323D01*
X0016098Y0217393D01*
X0016242Y0217458D01*
X0016388Y0217520D01*
X0016535Y0217578D01*
X0016684Y0217633D01*
X0016834Y0217684D01*
X0016985Y0217731D01*
X0017137Y0217774D01*
X0017290Y0217813D01*
X0017445Y0217849D01*
X0017600Y0217880D01*
X0017756Y0217908D01*
X0017912Y0217932D01*
X0018069Y0217952D01*
X0018227Y0217968D01*
X0018384Y0217980D01*
X0018543Y0217988D01*
X0018701Y0217992D01*
X0018859Y0217992D01*
X0019017Y0217988D01*
X0019176Y0217980D01*
X0019333Y0217968D01*
X0019491Y0217952D01*
X0019648Y0217932D01*
X0019804Y0217908D01*
X0019960Y0217880D01*
X0020115Y0217849D01*
X0020270Y0217813D01*
X0020423Y0217774D01*
X0020575Y0217731D01*
X0020726Y0217684D01*
X0020876Y0217633D01*
X0021025Y0217578D01*
X0021172Y0217520D01*
X0021318Y0217458D01*
X0021462Y0217393D01*
X0021604Y0217323D01*
X0021745Y0217251D01*
X0021884Y0217174D01*
X0022020Y0217095D01*
X0022155Y0217011D01*
X0022288Y0216925D01*
X0022418Y0216835D01*
X0022546Y0216742D01*
X0022672Y0216646D01*
X0022795Y0216546D01*
X0022916Y0216444D01*
X0023034Y0216339D01*
X0023149Y0216230D01*
X0023262Y0216119D01*
X0023372Y0216005D01*
X0023479Y0215888D01*
X0023583Y0215769D01*
X0023684Y0215647D01*
X0023781Y0215522D01*
X0023876Y0215395D01*
X0023967Y0215266D01*
X0024056Y0215135D01*
X0024140Y0215001D01*
X0024222Y0214865D01*
X0024300Y0214728D01*
X0024374Y0214588D01*
X0024445Y0214446D01*
X0024513Y0214303D01*
X0024577Y0214158D01*
X0024637Y0214012D01*
X0024693Y0213864D01*
X0024746Y0213715D01*
X0024795Y0213564D01*
X0024840Y0213412D01*
X0024881Y0213259D01*
X0024919Y0213106D01*
X0024952Y0212951D01*
X0024982Y0212795D01*
X0025008Y0212639D01*
X0025029Y0212482D01*
X0025047Y0212325D01*
X0025061Y0212167D01*
X0025071Y0212009D01*
X0025077Y0211851D01*
X0025079Y0211693D01*
X0025077Y0211535D01*
X0025071Y0211377D01*
X0025061Y0211219D01*
X0025047Y0211061D01*
X0025029Y0210904D01*
X0025008Y0210747D01*
X0024982Y0210591D01*
X0024952Y0210435D01*
X0024919Y0210280D01*
X0024881Y0210127D01*
X0024840Y0209974D01*
X0024795Y0209822D01*
X0024746Y0209671D01*
X0024693Y0209522D01*
X0024637Y0209374D01*
X0024577Y0209228D01*
X0024513Y0209083D01*
X0024445Y0208940D01*
X0024374Y0208798D01*
X0024300Y0208658D01*
X0024222Y0208521D01*
X0024140Y0208385D01*
X0024056Y0208251D01*
X0023967Y0208120D01*
X0023876Y0207991D01*
X0023781Y0207864D01*
X0023684Y0207739D01*
X0023583Y0207617D01*
X0023479Y0207498D01*
X0023372Y0207381D01*
X0023262Y0207267D01*
X0023149Y0207156D01*
X0023034Y0207047D01*
X0022916Y0206942D01*
X0022795Y0206840D01*
X0022672Y0206740D01*
X0022546Y0206644D01*
X0022418Y0206551D01*
X0022288Y0206461D01*
X0022155Y0206375D01*
X0022020Y0206291D01*
X0021884Y0206212D01*
X0021745Y0206135D01*
X0021604Y0206063D01*
X0021462Y0205993D01*
X0021318Y0205928D01*
X0021172Y0205866D01*
X0021025Y0205808D01*
X0020876Y0205753D01*
X0020726Y0205702D01*
X0020575Y0205655D01*
X0020423Y0205612D01*
X0020270Y0205573D01*
X0020115Y0205537D01*
X0019960Y0205506D01*
X0019804Y0205478D01*
X0019648Y0205454D01*
X0019491Y0205434D01*
X0019333Y0205418D01*
X0019176Y0205406D01*
X0019017Y0205398D01*
X0018859Y0205394D01*
X0018701Y0205394D01*
X0018543Y0205398D01*
X0018384Y0205406D01*
X0018227Y0205418D01*
X0018069Y0205434D01*
X0017912Y0205454D01*
X0017756Y0205478D01*
X0017600Y0205506D01*
X0017445Y0205537D01*
X0017290Y0205573D01*
X0017137Y0205612D01*
X0016985Y0205655D01*
X0016834Y0205702D01*
X0016684Y0205753D01*
X0016535Y0205808D01*
X0016388Y0205866D01*
X0016242Y0205928D01*
X0016098Y0205993D01*
X0015956Y0206063D01*
X0015815Y0206135D01*
X0015676Y0206212D01*
X0015540Y0206291D01*
X0015405Y0206375D01*
X0015272Y0206461D01*
X0015142Y0206551D01*
X0015014Y0206644D01*
X0014888Y0206740D01*
X0014765Y0206840D01*
X0014644Y0206942D01*
X0014526Y0207047D01*
X0014411Y0207156D01*
X0014298Y0207267D01*
X0014188Y0207381D01*
X0014081Y0207498D01*
X0013977Y0207617D01*
X0013876Y0207739D01*
X0013779Y0207864D01*
X0013684Y0207991D01*
X0013593Y0208120D01*
X0013504Y0208251D01*
X0013420Y0208385D01*
X0013338Y0208521D01*
X0013260Y0208658D01*
X0013186Y0208798D01*
X0013115Y0208940D01*
X0013047Y0209083D01*
X0012983Y0209228D01*
X0012923Y0209374D01*
X0012867Y0209522D01*
X0012814Y0209671D01*
X0012765Y0209822D01*
X0012720Y0209974D01*
X0012679Y0210127D01*
X0012641Y0210280D01*
X0012608Y0210435D01*
X0012578Y0210591D01*
X0012552Y0210747D01*
X0012531Y0210904D01*
X0012513Y0211061D01*
X0012499Y0211219D01*
X0012489Y0211377D01*
X0012483Y0211535D01*
X0012481Y0211693D01*
X0005000Y0209724D02*
X0005000Y0020748D01*
X0012481Y0018780D02*
X0012483Y0018938D01*
X0012489Y0019096D01*
X0012499Y0019254D01*
X0012513Y0019412D01*
X0012531Y0019569D01*
X0012552Y0019726D01*
X0012578Y0019882D01*
X0012608Y0020038D01*
X0012641Y0020193D01*
X0012679Y0020346D01*
X0012720Y0020499D01*
X0012765Y0020651D01*
X0012814Y0020802D01*
X0012867Y0020951D01*
X0012923Y0021099D01*
X0012983Y0021245D01*
X0013047Y0021390D01*
X0013115Y0021533D01*
X0013186Y0021675D01*
X0013260Y0021815D01*
X0013338Y0021952D01*
X0013420Y0022088D01*
X0013504Y0022222D01*
X0013593Y0022353D01*
X0013684Y0022482D01*
X0013779Y0022609D01*
X0013876Y0022734D01*
X0013977Y0022856D01*
X0014081Y0022975D01*
X0014188Y0023092D01*
X0014298Y0023206D01*
X0014411Y0023317D01*
X0014526Y0023426D01*
X0014644Y0023531D01*
X0014765Y0023633D01*
X0014888Y0023733D01*
X0015014Y0023829D01*
X0015142Y0023922D01*
X0015272Y0024012D01*
X0015405Y0024098D01*
X0015540Y0024182D01*
X0015676Y0024261D01*
X0015815Y0024338D01*
X0015956Y0024410D01*
X0016098Y0024480D01*
X0016242Y0024545D01*
X0016388Y0024607D01*
X0016535Y0024665D01*
X0016684Y0024720D01*
X0016834Y0024771D01*
X0016985Y0024818D01*
X0017137Y0024861D01*
X0017290Y0024900D01*
X0017445Y0024936D01*
X0017600Y0024967D01*
X0017756Y0024995D01*
X0017912Y0025019D01*
X0018069Y0025039D01*
X0018227Y0025055D01*
X0018384Y0025067D01*
X0018543Y0025075D01*
X0018701Y0025079D01*
X0018859Y0025079D01*
X0019017Y0025075D01*
X0019176Y0025067D01*
X0019333Y0025055D01*
X0019491Y0025039D01*
X0019648Y0025019D01*
X0019804Y0024995D01*
X0019960Y0024967D01*
X0020115Y0024936D01*
X0020270Y0024900D01*
X0020423Y0024861D01*
X0020575Y0024818D01*
X0020726Y0024771D01*
X0020876Y0024720D01*
X0021025Y0024665D01*
X0021172Y0024607D01*
X0021318Y0024545D01*
X0021462Y0024480D01*
X0021604Y0024410D01*
X0021745Y0024338D01*
X0021884Y0024261D01*
X0022020Y0024182D01*
X0022155Y0024098D01*
X0022288Y0024012D01*
X0022418Y0023922D01*
X0022546Y0023829D01*
X0022672Y0023733D01*
X0022795Y0023633D01*
X0022916Y0023531D01*
X0023034Y0023426D01*
X0023149Y0023317D01*
X0023262Y0023206D01*
X0023372Y0023092D01*
X0023479Y0022975D01*
X0023583Y0022856D01*
X0023684Y0022734D01*
X0023781Y0022609D01*
X0023876Y0022482D01*
X0023967Y0022353D01*
X0024056Y0022222D01*
X0024140Y0022088D01*
X0024222Y0021952D01*
X0024300Y0021815D01*
X0024374Y0021675D01*
X0024445Y0021533D01*
X0024513Y0021390D01*
X0024577Y0021245D01*
X0024637Y0021099D01*
X0024693Y0020951D01*
X0024746Y0020802D01*
X0024795Y0020651D01*
X0024840Y0020499D01*
X0024881Y0020346D01*
X0024919Y0020193D01*
X0024952Y0020038D01*
X0024982Y0019882D01*
X0025008Y0019726D01*
X0025029Y0019569D01*
X0025047Y0019412D01*
X0025061Y0019254D01*
X0025071Y0019096D01*
X0025077Y0018938D01*
X0025079Y0018780D01*
X0025077Y0018622D01*
X0025071Y0018464D01*
X0025061Y0018306D01*
X0025047Y0018148D01*
X0025029Y0017991D01*
X0025008Y0017834D01*
X0024982Y0017678D01*
X0024952Y0017522D01*
X0024919Y0017367D01*
X0024881Y0017214D01*
X0024840Y0017061D01*
X0024795Y0016909D01*
X0024746Y0016758D01*
X0024693Y0016609D01*
X0024637Y0016461D01*
X0024577Y0016315D01*
X0024513Y0016170D01*
X0024445Y0016027D01*
X0024374Y0015885D01*
X0024300Y0015745D01*
X0024222Y0015608D01*
X0024140Y0015472D01*
X0024056Y0015338D01*
X0023967Y0015207D01*
X0023876Y0015078D01*
X0023781Y0014951D01*
X0023684Y0014826D01*
X0023583Y0014704D01*
X0023479Y0014585D01*
X0023372Y0014468D01*
X0023262Y0014354D01*
X0023149Y0014243D01*
X0023034Y0014134D01*
X0022916Y0014029D01*
X0022795Y0013927D01*
X0022672Y0013827D01*
X0022546Y0013731D01*
X0022418Y0013638D01*
X0022288Y0013548D01*
X0022155Y0013462D01*
X0022020Y0013378D01*
X0021884Y0013299D01*
X0021745Y0013222D01*
X0021604Y0013150D01*
X0021462Y0013080D01*
X0021318Y0013015D01*
X0021172Y0012953D01*
X0021025Y0012895D01*
X0020876Y0012840D01*
X0020726Y0012789D01*
X0020575Y0012742D01*
X0020423Y0012699D01*
X0020270Y0012660D01*
X0020115Y0012624D01*
X0019960Y0012593D01*
X0019804Y0012565D01*
X0019648Y0012541D01*
X0019491Y0012521D01*
X0019333Y0012505D01*
X0019176Y0012493D01*
X0019017Y0012485D01*
X0018859Y0012481D01*
X0018701Y0012481D01*
X0018543Y0012485D01*
X0018384Y0012493D01*
X0018227Y0012505D01*
X0018069Y0012521D01*
X0017912Y0012541D01*
X0017756Y0012565D01*
X0017600Y0012593D01*
X0017445Y0012624D01*
X0017290Y0012660D01*
X0017137Y0012699D01*
X0016985Y0012742D01*
X0016834Y0012789D01*
X0016684Y0012840D01*
X0016535Y0012895D01*
X0016388Y0012953D01*
X0016242Y0013015D01*
X0016098Y0013080D01*
X0015956Y0013150D01*
X0015815Y0013222D01*
X0015676Y0013299D01*
X0015540Y0013378D01*
X0015405Y0013462D01*
X0015272Y0013548D01*
X0015142Y0013638D01*
X0015014Y0013731D01*
X0014888Y0013827D01*
X0014765Y0013927D01*
X0014644Y0014029D01*
X0014526Y0014134D01*
X0014411Y0014243D01*
X0014298Y0014354D01*
X0014188Y0014468D01*
X0014081Y0014585D01*
X0013977Y0014704D01*
X0013876Y0014826D01*
X0013779Y0014951D01*
X0013684Y0015078D01*
X0013593Y0015207D01*
X0013504Y0015338D01*
X0013420Y0015472D01*
X0013338Y0015608D01*
X0013260Y0015745D01*
X0013186Y0015885D01*
X0013115Y0016027D01*
X0013047Y0016170D01*
X0012983Y0016315D01*
X0012923Y0016461D01*
X0012867Y0016609D01*
X0012814Y0016758D01*
X0012765Y0016909D01*
X0012720Y0017061D01*
X0012679Y0017214D01*
X0012641Y0017367D01*
X0012608Y0017522D01*
X0012578Y0017678D01*
X0012552Y0017834D01*
X0012531Y0017991D01*
X0012513Y0018148D01*
X0012499Y0018306D01*
X0012489Y0018464D01*
X0012483Y0018622D01*
X0012481Y0018780D01*
X0005000Y0020748D02*
X0005005Y0020367D01*
X0005018Y0019987D01*
X0005041Y0019607D01*
X0005074Y0019228D01*
X0005115Y0018850D01*
X0005165Y0018473D01*
X0005225Y0018097D01*
X0005293Y0017722D01*
X0005371Y0017350D01*
X0005458Y0016979D01*
X0005553Y0016611D01*
X0005658Y0016245D01*
X0005771Y0015882D01*
X0005893Y0015521D01*
X0006023Y0015164D01*
X0006163Y0014810D01*
X0006310Y0014459D01*
X0006467Y0014112D01*
X0006631Y0013769D01*
X0006804Y0013430D01*
X0006985Y0013095D01*
X0007174Y0012764D01*
X0007371Y0012439D01*
X0007575Y0012118D01*
X0007788Y0011802D01*
X0008008Y0011492D01*
X0008235Y0011186D01*
X0008470Y0010887D01*
X0008712Y0010593D01*
X0008960Y0010305D01*
X0009216Y0010023D01*
X0009479Y0009748D01*
X0009748Y0009479D01*
X0010023Y0009216D01*
X0010305Y0008960D01*
X0010593Y0008712D01*
X0010887Y0008470D01*
X0011186Y0008235D01*
X0011492Y0008008D01*
X0011802Y0007788D01*
X0012118Y0007575D01*
X0012439Y0007371D01*
X0012764Y0007174D01*
X0013095Y0006985D01*
X0013430Y0006804D01*
X0013769Y0006631D01*
X0014112Y0006467D01*
X0014459Y0006310D01*
X0014810Y0006163D01*
X0015164Y0006023D01*
X0015521Y0005893D01*
X0015882Y0005771D01*
X0016245Y0005658D01*
X0016611Y0005553D01*
X0016979Y0005458D01*
X0017350Y0005371D01*
X0017722Y0005293D01*
X0018097Y0005225D01*
X0018473Y0005165D01*
X0018850Y0005115D01*
X0019228Y0005074D01*
X0019607Y0005041D01*
X0019987Y0005018D01*
X0020367Y0005005D01*
X0020748Y0005000D01*
X0005000Y0209724D02*
X0005005Y0210105D01*
X0005018Y0210485D01*
X0005041Y0210865D01*
X0005074Y0211244D01*
X0005115Y0211622D01*
X0005165Y0211999D01*
X0005225Y0212375D01*
X0005293Y0212750D01*
X0005371Y0213122D01*
X0005458Y0213493D01*
X0005553Y0213861D01*
X0005658Y0214227D01*
X0005771Y0214590D01*
X0005893Y0214951D01*
X0006023Y0215308D01*
X0006163Y0215662D01*
X0006310Y0216013D01*
X0006467Y0216360D01*
X0006631Y0216703D01*
X0006804Y0217042D01*
X0006985Y0217377D01*
X0007174Y0217708D01*
X0007371Y0218033D01*
X0007575Y0218354D01*
X0007788Y0218670D01*
X0008008Y0218980D01*
X0008235Y0219286D01*
X0008470Y0219585D01*
X0008712Y0219879D01*
X0008960Y0220167D01*
X0009216Y0220449D01*
X0009479Y0220724D01*
X0009748Y0220993D01*
X0010023Y0221256D01*
X0010305Y0221512D01*
X0010593Y0221760D01*
X0010887Y0222002D01*
X0011186Y0222237D01*
X0011492Y0222464D01*
X0011802Y0222684D01*
X0012118Y0222897D01*
X0012439Y0223101D01*
X0012764Y0223298D01*
X0013095Y0223487D01*
X0013430Y0223668D01*
X0013769Y0223841D01*
X0014112Y0224005D01*
X0014459Y0224162D01*
X0014810Y0224309D01*
X0015164Y0224449D01*
X0015521Y0224579D01*
X0015882Y0224701D01*
X0016245Y0224814D01*
X0016611Y0224919D01*
X0016979Y0225014D01*
X0017350Y0225101D01*
X0017722Y0225179D01*
X0018097Y0225247D01*
X0018473Y0225307D01*
X0018850Y0225357D01*
X0019228Y0225398D01*
X0019607Y0225431D01*
X0019987Y0225454D01*
X0020367Y0225467D01*
X0020748Y0225472D01*
D11*
X0051944Y0182799D02*
X0051944Y0178528D01*
X0045539Y0178528D01*
X0045539Y0163114D02*
X0051944Y0163114D01*
X0048741Y0163114D02*
X0048741Y0158843D01*
X0045539Y0158843D02*
X0051944Y0158843D01*
X0051944Y0135555D02*
X0051944Y0131284D01*
X0045539Y0131284D01*
X0045539Y0111933D02*
X0051944Y0111933D01*
X0048741Y0111933D02*
X0048741Y0107662D01*
X0045539Y0107662D02*
X0051944Y0107662D01*
X0168394Y0107662D02*
X0172034Y0107662D01*
X0173247Y0108876D01*
X0173247Y0113729D01*
X0172034Y0114942D01*
X0168394Y0114942D01*
X0168394Y0107662D01*
X0175644Y0108876D02*
X0176857Y0110089D01*
X0180498Y0110089D01*
X0180498Y0111302D02*
X0180498Y0107662D01*
X0176857Y0107662D01*
X0175644Y0108876D01*
X0176857Y0112516D02*
X0179284Y0112516D01*
X0180498Y0111302D01*
X0182894Y0112516D02*
X0184108Y0112516D01*
X0184108Y0107662D01*
X0185321Y0107662D02*
X0182894Y0107662D01*
X0187728Y0107662D02*
X0190155Y0107662D01*
X0188941Y0107662D02*
X0188941Y0114942D01*
X0187728Y0114942D01*
X0184108Y0114942D02*
X0184108Y0116156D01*
X0192561Y0112516D02*
X0192561Y0108876D01*
X0193775Y0107662D01*
X0197415Y0107662D01*
X0197415Y0106449D02*
X0196202Y0105235D01*
X0194988Y0105235D01*
X0197415Y0106449D02*
X0197415Y0112516D01*
X0199812Y0114942D02*
X0203452Y0114942D01*
X0204665Y0113729D01*
X0204665Y0108876D01*
X0203452Y0107662D01*
X0199812Y0107662D01*
X0199812Y0114942D01*
X0207062Y0112516D02*
X0207062Y0108876D01*
X0208275Y0107662D01*
X0211916Y0107662D01*
X0211916Y0112516D01*
X0214312Y0112516D02*
X0215526Y0112516D01*
X0215526Y0107662D01*
X0216739Y0107662D02*
X0214312Y0107662D01*
X0219146Y0107662D02*
X0219146Y0112516D01*
X0222786Y0112516D01*
X0223999Y0111302D01*
X0223999Y0107662D01*
X0226396Y0108876D02*
X0226396Y0111302D01*
X0227609Y0112516D01*
X0230036Y0112516D01*
X0231250Y0111302D01*
X0231250Y0108876D01*
X0230036Y0107662D01*
X0227609Y0107662D01*
X0226396Y0108876D01*
X0227020Y0099194D02*
X0227020Y0095554D01*
X0229447Y0096768D01*
X0230660Y0096768D01*
X0231873Y0095554D01*
X0231873Y0093128D01*
X0230660Y0091914D01*
X0228233Y0091914D01*
X0227020Y0093128D01*
X0227020Y0099194D02*
X0231873Y0099194D01*
X0234270Y0096768D02*
X0236697Y0091914D01*
X0239124Y0096768D01*
X0217373Y0097981D02*
X0216159Y0099194D01*
X0213733Y0099194D01*
X0212519Y0097981D01*
X0212519Y0096768D01*
X0213733Y0095554D01*
X0216159Y0095554D01*
X0217373Y0094341D01*
X0217373Y0093128D01*
X0216159Y0091914D01*
X0213733Y0091914D01*
X0212519Y0093128D01*
X0210122Y0093128D02*
X0210122Y0099194D01*
X0205269Y0099194D02*
X0205269Y0093128D01*
X0206482Y0091914D01*
X0208909Y0091914D01*
X0210122Y0093128D01*
X0202872Y0093128D02*
X0201659Y0091914D01*
X0198019Y0091914D01*
X0198019Y0099194D01*
X0201659Y0099194D01*
X0202872Y0097981D01*
X0202872Y0096768D01*
X0201659Y0095554D01*
X0198019Y0095554D01*
X0201659Y0095554D02*
X0202872Y0094341D01*
X0202872Y0093128D01*
X0188372Y0091914D02*
X0188372Y0099194D01*
X0183518Y0099194D02*
X0188372Y0091914D01*
X0183518Y0091914D02*
X0183518Y0099194D01*
X0181121Y0096768D02*
X0181121Y0091914D01*
X0176268Y0091914D02*
X0176268Y0096768D01*
X0178695Y0099194D01*
X0181121Y0096768D01*
X0181121Y0095554D02*
X0176268Y0095554D01*
X0173871Y0097981D02*
X0172658Y0099194D01*
X0170231Y0099194D01*
X0169018Y0097981D01*
X0169018Y0093128D01*
X0170231Y0091914D01*
X0172658Y0091914D01*
X0173871Y0093128D01*
X0215526Y0114942D02*
X0215526Y0116156D01*
D12*
X0245157Y0005000D02*
X0020748Y0005000D01*
X0020367Y0005005D01*
X0019987Y0005018D01*
X0019607Y0005041D01*
X0019228Y0005074D01*
X0018850Y0005115D01*
X0018473Y0005165D01*
X0018097Y0005225D01*
X0017722Y0005293D01*
X0017350Y0005371D01*
X0016979Y0005458D01*
X0016611Y0005553D01*
X0016245Y0005658D01*
X0015882Y0005771D01*
X0015521Y0005893D01*
X0015164Y0006023D01*
X0014810Y0006163D01*
X0014459Y0006310D01*
X0014112Y0006467D01*
X0013769Y0006631D01*
X0013430Y0006804D01*
X0013095Y0006985D01*
X0012764Y0007174D01*
X0012439Y0007371D01*
X0012118Y0007575D01*
X0011802Y0007788D01*
X0011492Y0008008D01*
X0011186Y0008235D01*
X0010887Y0008470D01*
X0010593Y0008712D01*
X0010305Y0008960D01*
X0010023Y0009216D01*
X0009748Y0009479D01*
X0009479Y0009748D01*
X0009216Y0010023D01*
X0008960Y0010305D01*
X0008712Y0010593D01*
X0008470Y0010887D01*
X0008235Y0011186D01*
X0008008Y0011492D01*
X0007788Y0011802D01*
X0007575Y0012118D01*
X0007371Y0012439D01*
X0007174Y0012764D01*
X0006985Y0013095D01*
X0006804Y0013430D01*
X0006631Y0013769D01*
X0006467Y0014112D01*
X0006310Y0014459D01*
X0006163Y0014810D01*
X0006023Y0015164D01*
X0005893Y0015521D01*
X0005771Y0015882D01*
X0005658Y0016245D01*
X0005553Y0016611D01*
X0005458Y0016979D01*
X0005371Y0017350D01*
X0005293Y0017722D01*
X0005225Y0018097D01*
X0005165Y0018473D01*
X0005115Y0018850D01*
X0005074Y0019228D01*
X0005041Y0019607D01*
X0005018Y0019987D01*
X0005005Y0020367D01*
X0005000Y0020748D01*
X0005000Y0209724D01*
X0005005Y0210105D01*
X0005018Y0210485D01*
X0005041Y0210865D01*
X0005074Y0211244D01*
X0005115Y0211622D01*
X0005165Y0211999D01*
X0005225Y0212375D01*
X0005293Y0212750D01*
X0005371Y0213122D01*
X0005458Y0213493D01*
X0005553Y0213861D01*
X0005658Y0214227D01*
X0005771Y0214590D01*
X0005893Y0214951D01*
X0006023Y0215308D01*
X0006163Y0215662D01*
X0006310Y0216013D01*
X0006467Y0216360D01*
X0006631Y0216703D01*
X0006804Y0217042D01*
X0006985Y0217377D01*
X0007174Y0217708D01*
X0007371Y0218033D01*
X0007575Y0218354D01*
X0007788Y0218670D01*
X0008008Y0218980D01*
X0008235Y0219286D01*
X0008470Y0219585D01*
X0008712Y0219879D01*
X0008960Y0220167D01*
X0009216Y0220449D01*
X0009479Y0220724D01*
X0009748Y0220993D01*
X0010023Y0221256D01*
X0010305Y0221512D01*
X0010593Y0221760D01*
X0010887Y0222002D01*
X0011186Y0222237D01*
X0011492Y0222464D01*
X0011802Y0222684D01*
X0012118Y0222897D01*
X0012439Y0223101D01*
X0012764Y0223298D01*
X0013095Y0223487D01*
X0013430Y0223668D01*
X0013769Y0223841D01*
X0014112Y0224005D01*
X0014459Y0224162D01*
X0014810Y0224309D01*
X0015164Y0224449D01*
X0015521Y0224579D01*
X0015882Y0224701D01*
X0016245Y0224814D01*
X0016611Y0224919D01*
X0016979Y0225014D01*
X0017350Y0225101D01*
X0017722Y0225179D01*
X0018097Y0225247D01*
X0018473Y0225307D01*
X0018850Y0225357D01*
X0019228Y0225398D01*
X0019607Y0225431D01*
X0019987Y0225454D01*
X0020367Y0225467D01*
X0020748Y0225472D01*
X0245157Y0225472D01*
X0234287Y0221543D02*
X0234287Y0201857D01*
X0035469Y0201857D01*
X0031531Y0205794D01*
X0031531Y0221543D01*
X0234287Y0221543D01*
X0245157Y0225472D02*
X0245538Y0225467D01*
X0245918Y0225454D01*
X0246298Y0225431D01*
X0246677Y0225398D01*
X0247055Y0225357D01*
X0247432Y0225307D01*
X0247808Y0225247D01*
X0248183Y0225179D01*
X0248555Y0225101D01*
X0248926Y0225014D01*
X0249294Y0224919D01*
X0249660Y0224814D01*
X0250023Y0224701D01*
X0250384Y0224579D01*
X0250741Y0224449D01*
X0251095Y0224309D01*
X0251446Y0224162D01*
X0251793Y0224005D01*
X0252136Y0223841D01*
X0252475Y0223668D01*
X0252810Y0223487D01*
X0253141Y0223298D01*
X0253466Y0223101D01*
X0253787Y0222897D01*
X0254103Y0222684D01*
X0254413Y0222464D01*
X0254719Y0222237D01*
X0255018Y0222002D01*
X0255312Y0221760D01*
X0255600Y0221512D01*
X0255882Y0221256D01*
X0256157Y0220993D01*
X0256426Y0220724D01*
X0256689Y0220449D01*
X0256945Y0220167D01*
X0257193Y0219879D01*
X0257435Y0219585D01*
X0257670Y0219286D01*
X0257897Y0218980D01*
X0258117Y0218670D01*
X0258330Y0218354D01*
X0258534Y0218033D01*
X0258731Y0217708D01*
X0258920Y0217377D01*
X0259101Y0217042D01*
X0259274Y0216703D01*
X0259438Y0216360D01*
X0259595Y0216013D01*
X0259742Y0215662D01*
X0259882Y0215308D01*
X0260012Y0214951D01*
X0260134Y0214590D01*
X0260247Y0214227D01*
X0260352Y0213861D01*
X0260447Y0213493D01*
X0260534Y0213122D01*
X0260612Y0212750D01*
X0260680Y0212375D01*
X0260740Y0211999D01*
X0260790Y0211622D01*
X0260831Y0211244D01*
X0260864Y0210865D01*
X0260887Y0210485D01*
X0260900Y0210105D01*
X0260905Y0209724D01*
X0260906Y0209724D02*
X0260906Y0020748D01*
X0260905Y0020748D02*
X0260900Y0020367D01*
X0260887Y0019987D01*
X0260864Y0019607D01*
X0260831Y0019228D01*
X0260790Y0018850D01*
X0260740Y0018473D01*
X0260680Y0018097D01*
X0260612Y0017722D01*
X0260534Y0017350D01*
X0260447Y0016979D01*
X0260352Y0016611D01*
X0260247Y0016245D01*
X0260134Y0015882D01*
X0260012Y0015521D01*
X0259882Y0015164D01*
X0259742Y0014810D01*
X0259595Y0014459D01*
X0259438Y0014112D01*
X0259274Y0013769D01*
X0259101Y0013430D01*
X0258920Y0013095D01*
X0258731Y0012764D01*
X0258534Y0012439D01*
X0258330Y0012118D01*
X0258117Y0011802D01*
X0257897Y0011492D01*
X0257670Y0011186D01*
X0257435Y0010887D01*
X0257193Y0010593D01*
X0256945Y0010305D01*
X0256689Y0010023D01*
X0256426Y0009748D01*
X0256157Y0009479D01*
X0255882Y0009216D01*
X0255600Y0008960D01*
X0255312Y0008712D01*
X0255018Y0008470D01*
X0254719Y0008235D01*
X0254413Y0008008D01*
X0254103Y0007788D01*
X0253787Y0007575D01*
X0253466Y0007371D01*
X0253141Y0007174D01*
X0252810Y0006985D01*
X0252475Y0006804D01*
X0252136Y0006631D01*
X0251793Y0006467D01*
X0251446Y0006310D01*
X0251095Y0006163D01*
X0250741Y0006023D01*
X0250384Y0005893D01*
X0250023Y0005771D01*
X0249660Y0005658D01*
X0249294Y0005553D01*
X0248926Y0005458D01*
X0248555Y0005371D01*
X0248183Y0005293D01*
X0247808Y0005225D01*
X0247432Y0005165D01*
X0247055Y0005115D01*
X0246677Y0005074D01*
X0246298Y0005041D01*
X0245918Y0005018D01*
X0245538Y0005005D01*
X0245157Y0005000D01*
X0191557Y0131393D02*
X0190289Y0131393D01*
X0191557Y0132661D01*
X0191557Y0132978D01*
X0191240Y0133295D01*
X0190606Y0133295D01*
X0190289Y0132978D01*
X0189347Y0133295D02*
X0189347Y0131710D01*
X0189030Y0131393D01*
X0188396Y0131393D01*
X0188079Y0131710D01*
X0188079Y0133295D01*
X0150856Y0136898D02*
X0148955Y0136898D01*
X0148955Y0137849D01*
X0149272Y0138166D01*
X0149905Y0138166D01*
X0150222Y0137849D01*
X0150222Y0136898D01*
X0150222Y0137532D02*
X0150856Y0138166D01*
X0150856Y0139108D02*
X0150856Y0140376D01*
X0150856Y0139742D02*
X0148955Y0139742D01*
X0149589Y0139108D01*
X0120691Y0140273D02*
X0120374Y0139956D01*
X0119740Y0139956D01*
X0119423Y0140273D01*
X0120057Y0140907D02*
X0120374Y0140907D01*
X0120691Y0140590D01*
X0120691Y0140273D01*
X0120374Y0140907D02*
X0120691Y0141224D01*
X0120691Y0141541D01*
X0120374Y0141858D01*
X0119740Y0141858D01*
X0119423Y0141541D01*
X0118481Y0141858D02*
X0118481Y0140273D01*
X0118164Y0139956D01*
X0117530Y0139956D01*
X0117213Y0140273D01*
X0117213Y0141858D01*
X0097264Y0140376D02*
X0097264Y0139108D01*
X0095996Y0140376D01*
X0095679Y0140376D01*
X0095363Y0140059D01*
X0095363Y0139425D01*
X0095679Y0139108D01*
X0095679Y0138166D02*
X0096313Y0138166D01*
X0096630Y0137849D01*
X0096630Y0136898D01*
X0097264Y0136898D02*
X0095363Y0136898D01*
X0095363Y0137849D01*
X0095679Y0138166D01*
X0096630Y0137532D02*
X0097264Y0138166D01*
X0097264Y0152646D02*
X0095363Y0152646D01*
X0095363Y0153597D01*
X0095679Y0153914D01*
X0096313Y0153914D01*
X0096630Y0153597D01*
X0096630Y0152646D01*
X0096630Y0153280D02*
X0097264Y0153914D01*
X0096947Y0154856D02*
X0097264Y0155173D01*
X0097264Y0155807D01*
X0096947Y0156124D01*
X0096630Y0156124D01*
X0096313Y0155807D01*
X0096313Y0155490D01*
X0096313Y0155807D02*
X0095996Y0156124D01*
X0095679Y0156124D01*
X0095363Y0155807D01*
X0095363Y0155173D01*
X0095679Y0154856D01*
X0032898Y0135292D02*
X0032898Y0134024D01*
X0032898Y0134658D02*
X0030996Y0134658D01*
X0031630Y0134024D01*
X0030996Y0133082D02*
X0030996Y0132448D01*
X0030996Y0132765D02*
X0032581Y0132765D01*
X0032898Y0132448D01*
X0032898Y0132131D01*
X0032581Y0131814D01*
X0032581Y0182996D02*
X0032898Y0183313D01*
X0032898Y0183629D01*
X0032581Y0183946D01*
X0030996Y0183946D01*
X0030996Y0183629D02*
X0030996Y0184263D01*
X0031313Y0185205D02*
X0030996Y0185522D01*
X0030996Y0186156D01*
X0031313Y0186473D01*
X0031630Y0186473D01*
X0032898Y0185205D01*
X0032898Y0186473D01*
X0217258Y0167301D02*
X0219159Y0167301D01*
X0219159Y0166667D02*
X0219159Y0167935D01*
X0217892Y0166667D02*
X0217258Y0167301D01*
X0217258Y0165725D02*
X0217575Y0165725D01*
X0218209Y0165091D01*
X0219159Y0165091D01*
X0218209Y0165091D02*
X0217575Y0164457D01*
X0217258Y0164457D01*
X0243443Y0159744D02*
X0243443Y0159110D01*
X0243760Y0158793D01*
X0243760Y0157851D02*
X0243443Y0157534D01*
X0243443Y0156900D01*
X0243760Y0156583D01*
X0245028Y0156583D01*
X0245344Y0156900D01*
X0245344Y0157534D01*
X0245028Y0157851D01*
X0245344Y0158793D02*
X0244077Y0160061D01*
X0243760Y0160061D01*
X0243443Y0159744D01*
X0245344Y0160061D02*
X0245344Y0158793D01*
X0245028Y0172331D02*
X0243760Y0172331D01*
X0243443Y0172648D01*
X0243443Y0173282D01*
X0243760Y0173599D01*
X0244077Y0174541D02*
X0243443Y0175175D01*
X0245344Y0175175D01*
X0245344Y0174541D02*
X0245344Y0175809D01*
X0245028Y0173599D02*
X0245344Y0173282D01*
X0245344Y0172648D01*
X0245028Y0172331D01*
D13*
X0238409Y0179917D02*
X0238409Y0152917D01*
X0238406Y0152698D01*
X0238398Y0152479D01*
X0238385Y0152260D01*
X0238366Y0152042D01*
X0238342Y0151824D01*
X0238313Y0151607D01*
X0238279Y0151390D01*
X0238239Y0151175D01*
X0238194Y0150960D01*
X0238143Y0150747D01*
X0238088Y0150535D01*
X0238027Y0150324D01*
X0237962Y0150115D01*
X0237891Y0149908D01*
X0237815Y0149702D01*
X0237734Y0149498D01*
X0237649Y0149296D01*
X0237558Y0149097D01*
X0237463Y0148900D01*
X0237362Y0148705D01*
X0237257Y0148512D01*
X0237148Y0148322D01*
X0237034Y0148135D01*
X0236915Y0147951D01*
X0236792Y0147770D01*
X0236664Y0147592D01*
X0236532Y0147416D01*
X0236396Y0147245D01*
X0236256Y0147076D01*
X0236112Y0146911D01*
X0235964Y0146750D01*
X0235812Y0146592D01*
X0235656Y0146438D01*
X0235496Y0146288D01*
X0235333Y0146141D01*
X0235166Y0145999D01*
X0234996Y0145861D01*
X0234822Y0145727D01*
X0234646Y0145597D01*
X0234466Y0145472D01*
X0234283Y0145351D01*
X0234097Y0145235D01*
X0233909Y0145123D01*
X0233718Y0145016D01*
X0233524Y0144913D01*
X0233328Y0144815D01*
X0233130Y0144722D01*
X0232929Y0144634D01*
X0232726Y0144551D01*
X0232521Y0144472D01*
X0232315Y0144399D01*
X0232107Y0144331D01*
X0231897Y0144268D01*
X0231685Y0144210D01*
X0231473Y0144157D01*
X0231259Y0144109D01*
X0231044Y0144067D01*
X0230828Y0144030D01*
X0230611Y0143998D01*
X0230393Y0143971D01*
X0230175Y0143950D01*
X0229957Y0143934D01*
X0229738Y0143923D01*
X0229519Y0143918D01*
X0229299Y0143918D01*
X0229080Y0143923D01*
X0228861Y0143934D01*
X0228643Y0143950D01*
X0228425Y0143971D01*
X0228207Y0143998D01*
X0227990Y0144030D01*
X0227774Y0144067D01*
X0227559Y0144109D01*
X0227345Y0144157D01*
X0227133Y0144210D01*
X0226921Y0144268D01*
X0226711Y0144331D01*
X0226503Y0144399D01*
X0226297Y0144472D01*
X0226092Y0144551D01*
X0225889Y0144634D01*
X0225688Y0144722D01*
X0225490Y0144815D01*
X0225294Y0144913D01*
X0225100Y0145016D01*
X0224909Y0145123D01*
X0224721Y0145235D01*
X0224535Y0145351D01*
X0224352Y0145472D01*
X0224172Y0145597D01*
X0223996Y0145727D01*
X0223822Y0145861D01*
X0223652Y0145999D01*
X0223485Y0146141D01*
X0223322Y0146288D01*
X0223162Y0146438D01*
X0223006Y0146592D01*
X0222854Y0146750D01*
X0222706Y0146911D01*
X0222562Y0147076D01*
X0222422Y0147245D01*
X0222286Y0147416D01*
X0222154Y0147592D01*
X0222026Y0147770D01*
X0221903Y0147951D01*
X0221784Y0148135D01*
X0221670Y0148322D01*
X0221561Y0148512D01*
X0221456Y0148705D01*
X0221355Y0148900D01*
X0221260Y0149097D01*
X0221169Y0149296D01*
X0221084Y0149498D01*
X0221003Y0149702D01*
X0220927Y0149908D01*
X0220856Y0150115D01*
X0220791Y0150324D01*
X0220730Y0150535D01*
X0220675Y0150747D01*
X0220624Y0150960D01*
X0220579Y0151175D01*
X0220539Y0151390D01*
X0220505Y0151607D01*
X0220476Y0151824D01*
X0220452Y0152042D01*
X0220433Y0152260D01*
X0220420Y0152479D01*
X0220412Y0152698D01*
X0220409Y0152917D01*
X0220409Y0179917D01*
X0220412Y0180136D01*
X0220420Y0180355D01*
X0220433Y0180574D01*
X0220452Y0180792D01*
X0220476Y0181010D01*
X0220505Y0181227D01*
X0220539Y0181444D01*
X0220579Y0181659D01*
X0220624Y0181874D01*
X0220675Y0182087D01*
X0220730Y0182299D01*
X0220791Y0182510D01*
X0220856Y0182719D01*
X0220927Y0182926D01*
X0221003Y0183132D01*
X0221084Y0183336D01*
X0221169Y0183538D01*
X0221260Y0183737D01*
X0221355Y0183934D01*
X0221456Y0184129D01*
X0221561Y0184322D01*
X0221670Y0184512D01*
X0221784Y0184699D01*
X0221903Y0184883D01*
X0222026Y0185064D01*
X0222154Y0185242D01*
X0222286Y0185418D01*
X0222422Y0185589D01*
X0222562Y0185758D01*
X0222706Y0185923D01*
X0222854Y0186084D01*
X0223006Y0186242D01*
X0223162Y0186396D01*
X0223322Y0186546D01*
X0223485Y0186693D01*
X0223652Y0186835D01*
X0223822Y0186973D01*
X0223996Y0187107D01*
X0224172Y0187237D01*
X0224352Y0187362D01*
X0224535Y0187483D01*
X0224721Y0187599D01*
X0224909Y0187711D01*
X0225100Y0187818D01*
X0225294Y0187921D01*
X0225490Y0188019D01*
X0225688Y0188112D01*
X0225889Y0188200D01*
X0226092Y0188283D01*
X0226297Y0188362D01*
X0226503Y0188435D01*
X0226711Y0188503D01*
X0226921Y0188566D01*
X0227133Y0188624D01*
X0227345Y0188677D01*
X0227559Y0188725D01*
X0227774Y0188767D01*
X0227990Y0188804D01*
X0228207Y0188836D01*
X0228425Y0188863D01*
X0228643Y0188884D01*
X0228861Y0188900D01*
X0229080Y0188911D01*
X0229299Y0188916D01*
X0229519Y0188916D01*
X0229738Y0188911D01*
X0229957Y0188900D01*
X0230175Y0188884D01*
X0230393Y0188863D01*
X0230611Y0188836D01*
X0230828Y0188804D01*
X0231044Y0188767D01*
X0231259Y0188725D01*
X0231473Y0188677D01*
X0231685Y0188624D01*
X0231897Y0188566D01*
X0232107Y0188503D01*
X0232315Y0188435D01*
X0232521Y0188362D01*
X0232726Y0188283D01*
X0232929Y0188200D01*
X0233130Y0188112D01*
X0233328Y0188019D01*
X0233524Y0187921D01*
X0233718Y0187818D01*
X0233909Y0187711D01*
X0234097Y0187599D01*
X0234283Y0187483D01*
X0234466Y0187362D01*
X0234646Y0187237D01*
X0234822Y0187107D01*
X0234996Y0186973D01*
X0235166Y0186835D01*
X0235333Y0186693D01*
X0235496Y0186546D01*
X0235656Y0186396D01*
X0235812Y0186242D01*
X0235964Y0186084D01*
X0236112Y0185923D01*
X0236256Y0185758D01*
X0236396Y0185589D01*
X0236532Y0185418D01*
X0236664Y0185242D01*
X0236792Y0185064D01*
X0236915Y0184883D01*
X0237034Y0184699D01*
X0237148Y0184512D01*
X0237257Y0184322D01*
X0237362Y0184129D01*
X0237463Y0183934D01*
X0237558Y0183737D01*
X0237649Y0183538D01*
X0237734Y0183336D01*
X0237815Y0183132D01*
X0237891Y0182926D01*
X0237962Y0182719D01*
X0238027Y0182510D01*
X0238088Y0182299D01*
X0238143Y0182087D01*
X0238194Y0181874D01*
X0238239Y0181659D01*
X0238279Y0181444D01*
X0238313Y0181227D01*
X0238342Y0181010D01*
X0238366Y0180792D01*
X0238385Y0180574D01*
X0238398Y0180355D01*
X0238406Y0180136D01*
X0238409Y0179917D01*
X0205202Y0180637D02*
X0205202Y0136843D01*
X0205211Y0136773D01*
X0205216Y0136701D01*
X0205217Y0136630D01*
X0205214Y0136559D01*
X0205207Y0136488D01*
X0205197Y0136417D01*
X0205183Y0136347D01*
X0205165Y0136278D01*
X0205143Y0136210D01*
X0205117Y0136143D01*
X0205088Y0136078D01*
X0205056Y0136015D01*
X0205020Y0135953D01*
X0204981Y0135893D01*
X0204938Y0135836D01*
X0204893Y0135781D01*
X0204845Y0135728D01*
X0204793Y0135678D01*
X0204740Y0135631D01*
X0204684Y0135587D01*
X0204625Y0135547D01*
X0204564Y0135509D01*
X0204502Y0135475D01*
X0204438Y0135444D01*
X0204372Y0135416D01*
X0204304Y0135393D01*
X0204236Y0135373D01*
X0204166Y0135356D01*
X0204096Y0135344D01*
X0204096Y0135343D02*
X0192639Y0135343D01*
X0192639Y0135543D02*
X0192637Y0135641D01*
X0192631Y0135739D01*
X0192622Y0135837D01*
X0192608Y0135934D01*
X0192591Y0136031D01*
X0192570Y0136127D01*
X0192545Y0136222D01*
X0192517Y0136316D01*
X0192484Y0136408D01*
X0192449Y0136500D01*
X0192409Y0136590D01*
X0192367Y0136678D01*
X0192320Y0136765D01*
X0192271Y0136849D01*
X0192218Y0136932D01*
X0192162Y0137012D01*
X0192102Y0137091D01*
X0192040Y0137167D01*
X0191975Y0137240D01*
X0191907Y0137311D01*
X0191836Y0137379D01*
X0191763Y0137444D01*
X0191687Y0137506D01*
X0191608Y0137566D01*
X0191528Y0137622D01*
X0191445Y0137675D01*
X0191361Y0137724D01*
X0191274Y0137771D01*
X0191186Y0137813D01*
X0191096Y0137853D01*
X0191004Y0137888D01*
X0190912Y0137921D01*
X0190818Y0137949D01*
X0190723Y0137974D01*
X0190627Y0137995D01*
X0190530Y0138012D01*
X0190433Y0138026D01*
X0190335Y0138035D01*
X0190237Y0138041D01*
X0190139Y0138043D01*
X0190041Y0138041D01*
X0189943Y0138035D01*
X0189845Y0138026D01*
X0189748Y0138012D01*
X0189651Y0137995D01*
X0189555Y0137974D01*
X0189460Y0137949D01*
X0189366Y0137921D01*
X0189274Y0137888D01*
X0189182Y0137853D01*
X0189092Y0137813D01*
X0189004Y0137771D01*
X0188917Y0137724D01*
X0188833Y0137675D01*
X0188750Y0137622D01*
X0188670Y0137566D01*
X0188591Y0137506D01*
X0188515Y0137444D01*
X0188442Y0137379D01*
X0188371Y0137311D01*
X0188303Y0137240D01*
X0188238Y0137167D01*
X0188176Y0137091D01*
X0188116Y0137012D01*
X0188060Y0136932D01*
X0188007Y0136849D01*
X0187958Y0136765D01*
X0187911Y0136678D01*
X0187869Y0136590D01*
X0187829Y0136500D01*
X0187794Y0136408D01*
X0187761Y0136316D01*
X0187733Y0136222D01*
X0187708Y0136127D01*
X0187687Y0136031D01*
X0187670Y0135934D01*
X0187656Y0135837D01*
X0187647Y0135739D01*
X0187641Y0135641D01*
X0187639Y0135543D01*
X0187639Y0135343D02*
X0176820Y0135343D01*
X0176770Y0135343D02*
X0176689Y0135336D01*
X0176608Y0135332D01*
X0176527Y0135333D01*
X0176445Y0135337D01*
X0176365Y0135345D01*
X0176284Y0135357D01*
X0176204Y0135372D01*
X0176125Y0135392D01*
X0176047Y0135415D01*
X0175971Y0135442D01*
X0175895Y0135472D01*
X0175821Y0135506D01*
X0175749Y0135544D01*
X0175679Y0135585D01*
X0175611Y0135629D01*
X0175545Y0135676D01*
X0175481Y0135727D01*
X0175420Y0135780D01*
X0175361Y0135837D01*
X0175305Y0135896D01*
X0175252Y0135957D01*
X0175202Y0136021D01*
X0175155Y0136088D01*
X0175111Y0136156D01*
X0175071Y0136227D01*
X0175034Y0136299D01*
X0175000Y0136373D01*
X0174971Y0136449D01*
X0174944Y0136526D01*
X0174922Y0136604D01*
X0174903Y0136683D01*
X0174888Y0136763D01*
X0174876Y0136844D01*
X0174877Y0136843D02*
X0174877Y0180243D01*
X0174876Y0180244D02*
X0174878Y0180320D01*
X0174884Y0180395D01*
X0174893Y0180471D01*
X0174907Y0180546D01*
X0174924Y0180620D01*
X0174945Y0180693D01*
X0174969Y0180765D01*
X0174997Y0180835D01*
X0175029Y0180904D01*
X0175064Y0180972D01*
X0175103Y0181037D01*
X0175145Y0181101D01*
X0175190Y0181162D01*
X0175238Y0181221D01*
X0175289Y0181277D01*
X0175343Y0181331D01*
X0175399Y0181382D01*
X0175458Y0181430D01*
X0175519Y0181475D01*
X0175583Y0181517D01*
X0175648Y0181556D01*
X0175716Y0181591D01*
X0175785Y0181623D01*
X0175855Y0181651D01*
X0175927Y0181675D01*
X0176000Y0181696D01*
X0176074Y0181713D01*
X0176149Y0181727D01*
X0176225Y0181736D01*
X0176300Y0181742D01*
X0176376Y0181744D01*
X0176377Y0181743D02*
X0203702Y0181743D01*
X0203773Y0181752D01*
X0203844Y0181757D01*
X0203916Y0181758D01*
X0203987Y0181755D01*
X0204058Y0181748D01*
X0204129Y0181738D01*
X0204198Y0181724D01*
X0204268Y0181705D01*
X0204336Y0181684D01*
X0204402Y0181658D01*
X0204467Y0181629D01*
X0204531Y0181597D01*
X0204593Y0181561D01*
X0204652Y0181522D01*
X0204710Y0181479D01*
X0204765Y0181434D01*
X0204817Y0181385D01*
X0204867Y0181334D01*
X0204914Y0181281D01*
X0204958Y0181224D01*
X0204999Y0181166D01*
X0205037Y0181105D01*
X0205071Y0181043D01*
X0205102Y0180978D01*
X0205129Y0180912D01*
X0205153Y0180845D01*
X0205173Y0180777D01*
X0205190Y0180707D01*
X0205202Y0180637D01*
X0126836Y0164200D02*
X0126836Y0145406D01*
X0126835Y0145406D02*
X0126844Y0145336D01*
X0126849Y0145264D01*
X0126850Y0145193D01*
X0126847Y0145122D01*
X0126840Y0145051D01*
X0126830Y0144980D01*
X0126816Y0144910D01*
X0126798Y0144841D01*
X0126776Y0144773D01*
X0126750Y0144706D01*
X0126721Y0144641D01*
X0126689Y0144578D01*
X0126653Y0144516D01*
X0126614Y0144456D01*
X0126571Y0144399D01*
X0126526Y0144344D01*
X0126478Y0144291D01*
X0126426Y0144241D01*
X0126373Y0144194D01*
X0126317Y0144150D01*
X0126258Y0144110D01*
X0126197Y0144072D01*
X0126135Y0144038D01*
X0126071Y0144007D01*
X0126005Y0143979D01*
X0125937Y0143956D01*
X0125869Y0143936D01*
X0125799Y0143919D01*
X0125729Y0143907D01*
X0125730Y0143906D02*
X0121773Y0143906D01*
X0121773Y0144106D02*
X0121771Y0144204D01*
X0121765Y0144302D01*
X0121756Y0144400D01*
X0121742Y0144497D01*
X0121725Y0144594D01*
X0121704Y0144690D01*
X0121679Y0144785D01*
X0121651Y0144879D01*
X0121618Y0144971D01*
X0121583Y0145063D01*
X0121543Y0145153D01*
X0121501Y0145241D01*
X0121454Y0145328D01*
X0121405Y0145412D01*
X0121352Y0145495D01*
X0121296Y0145575D01*
X0121236Y0145654D01*
X0121174Y0145730D01*
X0121109Y0145803D01*
X0121041Y0145874D01*
X0120970Y0145942D01*
X0120897Y0146007D01*
X0120821Y0146069D01*
X0120742Y0146129D01*
X0120662Y0146185D01*
X0120579Y0146238D01*
X0120495Y0146287D01*
X0120408Y0146334D01*
X0120320Y0146376D01*
X0120230Y0146416D01*
X0120138Y0146451D01*
X0120046Y0146484D01*
X0119952Y0146512D01*
X0119857Y0146537D01*
X0119761Y0146558D01*
X0119664Y0146575D01*
X0119567Y0146589D01*
X0119469Y0146598D01*
X0119371Y0146604D01*
X0119273Y0146606D01*
X0119175Y0146604D01*
X0119077Y0146598D01*
X0118979Y0146589D01*
X0118882Y0146575D01*
X0118785Y0146558D01*
X0118689Y0146537D01*
X0118594Y0146512D01*
X0118500Y0146484D01*
X0118408Y0146451D01*
X0118316Y0146416D01*
X0118226Y0146376D01*
X0118138Y0146334D01*
X0118051Y0146287D01*
X0117967Y0146238D01*
X0117884Y0146185D01*
X0117804Y0146129D01*
X0117725Y0146069D01*
X0117649Y0146007D01*
X0117576Y0145942D01*
X0117505Y0145874D01*
X0117437Y0145803D01*
X0117372Y0145730D01*
X0117310Y0145654D01*
X0117250Y0145575D01*
X0117194Y0145495D01*
X0117141Y0145412D01*
X0117092Y0145328D01*
X0117045Y0145241D01*
X0117003Y0145153D01*
X0116963Y0145063D01*
X0116928Y0144971D01*
X0116895Y0144879D01*
X0116867Y0144785D01*
X0116842Y0144690D01*
X0116821Y0144594D01*
X0116804Y0144497D01*
X0116790Y0144400D01*
X0116781Y0144302D01*
X0116775Y0144204D01*
X0116773Y0144106D01*
X0116773Y0143906D02*
X0113454Y0143906D01*
X0113404Y0143906D02*
X0113323Y0143899D01*
X0113242Y0143895D01*
X0113161Y0143896D01*
X0113079Y0143900D01*
X0112999Y0143908D01*
X0112918Y0143920D01*
X0112838Y0143935D01*
X0112759Y0143955D01*
X0112681Y0143978D01*
X0112605Y0144005D01*
X0112529Y0144035D01*
X0112455Y0144069D01*
X0112383Y0144107D01*
X0112313Y0144148D01*
X0112245Y0144192D01*
X0112179Y0144239D01*
X0112115Y0144290D01*
X0112054Y0144343D01*
X0111995Y0144400D01*
X0111939Y0144459D01*
X0111886Y0144520D01*
X0111836Y0144584D01*
X0111789Y0144651D01*
X0111745Y0144719D01*
X0111705Y0144790D01*
X0111668Y0144862D01*
X0111634Y0144936D01*
X0111605Y0145012D01*
X0111578Y0145089D01*
X0111556Y0145167D01*
X0111537Y0145246D01*
X0111522Y0145326D01*
X0111510Y0145407D01*
X0111511Y0145406D02*
X0111511Y0163806D01*
X0111510Y0163807D02*
X0111512Y0163883D01*
X0111518Y0163958D01*
X0111527Y0164034D01*
X0111541Y0164109D01*
X0111558Y0164183D01*
X0111579Y0164256D01*
X0111603Y0164328D01*
X0111631Y0164398D01*
X0111663Y0164467D01*
X0111698Y0164535D01*
X0111737Y0164600D01*
X0111779Y0164664D01*
X0111824Y0164725D01*
X0111872Y0164784D01*
X0111923Y0164840D01*
X0111977Y0164894D01*
X0112033Y0164945D01*
X0112092Y0164993D01*
X0112153Y0165038D01*
X0112217Y0165080D01*
X0112282Y0165119D01*
X0112350Y0165154D01*
X0112419Y0165186D01*
X0112489Y0165214D01*
X0112561Y0165238D01*
X0112634Y0165259D01*
X0112708Y0165276D01*
X0112783Y0165290D01*
X0112859Y0165299D01*
X0112934Y0165305D01*
X0113010Y0165307D01*
X0113011Y0165306D02*
X0125336Y0165306D01*
X0125407Y0165315D01*
X0125478Y0165320D01*
X0125550Y0165321D01*
X0125621Y0165318D01*
X0125692Y0165311D01*
X0125763Y0165301D01*
X0125832Y0165287D01*
X0125902Y0165268D01*
X0125970Y0165247D01*
X0126036Y0165221D01*
X0126101Y0165192D01*
X0126165Y0165160D01*
X0126227Y0165124D01*
X0126286Y0165085D01*
X0126344Y0165042D01*
X0126399Y0164997D01*
X0126451Y0164948D01*
X0126501Y0164897D01*
X0126548Y0164844D01*
X0126592Y0164787D01*
X0126633Y0164729D01*
X0126671Y0164668D01*
X0126705Y0164606D01*
X0126736Y0164541D01*
X0126763Y0164475D01*
X0126787Y0164408D01*
X0126807Y0164340D01*
X0126824Y0164270D01*
X0126836Y0164200D01*
X0037283Y0150276D02*
X0011693Y0150276D01*
X0011693Y0194370D01*
X0037283Y0194370D01*
X0037283Y0150276D01*
X0037283Y0143189D02*
X0011693Y0143189D01*
X0011693Y0099094D01*
X0007756Y0099094D01*
X0007756Y0143189D01*
X0011693Y0143189D01*
X0011693Y0150276D02*
X0007756Y0150276D01*
X0007756Y0194370D01*
X0011693Y0194370D01*
X0037283Y0143189D02*
X0037283Y0099094D01*
X0011693Y0099094D01*
D14*
X0127422Y0142189D02*
X0127571Y0141952D01*
X0127769Y0141754D01*
X0128006Y0141605D01*
X0128270Y0141513D01*
X0128548Y0141481D01*
X0128826Y0141513D01*
X0129091Y0141605D01*
X0129328Y0141754D01*
X0129526Y0141952D01*
X0129674Y0142189D01*
X0129767Y0142453D01*
X0129798Y0142731D01*
X0129767Y0143009D01*
X0129674Y0143274D01*
X0129526Y0143511D01*
X0127571Y0143511D01*
X0127422Y0143274D01*
X0127330Y0143009D01*
X0127298Y0142731D01*
X0127330Y0142453D01*
X0127422Y0142189D01*
X0127421Y0142191D02*
X0129675Y0142191D01*
X0129678Y0142200D02*
X0127418Y0142200D01*
X0127415Y0142208D02*
X0129681Y0142208D01*
X0129684Y0142217D02*
X0127412Y0142217D01*
X0127409Y0142225D02*
X0129687Y0142225D01*
X0129690Y0142234D02*
X0127406Y0142234D01*
X0127403Y0142242D02*
X0129693Y0142242D01*
X0129696Y0142251D02*
X0127400Y0142251D01*
X0127397Y0142259D02*
X0129699Y0142259D01*
X0129702Y0142268D02*
X0127394Y0142268D01*
X0127391Y0142276D02*
X0129705Y0142276D01*
X0129708Y0142285D02*
X0127389Y0142285D01*
X0127386Y0142293D02*
X0129711Y0142293D01*
X0129714Y0142302D02*
X0127383Y0142302D01*
X0127380Y0142310D02*
X0129717Y0142310D01*
X0129720Y0142319D02*
X0127377Y0142319D01*
X0127374Y0142327D02*
X0129723Y0142327D01*
X0129726Y0142336D02*
X0127371Y0142336D01*
X0127368Y0142344D02*
X0129729Y0142344D01*
X0129732Y0142353D02*
X0127365Y0142353D01*
X0127362Y0142361D02*
X0129735Y0142361D01*
X0129738Y0142370D02*
X0127359Y0142370D01*
X0127356Y0142378D02*
X0129741Y0142378D01*
X0129744Y0142387D02*
X0127353Y0142387D01*
X0127350Y0142395D02*
X0129747Y0142395D01*
X0129750Y0142404D02*
X0127347Y0142404D01*
X0127344Y0142412D02*
X0129753Y0142412D01*
X0129756Y0142421D02*
X0127341Y0142421D01*
X0127338Y0142429D02*
X0129759Y0142429D01*
X0129762Y0142438D02*
X0127335Y0142438D01*
X0127332Y0142446D02*
X0129765Y0142446D01*
X0129767Y0142455D02*
X0127329Y0142455D01*
X0127328Y0142463D02*
X0129768Y0142463D01*
X0129769Y0142472D02*
X0127327Y0142472D01*
X0127326Y0142481D02*
X0129770Y0142481D01*
X0129771Y0142489D02*
X0127326Y0142489D01*
X0127325Y0142498D02*
X0129772Y0142498D01*
X0129773Y0142506D02*
X0127324Y0142506D01*
X0127323Y0142515D02*
X0129774Y0142515D01*
X0129775Y0142523D02*
X0127322Y0142523D01*
X0127321Y0142532D02*
X0129776Y0142532D01*
X0129777Y0142540D02*
X0127320Y0142540D01*
X0127319Y0142549D02*
X0129778Y0142549D01*
X0129779Y0142557D02*
X0127318Y0142557D01*
X0127317Y0142566D02*
X0129780Y0142566D01*
X0129781Y0142574D02*
X0127316Y0142574D01*
X0127315Y0142583D02*
X0129781Y0142583D01*
X0129782Y0142591D02*
X0127314Y0142591D01*
X0127313Y0142600D02*
X0129783Y0142600D01*
X0129784Y0142608D02*
X0127312Y0142608D01*
X0127311Y0142617D02*
X0129785Y0142617D01*
X0129786Y0142625D02*
X0127310Y0142625D01*
X0127309Y0142634D02*
X0129787Y0142634D01*
X0129788Y0142642D02*
X0127308Y0142642D01*
X0127307Y0142651D02*
X0129789Y0142651D01*
X0129790Y0142659D02*
X0127306Y0142659D01*
X0127305Y0142668D02*
X0129791Y0142668D01*
X0129792Y0142676D02*
X0127304Y0142676D01*
X0127303Y0142685D02*
X0129793Y0142685D01*
X0129794Y0142693D02*
X0127302Y0142693D01*
X0127302Y0142702D02*
X0129795Y0142702D01*
X0129796Y0142710D02*
X0127301Y0142710D01*
X0127300Y0142719D02*
X0129797Y0142719D01*
X0129798Y0142727D02*
X0127299Y0142727D01*
X0127299Y0142736D02*
X0129798Y0142736D01*
X0129797Y0142744D02*
X0127300Y0142744D01*
X0127301Y0142753D02*
X0129796Y0142753D01*
X0129795Y0142761D02*
X0127302Y0142761D01*
X0127303Y0142770D02*
X0129794Y0142770D01*
X0129793Y0142778D02*
X0127304Y0142778D01*
X0127305Y0142787D02*
X0129792Y0142787D01*
X0129791Y0142796D02*
X0127305Y0142796D01*
X0127306Y0142804D02*
X0129790Y0142804D01*
X0129789Y0142813D02*
X0127307Y0142813D01*
X0127308Y0142821D02*
X0129788Y0142821D01*
X0129787Y0142830D02*
X0127309Y0142830D01*
X0127310Y0142838D02*
X0129786Y0142838D01*
X0129785Y0142847D02*
X0127311Y0142847D01*
X0127312Y0142855D02*
X0129784Y0142855D01*
X0129783Y0142864D02*
X0127313Y0142864D01*
X0127314Y0142872D02*
X0129782Y0142872D01*
X0129781Y0142881D02*
X0127315Y0142881D01*
X0127316Y0142889D02*
X0129780Y0142889D01*
X0129779Y0142898D02*
X0127317Y0142898D01*
X0127318Y0142906D02*
X0129779Y0142906D01*
X0129778Y0142915D02*
X0127319Y0142915D01*
X0127320Y0142923D02*
X0129777Y0142923D01*
X0129776Y0142932D02*
X0127321Y0142932D01*
X0127322Y0142940D02*
X0129775Y0142940D01*
X0129774Y0142949D02*
X0127323Y0142949D01*
X0127324Y0142957D02*
X0129773Y0142957D01*
X0129772Y0142966D02*
X0127325Y0142966D01*
X0127326Y0142974D02*
X0129771Y0142974D01*
X0129770Y0142983D02*
X0127327Y0142983D01*
X0127328Y0142991D02*
X0129769Y0142991D01*
X0129768Y0143000D02*
X0127328Y0143000D01*
X0127329Y0143008D02*
X0129767Y0143008D01*
X0129764Y0143017D02*
X0127332Y0143017D01*
X0127335Y0143025D02*
X0129761Y0143025D01*
X0129758Y0143034D02*
X0127338Y0143034D01*
X0127341Y0143042D02*
X0129755Y0143042D01*
X0129752Y0143051D02*
X0127344Y0143051D01*
X0127347Y0143059D02*
X0129749Y0143059D01*
X0129746Y0143068D02*
X0127350Y0143068D01*
X0127353Y0143076D02*
X0129743Y0143076D01*
X0129740Y0143085D02*
X0127356Y0143085D01*
X0127359Y0143094D02*
X0129737Y0143094D01*
X0129735Y0143102D02*
X0127362Y0143102D01*
X0127365Y0143111D02*
X0129732Y0143111D01*
X0129729Y0143119D02*
X0127368Y0143119D01*
X0127371Y0143128D02*
X0129726Y0143128D01*
X0129723Y0143136D02*
X0127374Y0143136D01*
X0127377Y0143145D02*
X0129720Y0143145D01*
X0129717Y0143153D02*
X0127380Y0143153D01*
X0127383Y0143162D02*
X0129714Y0143162D01*
X0129711Y0143170D02*
X0127386Y0143170D01*
X0127389Y0143179D02*
X0129708Y0143179D01*
X0129705Y0143187D02*
X0127392Y0143187D01*
X0127395Y0143196D02*
X0129702Y0143196D01*
X0129699Y0143204D02*
X0127398Y0143204D01*
X0127401Y0143213D02*
X0129696Y0143213D01*
X0129693Y0143221D02*
X0127404Y0143221D01*
X0127407Y0143230D02*
X0129690Y0143230D01*
X0129687Y0143238D02*
X0127410Y0143238D01*
X0127413Y0143247D02*
X0129684Y0143247D01*
X0129681Y0143255D02*
X0127416Y0143255D01*
X0127419Y0143264D02*
X0129678Y0143264D01*
X0129675Y0143272D02*
X0127422Y0143272D01*
X0127427Y0143281D02*
X0129670Y0143281D01*
X0129665Y0143289D02*
X0127432Y0143289D01*
X0127437Y0143298D02*
X0129659Y0143298D01*
X0129654Y0143306D02*
X0127443Y0143306D01*
X0127448Y0143315D02*
X0129649Y0143315D01*
X0129643Y0143323D02*
X0127453Y0143323D01*
X0127459Y0143332D02*
X0129638Y0143332D01*
X0129633Y0143340D02*
X0127464Y0143340D01*
X0127469Y0143349D02*
X0129627Y0143349D01*
X0129622Y0143357D02*
X0127475Y0143357D01*
X0127480Y0143366D02*
X0129616Y0143366D01*
X0129611Y0143374D02*
X0127485Y0143374D01*
X0127491Y0143383D02*
X0129606Y0143383D01*
X0129600Y0143391D02*
X0127496Y0143391D01*
X0127501Y0143400D02*
X0129595Y0143400D01*
X0129590Y0143409D02*
X0127507Y0143409D01*
X0127512Y0143417D02*
X0129584Y0143417D01*
X0129579Y0143426D02*
X0127517Y0143426D01*
X0127523Y0143434D02*
X0129574Y0143434D01*
X0129568Y0143443D02*
X0127528Y0143443D01*
X0127534Y0143451D02*
X0129563Y0143451D01*
X0129558Y0143460D02*
X0127539Y0143460D01*
X0127544Y0143468D02*
X0129552Y0143468D01*
X0129547Y0143477D02*
X0127550Y0143477D01*
X0127555Y0143485D02*
X0129542Y0143485D01*
X0129536Y0143494D02*
X0127560Y0143494D01*
X0127566Y0143502D02*
X0129531Y0143502D01*
X0129526Y0143511D02*
X0129328Y0143709D01*
X0129091Y0143858D01*
X0128826Y0143950D01*
X0128548Y0143981D01*
X0128270Y0143950D01*
X0128006Y0143858D01*
X0127769Y0143709D01*
X0127571Y0143511D01*
X0127579Y0143519D02*
X0129517Y0143519D01*
X0129508Y0143528D02*
X0127588Y0143528D01*
X0127596Y0143536D02*
X0129500Y0143536D01*
X0129491Y0143545D02*
X0127605Y0143545D01*
X0127614Y0143553D02*
X0129483Y0143553D01*
X0129474Y0143562D02*
X0127622Y0143562D01*
X0127631Y0143570D02*
X0129466Y0143570D01*
X0129457Y0143579D02*
X0127639Y0143579D01*
X0127648Y0143587D02*
X0129449Y0143587D01*
X0129440Y0143596D02*
X0127656Y0143596D01*
X0127665Y0143604D02*
X0129432Y0143604D01*
X0129423Y0143613D02*
X0127673Y0143613D01*
X0127682Y0143621D02*
X0129415Y0143621D01*
X0129406Y0143630D02*
X0127690Y0143630D01*
X0127699Y0143638D02*
X0129398Y0143638D01*
X0129389Y0143647D02*
X0127707Y0143647D01*
X0127716Y0143655D02*
X0129381Y0143655D01*
X0129372Y0143664D02*
X0127724Y0143664D01*
X0127733Y0143672D02*
X0129364Y0143672D01*
X0129355Y0143681D02*
X0127741Y0143681D01*
X0127750Y0143689D02*
X0129347Y0143689D01*
X0129338Y0143698D02*
X0127758Y0143698D01*
X0127767Y0143706D02*
X0129330Y0143706D01*
X0129317Y0143715D02*
X0127779Y0143715D01*
X0127793Y0143724D02*
X0129304Y0143724D01*
X0129290Y0143732D02*
X0127806Y0143732D01*
X0127820Y0143741D02*
X0129277Y0143741D01*
X0129263Y0143749D02*
X0127833Y0143749D01*
X0127847Y0143758D02*
X0129250Y0143758D01*
X0129236Y0143766D02*
X0127860Y0143766D01*
X0127874Y0143775D02*
X0129223Y0143775D01*
X0129209Y0143783D02*
X0127887Y0143783D01*
X0127901Y0143792D02*
X0129195Y0143792D01*
X0129182Y0143800D02*
X0127915Y0143800D01*
X0127928Y0143809D02*
X0129168Y0143809D01*
X0129155Y0143817D02*
X0127942Y0143817D01*
X0127955Y0143826D02*
X0129141Y0143826D01*
X0129128Y0143834D02*
X0127969Y0143834D01*
X0127982Y0143843D02*
X0129114Y0143843D01*
X0129101Y0143851D02*
X0127996Y0143851D01*
X0128012Y0143860D02*
X0129084Y0143860D01*
X0129060Y0143868D02*
X0128037Y0143868D01*
X0128061Y0143877D02*
X0129036Y0143877D01*
X0129011Y0143885D02*
X0128085Y0143885D01*
X0128110Y0143894D02*
X0128987Y0143894D01*
X0128963Y0143902D02*
X0128134Y0143902D01*
X0128158Y0143911D02*
X0128938Y0143911D01*
X0128914Y0143919D02*
X0128183Y0143919D01*
X0128207Y0143928D02*
X0128890Y0143928D01*
X0128865Y0143936D02*
X0128231Y0143936D01*
X0128256Y0143945D02*
X0128841Y0143945D01*
X0128796Y0143953D02*
X0128301Y0143953D01*
X0128376Y0143962D02*
X0128720Y0143962D01*
X0128645Y0143970D02*
X0128452Y0143970D01*
X0128527Y0143979D02*
X0128569Y0143979D01*
X0129670Y0142183D02*
X0127426Y0142183D01*
X0127431Y0142174D02*
X0129665Y0142174D01*
X0129660Y0142166D02*
X0127437Y0142166D01*
X0127442Y0142157D02*
X0129654Y0142157D01*
X0129649Y0142148D02*
X0127447Y0142148D01*
X0127453Y0142140D02*
X0129644Y0142140D01*
X0129638Y0142131D02*
X0127458Y0142131D01*
X0127463Y0142123D02*
X0129633Y0142123D01*
X0129628Y0142114D02*
X0127469Y0142114D01*
X0127474Y0142106D02*
X0129622Y0142106D01*
X0129617Y0142097D02*
X0127480Y0142097D01*
X0127485Y0142089D02*
X0129612Y0142089D01*
X0129606Y0142080D02*
X0127490Y0142080D01*
X0127496Y0142072D02*
X0129601Y0142072D01*
X0129596Y0142063D02*
X0127501Y0142063D01*
X0127506Y0142055D02*
X0129590Y0142055D01*
X0129585Y0142046D02*
X0127512Y0142046D01*
X0127517Y0142038D02*
X0129579Y0142038D01*
X0129574Y0142029D02*
X0127522Y0142029D01*
X0127528Y0142021D02*
X0129569Y0142021D01*
X0129563Y0142012D02*
X0127533Y0142012D01*
X0127538Y0142004D02*
X0129558Y0142004D01*
X0129553Y0141995D02*
X0127544Y0141995D01*
X0127549Y0141987D02*
X0129547Y0141987D01*
X0129542Y0141978D02*
X0127554Y0141978D01*
X0127560Y0141970D02*
X0129537Y0141970D01*
X0129531Y0141961D02*
X0127565Y0141961D01*
X0127570Y0141953D02*
X0129526Y0141953D01*
X0129518Y0141944D02*
X0127579Y0141944D01*
X0127587Y0141936D02*
X0129509Y0141936D01*
X0129501Y0141927D02*
X0127596Y0141927D01*
X0127604Y0141919D02*
X0129492Y0141919D01*
X0129484Y0141910D02*
X0127613Y0141910D01*
X0127621Y0141902D02*
X0129475Y0141902D01*
X0129467Y0141893D02*
X0127630Y0141893D01*
X0127638Y0141885D02*
X0129458Y0141885D01*
X0129450Y0141876D02*
X0127647Y0141876D01*
X0127655Y0141868D02*
X0129441Y0141868D01*
X0129433Y0141859D02*
X0127664Y0141859D01*
X0127672Y0141850D02*
X0129424Y0141850D01*
X0129416Y0141842D02*
X0127681Y0141842D01*
X0127689Y0141833D02*
X0129407Y0141833D01*
X0129399Y0141825D02*
X0127698Y0141825D01*
X0127706Y0141816D02*
X0129390Y0141816D01*
X0129382Y0141808D02*
X0127715Y0141808D01*
X0127723Y0141799D02*
X0129373Y0141799D01*
X0129364Y0141791D02*
X0127732Y0141791D01*
X0127740Y0141782D02*
X0129356Y0141782D01*
X0129347Y0141774D02*
X0127749Y0141774D01*
X0127758Y0141765D02*
X0129339Y0141765D01*
X0129330Y0141757D02*
X0127766Y0141757D01*
X0127778Y0141748D02*
X0129319Y0141748D01*
X0129305Y0141740D02*
X0127791Y0141740D01*
X0127805Y0141731D02*
X0129291Y0141731D01*
X0129278Y0141723D02*
X0127819Y0141723D01*
X0127832Y0141714D02*
X0129264Y0141714D01*
X0129251Y0141706D02*
X0127846Y0141706D01*
X0127859Y0141697D02*
X0129237Y0141697D01*
X0129224Y0141689D02*
X0127873Y0141689D01*
X0127886Y0141680D02*
X0129210Y0141680D01*
X0129197Y0141672D02*
X0127900Y0141672D01*
X0127913Y0141663D02*
X0129183Y0141663D01*
X0129169Y0141655D02*
X0127927Y0141655D01*
X0127941Y0141646D02*
X0129156Y0141646D01*
X0129142Y0141638D02*
X0127954Y0141638D01*
X0127968Y0141629D02*
X0129129Y0141629D01*
X0129115Y0141621D02*
X0127981Y0141621D01*
X0127995Y0141612D02*
X0129102Y0141612D01*
X0129086Y0141604D02*
X0128010Y0141604D01*
X0128034Y0141595D02*
X0129062Y0141595D01*
X0129038Y0141587D02*
X0128059Y0141587D01*
X0128083Y0141578D02*
X0129013Y0141578D01*
X0128989Y0141570D02*
X0128107Y0141570D01*
X0128132Y0141561D02*
X0128965Y0141561D01*
X0128940Y0141553D02*
X0128156Y0141553D01*
X0128180Y0141544D02*
X0128916Y0141544D01*
X0128892Y0141535D02*
X0128205Y0141535D01*
X0128229Y0141527D02*
X0128867Y0141527D01*
X0128843Y0141518D02*
X0128253Y0141518D01*
X0128294Y0141510D02*
X0128802Y0141510D01*
X0128727Y0141501D02*
X0128370Y0141501D01*
X0128445Y0141493D02*
X0128651Y0141493D01*
X0128576Y0141484D02*
X0128521Y0141484D01*
X0205664Y0134168D02*
X0205696Y0133890D01*
X0208133Y0133890D01*
X0208164Y0134168D01*
X0208133Y0134446D01*
X0208041Y0134711D01*
X0207892Y0134948D01*
X0207694Y0135146D01*
X0207457Y0135295D01*
X0207193Y0135387D01*
X0206914Y0135418D01*
X0206636Y0135387D01*
X0206372Y0135295D01*
X0206135Y0135146D01*
X0205937Y0134948D01*
X0205788Y0134711D01*
X0205696Y0134446D01*
X0205664Y0134168D01*
X0205665Y0134171D02*
X0208164Y0134171D01*
X0208164Y0134163D02*
X0205665Y0134163D01*
X0205666Y0134154D02*
X0208163Y0134154D01*
X0208162Y0134146D02*
X0205667Y0134146D01*
X0205668Y0134137D02*
X0208161Y0134137D01*
X0208160Y0134128D02*
X0205669Y0134128D01*
X0205670Y0134120D02*
X0208159Y0134120D01*
X0208158Y0134111D02*
X0205671Y0134111D01*
X0205672Y0134103D02*
X0208157Y0134103D01*
X0208156Y0134094D02*
X0205673Y0134094D01*
X0205674Y0134086D02*
X0208155Y0134086D01*
X0208154Y0134077D02*
X0205675Y0134077D01*
X0205676Y0134069D02*
X0208153Y0134069D01*
X0208152Y0134060D02*
X0205677Y0134060D01*
X0205677Y0134052D02*
X0208151Y0134052D01*
X0208150Y0134043D02*
X0205678Y0134043D01*
X0205679Y0134035D02*
X0208149Y0134035D01*
X0208148Y0134026D02*
X0205680Y0134026D01*
X0205681Y0134018D02*
X0208147Y0134018D01*
X0208146Y0134009D02*
X0205682Y0134009D01*
X0205683Y0134001D02*
X0208145Y0134001D01*
X0208145Y0133992D02*
X0205684Y0133992D01*
X0205685Y0133984D02*
X0208144Y0133984D01*
X0208143Y0133975D02*
X0205686Y0133975D01*
X0205687Y0133967D02*
X0208142Y0133967D01*
X0208141Y0133958D02*
X0205688Y0133958D01*
X0205689Y0133950D02*
X0208140Y0133950D01*
X0208139Y0133941D02*
X0205690Y0133941D01*
X0205691Y0133933D02*
X0208138Y0133933D01*
X0208137Y0133924D02*
X0205692Y0133924D01*
X0205693Y0133916D02*
X0208136Y0133916D01*
X0208135Y0133907D02*
X0205694Y0133907D01*
X0205695Y0133899D02*
X0208134Y0133899D01*
X0208133Y0133890D02*
X0208041Y0133626D01*
X0205788Y0133626D01*
X0205937Y0133389D01*
X0206135Y0133191D01*
X0206372Y0133042D01*
X0206636Y0132950D01*
X0206914Y0132918D01*
X0207193Y0132950D01*
X0207457Y0133042D01*
X0207694Y0133191D01*
X0207892Y0133389D01*
X0208041Y0133626D01*
X0208044Y0133635D02*
X0205785Y0133635D01*
X0205782Y0133643D02*
X0208047Y0133643D01*
X0208050Y0133652D02*
X0205779Y0133652D01*
X0205776Y0133660D02*
X0208053Y0133660D01*
X0208056Y0133669D02*
X0205773Y0133669D01*
X0205770Y0133677D02*
X0208059Y0133677D01*
X0208062Y0133686D02*
X0205767Y0133686D01*
X0205764Y0133694D02*
X0208064Y0133694D01*
X0208067Y0133703D02*
X0205761Y0133703D01*
X0205758Y0133711D02*
X0208070Y0133711D01*
X0208073Y0133720D02*
X0205755Y0133720D01*
X0205752Y0133728D02*
X0208076Y0133728D01*
X0208079Y0133737D02*
X0205749Y0133737D01*
X0205746Y0133745D02*
X0208082Y0133745D01*
X0208085Y0133754D02*
X0205743Y0133754D01*
X0205740Y0133762D02*
X0208088Y0133762D01*
X0208091Y0133771D02*
X0205737Y0133771D01*
X0205734Y0133779D02*
X0208094Y0133779D01*
X0208097Y0133788D02*
X0205731Y0133788D01*
X0205728Y0133796D02*
X0208100Y0133796D01*
X0208103Y0133805D02*
X0205726Y0133805D01*
X0205723Y0133813D02*
X0208106Y0133813D01*
X0208109Y0133822D02*
X0205720Y0133822D01*
X0205717Y0133831D02*
X0208112Y0133831D01*
X0208115Y0133839D02*
X0205714Y0133839D01*
X0205711Y0133848D02*
X0208118Y0133848D01*
X0208121Y0133856D02*
X0205708Y0133856D01*
X0205705Y0133865D02*
X0208124Y0133865D01*
X0208127Y0133873D02*
X0205702Y0133873D01*
X0205699Y0133882D02*
X0208130Y0133882D01*
X0208035Y0133618D02*
X0205793Y0133618D01*
X0205788Y0133626D02*
X0205696Y0133890D01*
X0205666Y0134180D02*
X0208163Y0134180D01*
X0208162Y0134188D02*
X0205667Y0134188D01*
X0205668Y0134197D02*
X0208161Y0134197D01*
X0208160Y0134205D02*
X0205669Y0134205D01*
X0205669Y0134214D02*
X0208159Y0134214D01*
X0208158Y0134222D02*
X0205670Y0134222D01*
X0205671Y0134231D02*
X0208157Y0134231D01*
X0208156Y0134239D02*
X0205672Y0134239D01*
X0205673Y0134248D02*
X0208155Y0134248D01*
X0208154Y0134256D02*
X0205674Y0134256D01*
X0205675Y0134265D02*
X0208154Y0134265D01*
X0208153Y0134273D02*
X0205676Y0134273D01*
X0205677Y0134282D02*
X0208152Y0134282D01*
X0208151Y0134290D02*
X0205678Y0134290D01*
X0205679Y0134299D02*
X0208150Y0134299D01*
X0208149Y0134307D02*
X0205680Y0134307D01*
X0205681Y0134316D02*
X0208148Y0134316D01*
X0208147Y0134324D02*
X0205682Y0134324D01*
X0205683Y0134333D02*
X0208146Y0134333D01*
X0208145Y0134341D02*
X0205684Y0134341D01*
X0205685Y0134350D02*
X0208144Y0134350D01*
X0208143Y0134358D02*
X0205686Y0134358D01*
X0205687Y0134367D02*
X0208142Y0134367D01*
X0208141Y0134375D02*
X0205688Y0134375D01*
X0205689Y0134384D02*
X0208140Y0134384D01*
X0208139Y0134392D02*
X0205690Y0134392D01*
X0205691Y0134401D02*
X0208138Y0134401D01*
X0208137Y0134409D02*
X0205692Y0134409D01*
X0205693Y0134418D02*
X0208136Y0134418D01*
X0208135Y0134426D02*
X0205693Y0134426D01*
X0205694Y0134435D02*
X0208134Y0134435D01*
X0208133Y0134444D02*
X0205695Y0134444D01*
X0205698Y0134452D02*
X0208131Y0134452D01*
X0208128Y0134461D02*
X0205701Y0134461D01*
X0205704Y0134469D02*
X0208125Y0134469D01*
X0208122Y0134478D02*
X0205707Y0134478D01*
X0205710Y0134486D02*
X0208119Y0134486D01*
X0208116Y0134495D02*
X0205713Y0134495D01*
X0205716Y0134503D02*
X0208113Y0134503D01*
X0208110Y0134512D02*
X0205719Y0134512D01*
X0205721Y0134520D02*
X0208107Y0134520D01*
X0208104Y0134529D02*
X0205724Y0134529D01*
X0205727Y0134537D02*
X0208101Y0134537D01*
X0208098Y0134546D02*
X0205730Y0134546D01*
X0205733Y0134554D02*
X0208095Y0134554D01*
X0208092Y0134563D02*
X0205736Y0134563D01*
X0205739Y0134571D02*
X0208089Y0134571D01*
X0208086Y0134580D02*
X0205742Y0134580D01*
X0205745Y0134588D02*
X0208083Y0134588D01*
X0208080Y0134597D02*
X0205748Y0134597D01*
X0205751Y0134605D02*
X0208077Y0134605D01*
X0208074Y0134614D02*
X0205754Y0134614D01*
X0205757Y0134622D02*
X0208072Y0134622D01*
X0208069Y0134631D02*
X0205760Y0134631D01*
X0205763Y0134639D02*
X0208066Y0134639D01*
X0208063Y0134648D02*
X0205766Y0134648D01*
X0205769Y0134656D02*
X0208060Y0134656D01*
X0208057Y0134665D02*
X0205772Y0134665D01*
X0205775Y0134673D02*
X0208054Y0134673D01*
X0208051Y0134682D02*
X0205778Y0134682D01*
X0205781Y0134690D02*
X0208048Y0134690D01*
X0208045Y0134699D02*
X0205784Y0134699D01*
X0205787Y0134707D02*
X0208042Y0134707D01*
X0208037Y0134716D02*
X0205791Y0134716D01*
X0205797Y0134724D02*
X0208032Y0134724D01*
X0208027Y0134733D02*
X0205802Y0134733D01*
X0205808Y0134741D02*
X0208021Y0134741D01*
X0208016Y0134750D02*
X0205813Y0134750D01*
X0205818Y0134759D02*
X0208011Y0134759D01*
X0208005Y0134767D02*
X0205824Y0134767D01*
X0205829Y0134776D02*
X0208000Y0134776D01*
X0207994Y0134784D02*
X0205834Y0134784D01*
X0205840Y0134793D02*
X0207989Y0134793D01*
X0207984Y0134801D02*
X0205845Y0134801D01*
X0205850Y0134810D02*
X0207978Y0134810D01*
X0207973Y0134818D02*
X0205856Y0134818D01*
X0205861Y0134827D02*
X0207968Y0134827D01*
X0207962Y0134835D02*
X0205866Y0134835D01*
X0205872Y0134844D02*
X0207957Y0134844D01*
X0207952Y0134852D02*
X0205877Y0134852D01*
X0205882Y0134861D02*
X0207946Y0134861D01*
X0207941Y0134869D02*
X0205888Y0134869D01*
X0205893Y0134878D02*
X0207936Y0134878D01*
X0207930Y0134886D02*
X0205898Y0134886D01*
X0205904Y0134895D02*
X0207925Y0134895D01*
X0207920Y0134903D02*
X0205909Y0134903D01*
X0205915Y0134912D02*
X0207914Y0134912D01*
X0207909Y0134920D02*
X0205920Y0134920D01*
X0205925Y0134929D02*
X0207904Y0134929D01*
X0207898Y0134937D02*
X0205931Y0134937D01*
X0205936Y0134946D02*
X0207893Y0134946D01*
X0207885Y0134954D02*
X0205944Y0134954D01*
X0205952Y0134963D02*
X0207876Y0134963D01*
X0207868Y0134971D02*
X0205961Y0134971D01*
X0205969Y0134980D02*
X0207859Y0134980D01*
X0207851Y0134988D02*
X0205978Y0134988D01*
X0205986Y0134997D02*
X0207842Y0134997D01*
X0207834Y0135005D02*
X0205995Y0135005D01*
X0206003Y0135014D02*
X0207825Y0135014D01*
X0207817Y0135022D02*
X0206012Y0135022D01*
X0206020Y0135031D02*
X0207808Y0135031D01*
X0207800Y0135039D02*
X0206029Y0135039D01*
X0206037Y0135048D02*
X0207791Y0135048D01*
X0207783Y0135056D02*
X0206046Y0135056D01*
X0206054Y0135065D02*
X0207774Y0135065D01*
X0207766Y0135074D02*
X0206063Y0135074D01*
X0206071Y0135082D02*
X0207757Y0135082D01*
X0207749Y0135091D02*
X0206080Y0135091D01*
X0206088Y0135099D02*
X0207740Y0135099D01*
X0207732Y0135108D02*
X0206097Y0135108D01*
X0206105Y0135116D02*
X0207723Y0135116D01*
X0207715Y0135125D02*
X0206114Y0135125D01*
X0206123Y0135133D02*
X0207706Y0135133D01*
X0207698Y0135142D02*
X0206131Y0135142D01*
X0206142Y0135150D02*
X0207687Y0135150D01*
X0207673Y0135159D02*
X0206156Y0135159D01*
X0206169Y0135167D02*
X0207659Y0135167D01*
X0207646Y0135176D02*
X0206183Y0135176D01*
X0206196Y0135184D02*
X0207632Y0135184D01*
X0207619Y0135193D02*
X0206210Y0135193D01*
X0206224Y0135201D02*
X0207605Y0135201D01*
X0207592Y0135210D02*
X0206237Y0135210D01*
X0206251Y0135218D02*
X0207578Y0135218D01*
X0207565Y0135227D02*
X0206264Y0135227D01*
X0206278Y0135235D02*
X0207551Y0135235D01*
X0207537Y0135244D02*
X0206291Y0135244D01*
X0206305Y0135252D02*
X0207524Y0135252D01*
X0207510Y0135261D02*
X0206318Y0135261D01*
X0206332Y0135269D02*
X0207497Y0135269D01*
X0207483Y0135278D02*
X0206346Y0135278D01*
X0206359Y0135286D02*
X0207470Y0135286D01*
X0207456Y0135295D02*
X0206373Y0135295D01*
X0206397Y0135303D02*
X0207431Y0135303D01*
X0207407Y0135312D02*
X0206422Y0135312D01*
X0206446Y0135320D02*
X0207383Y0135320D01*
X0207358Y0135329D02*
X0206470Y0135329D01*
X0206495Y0135337D02*
X0207334Y0135337D01*
X0207310Y0135346D02*
X0206519Y0135346D01*
X0206543Y0135354D02*
X0207285Y0135354D01*
X0207261Y0135363D02*
X0206568Y0135363D01*
X0206592Y0135372D02*
X0207237Y0135372D01*
X0207212Y0135380D02*
X0206616Y0135380D01*
X0206650Y0135389D02*
X0207179Y0135389D01*
X0207103Y0135397D02*
X0206726Y0135397D01*
X0206801Y0135406D02*
X0207028Y0135406D01*
X0206952Y0135414D02*
X0206877Y0135414D01*
X0205799Y0133609D02*
X0208030Y0133609D01*
X0208025Y0133601D02*
X0205804Y0133601D01*
X0205809Y0133592D02*
X0208019Y0133592D01*
X0208014Y0133584D02*
X0205815Y0133584D01*
X0205820Y0133575D02*
X0208009Y0133575D01*
X0208003Y0133567D02*
X0205825Y0133567D01*
X0205831Y0133558D02*
X0207998Y0133558D01*
X0207993Y0133550D02*
X0205836Y0133550D01*
X0205842Y0133541D02*
X0207987Y0133541D01*
X0207982Y0133533D02*
X0205847Y0133533D01*
X0205852Y0133524D02*
X0207977Y0133524D01*
X0207971Y0133516D02*
X0205858Y0133516D01*
X0205863Y0133507D02*
X0207966Y0133507D01*
X0207960Y0133498D02*
X0205868Y0133498D01*
X0205874Y0133490D02*
X0207955Y0133490D01*
X0207950Y0133481D02*
X0205879Y0133481D01*
X0205884Y0133473D02*
X0207944Y0133473D01*
X0207939Y0133464D02*
X0205890Y0133464D01*
X0205895Y0133456D02*
X0207934Y0133456D01*
X0207928Y0133447D02*
X0205900Y0133447D01*
X0205906Y0133439D02*
X0207923Y0133439D01*
X0207918Y0133430D02*
X0205911Y0133430D01*
X0205916Y0133422D02*
X0207912Y0133422D01*
X0207907Y0133413D02*
X0205922Y0133413D01*
X0205927Y0133405D02*
X0207902Y0133405D01*
X0207896Y0133396D02*
X0205932Y0133396D01*
X0205938Y0133388D02*
X0207891Y0133388D01*
X0207882Y0133379D02*
X0205947Y0133379D01*
X0205955Y0133371D02*
X0207873Y0133371D01*
X0207865Y0133362D02*
X0205964Y0133362D01*
X0205972Y0133354D02*
X0207856Y0133354D01*
X0207848Y0133345D02*
X0205981Y0133345D01*
X0205989Y0133337D02*
X0207839Y0133337D01*
X0207831Y0133328D02*
X0205998Y0133328D01*
X0206006Y0133320D02*
X0207822Y0133320D01*
X0207814Y0133311D02*
X0206015Y0133311D01*
X0206023Y0133303D02*
X0207805Y0133303D01*
X0207797Y0133294D02*
X0206032Y0133294D01*
X0206040Y0133286D02*
X0207788Y0133286D01*
X0207780Y0133277D02*
X0206049Y0133277D01*
X0206057Y0133269D02*
X0207771Y0133269D01*
X0207763Y0133260D02*
X0206066Y0133260D01*
X0206074Y0133252D02*
X0207754Y0133252D01*
X0207746Y0133243D02*
X0206083Y0133243D01*
X0206091Y0133235D02*
X0207737Y0133235D01*
X0207729Y0133226D02*
X0206100Y0133226D01*
X0206109Y0133218D02*
X0207720Y0133218D01*
X0207712Y0133209D02*
X0206117Y0133209D01*
X0206126Y0133200D02*
X0207703Y0133200D01*
X0207695Y0133192D02*
X0206134Y0133192D01*
X0206147Y0133183D02*
X0207682Y0133183D01*
X0207668Y0133175D02*
X0206161Y0133175D01*
X0206174Y0133166D02*
X0207655Y0133166D01*
X0207641Y0133158D02*
X0206188Y0133158D01*
X0206201Y0133149D02*
X0207628Y0133149D01*
X0207614Y0133141D02*
X0206215Y0133141D01*
X0206228Y0133132D02*
X0207600Y0133132D01*
X0207587Y0133124D02*
X0206242Y0133124D01*
X0206255Y0133115D02*
X0207573Y0133115D01*
X0207560Y0133107D02*
X0206269Y0133107D01*
X0206283Y0133098D02*
X0207546Y0133098D01*
X0207533Y0133090D02*
X0206296Y0133090D01*
X0206310Y0133081D02*
X0207519Y0133081D01*
X0207506Y0133073D02*
X0206323Y0133073D01*
X0206337Y0133064D02*
X0207492Y0133064D01*
X0207478Y0133056D02*
X0206350Y0133056D01*
X0206364Y0133047D02*
X0207465Y0133047D01*
X0207447Y0133039D02*
X0206382Y0133039D01*
X0206406Y0133030D02*
X0207423Y0133030D01*
X0207398Y0133022D02*
X0206430Y0133022D01*
X0206455Y0133013D02*
X0207374Y0133013D01*
X0207350Y0133005D02*
X0206479Y0133005D01*
X0206503Y0132996D02*
X0207325Y0132996D01*
X0207301Y0132988D02*
X0206528Y0132988D01*
X0206552Y0132979D02*
X0207277Y0132979D01*
X0207252Y0132971D02*
X0206576Y0132971D01*
X0206601Y0132962D02*
X0207228Y0132962D01*
X0207204Y0132954D02*
X0206625Y0132954D01*
X0206677Y0132945D02*
X0207152Y0132945D01*
X0207076Y0132937D02*
X0206752Y0132937D01*
X0206828Y0132928D02*
X0207001Y0132928D01*
X0206925Y0132920D02*
X0206903Y0132920D01*
M02*
