%
M48
M72
T01C0.01181
T02C0.02756
T03C0.04000
T04C0.05118
T05C0.12598
%
T01
X174291Y91614
X154606Y91614
X134921Y91614
X119173Y91614
X103425Y91614
X91614Y91614
X79803Y91614
X79803Y111299
X91614Y111299
X103425Y111299
X119173Y111299
X134921Y111299
X154606Y111299
X174291Y111299
X181772Y138465
X201850Y158543
X194764Y159331
X193976Y174291
X201850Y174291
X201850Y182165
X193976Y182165
X201850Y190039
X201850Y197913
X213661Y197913
X213661Y190039
X225472Y190039
X225472Y197913
X237283Y197913
X237283Y190039
X249094Y190039
X249094Y197913
X241220Y166417
X233346Y166417
X233346Y138858
X217598Y138858
X217598Y123110
X233346Y123110
X249094Y123110
X249094Y138858
X163268Y161299
X136890Y154213
X121929Y176654
X130984Y178228
X123110Y186102
X115236Y193976
X99488Y182165
X91614Y190039
X97126Y174291
X87677Y166417
X79803Y174291
X71929Y182165
X56181Y170354
X64055Y162480
X107362Y174291
X28622Y197913
X20748Y197913
T02
X229409Y156417
X229409Y176417
T03
X37953Y206693
X47900Y206700
X57900Y206700
X67900Y206700
X77900Y206700
X87900Y206700
X97900Y206700
X107900Y206700
X117900Y206700
X127900Y206700
X137900Y206700
X147900Y206700
X157900Y206700
X167900Y206700
X177900Y206700
X187900Y206700
X197900Y206700
X207900Y206700
X217900Y206700
X227900Y206700
X227900Y216700
X217900Y216700
X207900Y216700
X197900Y216700
X187900Y216700
X177900Y216700
X167900Y216700
X157900Y216700
X147900Y216700
X137900Y216700
X127900Y216700
X117900Y216700
X107900Y216700
X97900Y216700
X87900Y216700
X77900Y216700
X67900Y216700
X57900Y216700
X47900Y216700
X37900Y216700
T04
X20748Y111299
X20748Y130984
X20748Y162480
X20748Y182165
T05
X247126Y18780
X247126Y211693
X18780Y211693
X18780Y18780
M30
