G75*
%MOIN*%
%OFA0B0*%
%FSLAX25Y25*%
%IPPOS*%
%LPD*%
%AMOC8*
5,1,8,0,0,1.08239X$1,22.5*
%
%ADD10C,0.00000*%
%ADD11R,0.05524X0.03950*%
%ADD12R,0.08800X0.08800*%
%ADD13C,0.08800*%
%ADD14R,0.06800X0.06800*%
%ADD15C,0.06800*%
%ADD16C,0.13398*%
%ADD17R,0.05524X0.03162*%
%ADD18C,0.07300*%
D10*
X0020748Y0005000D02*
X0245157Y0005000D01*
X0240827Y0018780D02*
X0240829Y0018938D01*
X0240835Y0019096D01*
X0240845Y0019254D01*
X0240859Y0019412D01*
X0240877Y0019569D01*
X0240898Y0019726D01*
X0240924Y0019882D01*
X0240954Y0020038D01*
X0240987Y0020193D01*
X0241025Y0020346D01*
X0241066Y0020499D01*
X0241111Y0020651D01*
X0241160Y0020802D01*
X0241213Y0020951D01*
X0241269Y0021099D01*
X0241329Y0021245D01*
X0241393Y0021390D01*
X0241461Y0021533D01*
X0241532Y0021675D01*
X0241606Y0021815D01*
X0241684Y0021952D01*
X0241766Y0022088D01*
X0241850Y0022222D01*
X0241939Y0022353D01*
X0242030Y0022482D01*
X0242125Y0022609D01*
X0242222Y0022734D01*
X0242323Y0022856D01*
X0242427Y0022975D01*
X0242534Y0023092D01*
X0242644Y0023206D01*
X0242757Y0023317D01*
X0242872Y0023426D01*
X0242990Y0023531D01*
X0243111Y0023633D01*
X0243234Y0023733D01*
X0243360Y0023829D01*
X0243488Y0023922D01*
X0243618Y0024012D01*
X0243751Y0024098D01*
X0243886Y0024182D01*
X0244022Y0024261D01*
X0244161Y0024338D01*
X0244302Y0024410D01*
X0244444Y0024480D01*
X0244588Y0024545D01*
X0244734Y0024607D01*
X0244881Y0024665D01*
X0245030Y0024720D01*
X0245180Y0024771D01*
X0245331Y0024818D01*
X0245483Y0024861D01*
X0245636Y0024900D01*
X0245791Y0024936D01*
X0245946Y0024967D01*
X0246102Y0024995D01*
X0246258Y0025019D01*
X0246415Y0025039D01*
X0246573Y0025055D01*
X0246730Y0025067D01*
X0246889Y0025075D01*
X0247047Y0025079D01*
X0247205Y0025079D01*
X0247363Y0025075D01*
X0247522Y0025067D01*
X0247679Y0025055D01*
X0247837Y0025039D01*
X0247994Y0025019D01*
X0248150Y0024995D01*
X0248306Y0024967D01*
X0248461Y0024936D01*
X0248616Y0024900D01*
X0248769Y0024861D01*
X0248921Y0024818D01*
X0249072Y0024771D01*
X0249222Y0024720D01*
X0249371Y0024665D01*
X0249518Y0024607D01*
X0249664Y0024545D01*
X0249808Y0024480D01*
X0249950Y0024410D01*
X0250091Y0024338D01*
X0250230Y0024261D01*
X0250366Y0024182D01*
X0250501Y0024098D01*
X0250634Y0024012D01*
X0250764Y0023922D01*
X0250892Y0023829D01*
X0251018Y0023733D01*
X0251141Y0023633D01*
X0251262Y0023531D01*
X0251380Y0023426D01*
X0251495Y0023317D01*
X0251608Y0023206D01*
X0251718Y0023092D01*
X0251825Y0022975D01*
X0251929Y0022856D01*
X0252030Y0022734D01*
X0252127Y0022609D01*
X0252222Y0022482D01*
X0252313Y0022353D01*
X0252402Y0022222D01*
X0252486Y0022088D01*
X0252568Y0021952D01*
X0252646Y0021815D01*
X0252720Y0021675D01*
X0252791Y0021533D01*
X0252859Y0021390D01*
X0252923Y0021245D01*
X0252983Y0021099D01*
X0253039Y0020951D01*
X0253092Y0020802D01*
X0253141Y0020651D01*
X0253186Y0020499D01*
X0253227Y0020346D01*
X0253265Y0020193D01*
X0253298Y0020038D01*
X0253328Y0019882D01*
X0253354Y0019726D01*
X0253375Y0019569D01*
X0253393Y0019412D01*
X0253407Y0019254D01*
X0253417Y0019096D01*
X0253423Y0018938D01*
X0253425Y0018780D01*
X0253423Y0018622D01*
X0253417Y0018464D01*
X0253407Y0018306D01*
X0253393Y0018148D01*
X0253375Y0017991D01*
X0253354Y0017834D01*
X0253328Y0017678D01*
X0253298Y0017522D01*
X0253265Y0017367D01*
X0253227Y0017214D01*
X0253186Y0017061D01*
X0253141Y0016909D01*
X0253092Y0016758D01*
X0253039Y0016609D01*
X0252983Y0016461D01*
X0252923Y0016315D01*
X0252859Y0016170D01*
X0252791Y0016027D01*
X0252720Y0015885D01*
X0252646Y0015745D01*
X0252568Y0015608D01*
X0252486Y0015472D01*
X0252402Y0015338D01*
X0252313Y0015207D01*
X0252222Y0015078D01*
X0252127Y0014951D01*
X0252030Y0014826D01*
X0251929Y0014704D01*
X0251825Y0014585D01*
X0251718Y0014468D01*
X0251608Y0014354D01*
X0251495Y0014243D01*
X0251380Y0014134D01*
X0251262Y0014029D01*
X0251141Y0013927D01*
X0251018Y0013827D01*
X0250892Y0013731D01*
X0250764Y0013638D01*
X0250634Y0013548D01*
X0250501Y0013462D01*
X0250366Y0013378D01*
X0250230Y0013299D01*
X0250091Y0013222D01*
X0249950Y0013150D01*
X0249808Y0013080D01*
X0249664Y0013015D01*
X0249518Y0012953D01*
X0249371Y0012895D01*
X0249222Y0012840D01*
X0249072Y0012789D01*
X0248921Y0012742D01*
X0248769Y0012699D01*
X0248616Y0012660D01*
X0248461Y0012624D01*
X0248306Y0012593D01*
X0248150Y0012565D01*
X0247994Y0012541D01*
X0247837Y0012521D01*
X0247679Y0012505D01*
X0247522Y0012493D01*
X0247363Y0012485D01*
X0247205Y0012481D01*
X0247047Y0012481D01*
X0246889Y0012485D01*
X0246730Y0012493D01*
X0246573Y0012505D01*
X0246415Y0012521D01*
X0246258Y0012541D01*
X0246102Y0012565D01*
X0245946Y0012593D01*
X0245791Y0012624D01*
X0245636Y0012660D01*
X0245483Y0012699D01*
X0245331Y0012742D01*
X0245180Y0012789D01*
X0245030Y0012840D01*
X0244881Y0012895D01*
X0244734Y0012953D01*
X0244588Y0013015D01*
X0244444Y0013080D01*
X0244302Y0013150D01*
X0244161Y0013222D01*
X0244022Y0013299D01*
X0243886Y0013378D01*
X0243751Y0013462D01*
X0243618Y0013548D01*
X0243488Y0013638D01*
X0243360Y0013731D01*
X0243234Y0013827D01*
X0243111Y0013927D01*
X0242990Y0014029D01*
X0242872Y0014134D01*
X0242757Y0014243D01*
X0242644Y0014354D01*
X0242534Y0014468D01*
X0242427Y0014585D01*
X0242323Y0014704D01*
X0242222Y0014826D01*
X0242125Y0014951D01*
X0242030Y0015078D01*
X0241939Y0015207D01*
X0241850Y0015338D01*
X0241766Y0015472D01*
X0241684Y0015608D01*
X0241606Y0015745D01*
X0241532Y0015885D01*
X0241461Y0016027D01*
X0241393Y0016170D01*
X0241329Y0016315D01*
X0241269Y0016461D01*
X0241213Y0016609D01*
X0241160Y0016758D01*
X0241111Y0016909D01*
X0241066Y0017061D01*
X0241025Y0017214D01*
X0240987Y0017367D01*
X0240954Y0017522D01*
X0240924Y0017678D01*
X0240898Y0017834D01*
X0240877Y0017991D01*
X0240859Y0018148D01*
X0240845Y0018306D01*
X0240835Y0018464D01*
X0240829Y0018622D01*
X0240827Y0018780D01*
X0245157Y0005000D02*
X0245538Y0005005D01*
X0245918Y0005018D01*
X0246298Y0005041D01*
X0246677Y0005074D01*
X0247055Y0005115D01*
X0247432Y0005165D01*
X0247808Y0005225D01*
X0248183Y0005293D01*
X0248555Y0005371D01*
X0248926Y0005458D01*
X0249294Y0005553D01*
X0249660Y0005658D01*
X0250023Y0005771D01*
X0250384Y0005893D01*
X0250741Y0006023D01*
X0251095Y0006163D01*
X0251446Y0006310D01*
X0251793Y0006467D01*
X0252136Y0006631D01*
X0252475Y0006804D01*
X0252810Y0006985D01*
X0253141Y0007174D01*
X0253466Y0007371D01*
X0253787Y0007575D01*
X0254103Y0007788D01*
X0254413Y0008008D01*
X0254719Y0008235D01*
X0255018Y0008470D01*
X0255312Y0008712D01*
X0255600Y0008960D01*
X0255882Y0009216D01*
X0256157Y0009479D01*
X0256426Y0009748D01*
X0256689Y0010023D01*
X0256945Y0010305D01*
X0257193Y0010593D01*
X0257435Y0010887D01*
X0257670Y0011186D01*
X0257897Y0011492D01*
X0258117Y0011802D01*
X0258330Y0012118D01*
X0258534Y0012439D01*
X0258731Y0012764D01*
X0258920Y0013095D01*
X0259101Y0013430D01*
X0259274Y0013769D01*
X0259438Y0014112D01*
X0259595Y0014459D01*
X0259742Y0014810D01*
X0259882Y0015164D01*
X0260012Y0015521D01*
X0260134Y0015882D01*
X0260247Y0016245D01*
X0260352Y0016611D01*
X0260447Y0016979D01*
X0260534Y0017350D01*
X0260612Y0017722D01*
X0260680Y0018097D01*
X0260740Y0018473D01*
X0260790Y0018850D01*
X0260831Y0019228D01*
X0260864Y0019607D01*
X0260887Y0019987D01*
X0260900Y0020367D01*
X0260905Y0020748D01*
X0260906Y0020748D02*
X0260906Y0209724D01*
X0240827Y0211693D02*
X0240829Y0211851D01*
X0240835Y0212009D01*
X0240845Y0212167D01*
X0240859Y0212325D01*
X0240877Y0212482D01*
X0240898Y0212639D01*
X0240924Y0212795D01*
X0240954Y0212951D01*
X0240987Y0213106D01*
X0241025Y0213259D01*
X0241066Y0213412D01*
X0241111Y0213564D01*
X0241160Y0213715D01*
X0241213Y0213864D01*
X0241269Y0214012D01*
X0241329Y0214158D01*
X0241393Y0214303D01*
X0241461Y0214446D01*
X0241532Y0214588D01*
X0241606Y0214728D01*
X0241684Y0214865D01*
X0241766Y0215001D01*
X0241850Y0215135D01*
X0241939Y0215266D01*
X0242030Y0215395D01*
X0242125Y0215522D01*
X0242222Y0215647D01*
X0242323Y0215769D01*
X0242427Y0215888D01*
X0242534Y0216005D01*
X0242644Y0216119D01*
X0242757Y0216230D01*
X0242872Y0216339D01*
X0242990Y0216444D01*
X0243111Y0216546D01*
X0243234Y0216646D01*
X0243360Y0216742D01*
X0243488Y0216835D01*
X0243618Y0216925D01*
X0243751Y0217011D01*
X0243886Y0217095D01*
X0244022Y0217174D01*
X0244161Y0217251D01*
X0244302Y0217323D01*
X0244444Y0217393D01*
X0244588Y0217458D01*
X0244734Y0217520D01*
X0244881Y0217578D01*
X0245030Y0217633D01*
X0245180Y0217684D01*
X0245331Y0217731D01*
X0245483Y0217774D01*
X0245636Y0217813D01*
X0245791Y0217849D01*
X0245946Y0217880D01*
X0246102Y0217908D01*
X0246258Y0217932D01*
X0246415Y0217952D01*
X0246573Y0217968D01*
X0246730Y0217980D01*
X0246889Y0217988D01*
X0247047Y0217992D01*
X0247205Y0217992D01*
X0247363Y0217988D01*
X0247522Y0217980D01*
X0247679Y0217968D01*
X0247837Y0217952D01*
X0247994Y0217932D01*
X0248150Y0217908D01*
X0248306Y0217880D01*
X0248461Y0217849D01*
X0248616Y0217813D01*
X0248769Y0217774D01*
X0248921Y0217731D01*
X0249072Y0217684D01*
X0249222Y0217633D01*
X0249371Y0217578D01*
X0249518Y0217520D01*
X0249664Y0217458D01*
X0249808Y0217393D01*
X0249950Y0217323D01*
X0250091Y0217251D01*
X0250230Y0217174D01*
X0250366Y0217095D01*
X0250501Y0217011D01*
X0250634Y0216925D01*
X0250764Y0216835D01*
X0250892Y0216742D01*
X0251018Y0216646D01*
X0251141Y0216546D01*
X0251262Y0216444D01*
X0251380Y0216339D01*
X0251495Y0216230D01*
X0251608Y0216119D01*
X0251718Y0216005D01*
X0251825Y0215888D01*
X0251929Y0215769D01*
X0252030Y0215647D01*
X0252127Y0215522D01*
X0252222Y0215395D01*
X0252313Y0215266D01*
X0252402Y0215135D01*
X0252486Y0215001D01*
X0252568Y0214865D01*
X0252646Y0214728D01*
X0252720Y0214588D01*
X0252791Y0214446D01*
X0252859Y0214303D01*
X0252923Y0214158D01*
X0252983Y0214012D01*
X0253039Y0213864D01*
X0253092Y0213715D01*
X0253141Y0213564D01*
X0253186Y0213412D01*
X0253227Y0213259D01*
X0253265Y0213106D01*
X0253298Y0212951D01*
X0253328Y0212795D01*
X0253354Y0212639D01*
X0253375Y0212482D01*
X0253393Y0212325D01*
X0253407Y0212167D01*
X0253417Y0212009D01*
X0253423Y0211851D01*
X0253425Y0211693D01*
X0253423Y0211535D01*
X0253417Y0211377D01*
X0253407Y0211219D01*
X0253393Y0211061D01*
X0253375Y0210904D01*
X0253354Y0210747D01*
X0253328Y0210591D01*
X0253298Y0210435D01*
X0253265Y0210280D01*
X0253227Y0210127D01*
X0253186Y0209974D01*
X0253141Y0209822D01*
X0253092Y0209671D01*
X0253039Y0209522D01*
X0252983Y0209374D01*
X0252923Y0209228D01*
X0252859Y0209083D01*
X0252791Y0208940D01*
X0252720Y0208798D01*
X0252646Y0208658D01*
X0252568Y0208521D01*
X0252486Y0208385D01*
X0252402Y0208251D01*
X0252313Y0208120D01*
X0252222Y0207991D01*
X0252127Y0207864D01*
X0252030Y0207739D01*
X0251929Y0207617D01*
X0251825Y0207498D01*
X0251718Y0207381D01*
X0251608Y0207267D01*
X0251495Y0207156D01*
X0251380Y0207047D01*
X0251262Y0206942D01*
X0251141Y0206840D01*
X0251018Y0206740D01*
X0250892Y0206644D01*
X0250764Y0206551D01*
X0250634Y0206461D01*
X0250501Y0206375D01*
X0250366Y0206291D01*
X0250230Y0206212D01*
X0250091Y0206135D01*
X0249950Y0206063D01*
X0249808Y0205993D01*
X0249664Y0205928D01*
X0249518Y0205866D01*
X0249371Y0205808D01*
X0249222Y0205753D01*
X0249072Y0205702D01*
X0248921Y0205655D01*
X0248769Y0205612D01*
X0248616Y0205573D01*
X0248461Y0205537D01*
X0248306Y0205506D01*
X0248150Y0205478D01*
X0247994Y0205454D01*
X0247837Y0205434D01*
X0247679Y0205418D01*
X0247522Y0205406D01*
X0247363Y0205398D01*
X0247205Y0205394D01*
X0247047Y0205394D01*
X0246889Y0205398D01*
X0246730Y0205406D01*
X0246573Y0205418D01*
X0246415Y0205434D01*
X0246258Y0205454D01*
X0246102Y0205478D01*
X0245946Y0205506D01*
X0245791Y0205537D01*
X0245636Y0205573D01*
X0245483Y0205612D01*
X0245331Y0205655D01*
X0245180Y0205702D01*
X0245030Y0205753D01*
X0244881Y0205808D01*
X0244734Y0205866D01*
X0244588Y0205928D01*
X0244444Y0205993D01*
X0244302Y0206063D01*
X0244161Y0206135D01*
X0244022Y0206212D01*
X0243886Y0206291D01*
X0243751Y0206375D01*
X0243618Y0206461D01*
X0243488Y0206551D01*
X0243360Y0206644D01*
X0243234Y0206740D01*
X0243111Y0206840D01*
X0242990Y0206942D01*
X0242872Y0207047D01*
X0242757Y0207156D01*
X0242644Y0207267D01*
X0242534Y0207381D01*
X0242427Y0207498D01*
X0242323Y0207617D01*
X0242222Y0207739D01*
X0242125Y0207864D01*
X0242030Y0207991D01*
X0241939Y0208120D01*
X0241850Y0208251D01*
X0241766Y0208385D01*
X0241684Y0208521D01*
X0241606Y0208658D01*
X0241532Y0208798D01*
X0241461Y0208940D01*
X0241393Y0209083D01*
X0241329Y0209228D01*
X0241269Y0209374D01*
X0241213Y0209522D01*
X0241160Y0209671D01*
X0241111Y0209822D01*
X0241066Y0209974D01*
X0241025Y0210127D01*
X0240987Y0210280D01*
X0240954Y0210435D01*
X0240924Y0210591D01*
X0240898Y0210747D01*
X0240877Y0210904D01*
X0240859Y0211061D01*
X0240845Y0211219D01*
X0240835Y0211377D01*
X0240829Y0211535D01*
X0240827Y0211693D01*
X0245157Y0225472D02*
X0245538Y0225467D01*
X0245918Y0225454D01*
X0246298Y0225431D01*
X0246677Y0225398D01*
X0247055Y0225357D01*
X0247432Y0225307D01*
X0247808Y0225247D01*
X0248183Y0225179D01*
X0248555Y0225101D01*
X0248926Y0225014D01*
X0249294Y0224919D01*
X0249660Y0224814D01*
X0250023Y0224701D01*
X0250384Y0224579D01*
X0250741Y0224449D01*
X0251095Y0224309D01*
X0251446Y0224162D01*
X0251793Y0224005D01*
X0252136Y0223841D01*
X0252475Y0223668D01*
X0252810Y0223487D01*
X0253141Y0223298D01*
X0253466Y0223101D01*
X0253787Y0222897D01*
X0254103Y0222684D01*
X0254413Y0222464D01*
X0254719Y0222237D01*
X0255018Y0222002D01*
X0255312Y0221760D01*
X0255600Y0221512D01*
X0255882Y0221256D01*
X0256157Y0220993D01*
X0256426Y0220724D01*
X0256689Y0220449D01*
X0256945Y0220167D01*
X0257193Y0219879D01*
X0257435Y0219585D01*
X0257670Y0219286D01*
X0257897Y0218980D01*
X0258117Y0218670D01*
X0258330Y0218354D01*
X0258534Y0218033D01*
X0258731Y0217708D01*
X0258920Y0217377D01*
X0259101Y0217042D01*
X0259274Y0216703D01*
X0259438Y0216360D01*
X0259595Y0216013D01*
X0259742Y0215662D01*
X0259882Y0215308D01*
X0260012Y0214951D01*
X0260134Y0214590D01*
X0260247Y0214227D01*
X0260352Y0213861D01*
X0260447Y0213493D01*
X0260534Y0213122D01*
X0260612Y0212750D01*
X0260680Y0212375D01*
X0260740Y0211999D01*
X0260790Y0211622D01*
X0260831Y0211244D01*
X0260864Y0210865D01*
X0260887Y0210485D01*
X0260900Y0210105D01*
X0260905Y0209724D01*
X0245157Y0225472D02*
X0020748Y0225472D01*
X0012481Y0211693D02*
X0012483Y0211851D01*
X0012489Y0212009D01*
X0012499Y0212167D01*
X0012513Y0212325D01*
X0012531Y0212482D01*
X0012552Y0212639D01*
X0012578Y0212795D01*
X0012608Y0212951D01*
X0012641Y0213106D01*
X0012679Y0213259D01*
X0012720Y0213412D01*
X0012765Y0213564D01*
X0012814Y0213715D01*
X0012867Y0213864D01*
X0012923Y0214012D01*
X0012983Y0214158D01*
X0013047Y0214303D01*
X0013115Y0214446D01*
X0013186Y0214588D01*
X0013260Y0214728D01*
X0013338Y0214865D01*
X0013420Y0215001D01*
X0013504Y0215135D01*
X0013593Y0215266D01*
X0013684Y0215395D01*
X0013779Y0215522D01*
X0013876Y0215647D01*
X0013977Y0215769D01*
X0014081Y0215888D01*
X0014188Y0216005D01*
X0014298Y0216119D01*
X0014411Y0216230D01*
X0014526Y0216339D01*
X0014644Y0216444D01*
X0014765Y0216546D01*
X0014888Y0216646D01*
X0015014Y0216742D01*
X0015142Y0216835D01*
X0015272Y0216925D01*
X0015405Y0217011D01*
X0015540Y0217095D01*
X0015676Y0217174D01*
X0015815Y0217251D01*
X0015956Y0217323D01*
X0016098Y0217393D01*
X0016242Y0217458D01*
X0016388Y0217520D01*
X0016535Y0217578D01*
X0016684Y0217633D01*
X0016834Y0217684D01*
X0016985Y0217731D01*
X0017137Y0217774D01*
X0017290Y0217813D01*
X0017445Y0217849D01*
X0017600Y0217880D01*
X0017756Y0217908D01*
X0017912Y0217932D01*
X0018069Y0217952D01*
X0018227Y0217968D01*
X0018384Y0217980D01*
X0018543Y0217988D01*
X0018701Y0217992D01*
X0018859Y0217992D01*
X0019017Y0217988D01*
X0019176Y0217980D01*
X0019333Y0217968D01*
X0019491Y0217952D01*
X0019648Y0217932D01*
X0019804Y0217908D01*
X0019960Y0217880D01*
X0020115Y0217849D01*
X0020270Y0217813D01*
X0020423Y0217774D01*
X0020575Y0217731D01*
X0020726Y0217684D01*
X0020876Y0217633D01*
X0021025Y0217578D01*
X0021172Y0217520D01*
X0021318Y0217458D01*
X0021462Y0217393D01*
X0021604Y0217323D01*
X0021745Y0217251D01*
X0021884Y0217174D01*
X0022020Y0217095D01*
X0022155Y0217011D01*
X0022288Y0216925D01*
X0022418Y0216835D01*
X0022546Y0216742D01*
X0022672Y0216646D01*
X0022795Y0216546D01*
X0022916Y0216444D01*
X0023034Y0216339D01*
X0023149Y0216230D01*
X0023262Y0216119D01*
X0023372Y0216005D01*
X0023479Y0215888D01*
X0023583Y0215769D01*
X0023684Y0215647D01*
X0023781Y0215522D01*
X0023876Y0215395D01*
X0023967Y0215266D01*
X0024056Y0215135D01*
X0024140Y0215001D01*
X0024222Y0214865D01*
X0024300Y0214728D01*
X0024374Y0214588D01*
X0024445Y0214446D01*
X0024513Y0214303D01*
X0024577Y0214158D01*
X0024637Y0214012D01*
X0024693Y0213864D01*
X0024746Y0213715D01*
X0024795Y0213564D01*
X0024840Y0213412D01*
X0024881Y0213259D01*
X0024919Y0213106D01*
X0024952Y0212951D01*
X0024982Y0212795D01*
X0025008Y0212639D01*
X0025029Y0212482D01*
X0025047Y0212325D01*
X0025061Y0212167D01*
X0025071Y0212009D01*
X0025077Y0211851D01*
X0025079Y0211693D01*
X0025077Y0211535D01*
X0025071Y0211377D01*
X0025061Y0211219D01*
X0025047Y0211061D01*
X0025029Y0210904D01*
X0025008Y0210747D01*
X0024982Y0210591D01*
X0024952Y0210435D01*
X0024919Y0210280D01*
X0024881Y0210127D01*
X0024840Y0209974D01*
X0024795Y0209822D01*
X0024746Y0209671D01*
X0024693Y0209522D01*
X0024637Y0209374D01*
X0024577Y0209228D01*
X0024513Y0209083D01*
X0024445Y0208940D01*
X0024374Y0208798D01*
X0024300Y0208658D01*
X0024222Y0208521D01*
X0024140Y0208385D01*
X0024056Y0208251D01*
X0023967Y0208120D01*
X0023876Y0207991D01*
X0023781Y0207864D01*
X0023684Y0207739D01*
X0023583Y0207617D01*
X0023479Y0207498D01*
X0023372Y0207381D01*
X0023262Y0207267D01*
X0023149Y0207156D01*
X0023034Y0207047D01*
X0022916Y0206942D01*
X0022795Y0206840D01*
X0022672Y0206740D01*
X0022546Y0206644D01*
X0022418Y0206551D01*
X0022288Y0206461D01*
X0022155Y0206375D01*
X0022020Y0206291D01*
X0021884Y0206212D01*
X0021745Y0206135D01*
X0021604Y0206063D01*
X0021462Y0205993D01*
X0021318Y0205928D01*
X0021172Y0205866D01*
X0021025Y0205808D01*
X0020876Y0205753D01*
X0020726Y0205702D01*
X0020575Y0205655D01*
X0020423Y0205612D01*
X0020270Y0205573D01*
X0020115Y0205537D01*
X0019960Y0205506D01*
X0019804Y0205478D01*
X0019648Y0205454D01*
X0019491Y0205434D01*
X0019333Y0205418D01*
X0019176Y0205406D01*
X0019017Y0205398D01*
X0018859Y0205394D01*
X0018701Y0205394D01*
X0018543Y0205398D01*
X0018384Y0205406D01*
X0018227Y0205418D01*
X0018069Y0205434D01*
X0017912Y0205454D01*
X0017756Y0205478D01*
X0017600Y0205506D01*
X0017445Y0205537D01*
X0017290Y0205573D01*
X0017137Y0205612D01*
X0016985Y0205655D01*
X0016834Y0205702D01*
X0016684Y0205753D01*
X0016535Y0205808D01*
X0016388Y0205866D01*
X0016242Y0205928D01*
X0016098Y0205993D01*
X0015956Y0206063D01*
X0015815Y0206135D01*
X0015676Y0206212D01*
X0015540Y0206291D01*
X0015405Y0206375D01*
X0015272Y0206461D01*
X0015142Y0206551D01*
X0015014Y0206644D01*
X0014888Y0206740D01*
X0014765Y0206840D01*
X0014644Y0206942D01*
X0014526Y0207047D01*
X0014411Y0207156D01*
X0014298Y0207267D01*
X0014188Y0207381D01*
X0014081Y0207498D01*
X0013977Y0207617D01*
X0013876Y0207739D01*
X0013779Y0207864D01*
X0013684Y0207991D01*
X0013593Y0208120D01*
X0013504Y0208251D01*
X0013420Y0208385D01*
X0013338Y0208521D01*
X0013260Y0208658D01*
X0013186Y0208798D01*
X0013115Y0208940D01*
X0013047Y0209083D01*
X0012983Y0209228D01*
X0012923Y0209374D01*
X0012867Y0209522D01*
X0012814Y0209671D01*
X0012765Y0209822D01*
X0012720Y0209974D01*
X0012679Y0210127D01*
X0012641Y0210280D01*
X0012608Y0210435D01*
X0012578Y0210591D01*
X0012552Y0210747D01*
X0012531Y0210904D01*
X0012513Y0211061D01*
X0012499Y0211219D01*
X0012489Y0211377D01*
X0012483Y0211535D01*
X0012481Y0211693D01*
X0005000Y0209724D02*
X0005000Y0020748D01*
X0012481Y0018780D02*
X0012483Y0018938D01*
X0012489Y0019096D01*
X0012499Y0019254D01*
X0012513Y0019412D01*
X0012531Y0019569D01*
X0012552Y0019726D01*
X0012578Y0019882D01*
X0012608Y0020038D01*
X0012641Y0020193D01*
X0012679Y0020346D01*
X0012720Y0020499D01*
X0012765Y0020651D01*
X0012814Y0020802D01*
X0012867Y0020951D01*
X0012923Y0021099D01*
X0012983Y0021245D01*
X0013047Y0021390D01*
X0013115Y0021533D01*
X0013186Y0021675D01*
X0013260Y0021815D01*
X0013338Y0021952D01*
X0013420Y0022088D01*
X0013504Y0022222D01*
X0013593Y0022353D01*
X0013684Y0022482D01*
X0013779Y0022609D01*
X0013876Y0022734D01*
X0013977Y0022856D01*
X0014081Y0022975D01*
X0014188Y0023092D01*
X0014298Y0023206D01*
X0014411Y0023317D01*
X0014526Y0023426D01*
X0014644Y0023531D01*
X0014765Y0023633D01*
X0014888Y0023733D01*
X0015014Y0023829D01*
X0015142Y0023922D01*
X0015272Y0024012D01*
X0015405Y0024098D01*
X0015540Y0024182D01*
X0015676Y0024261D01*
X0015815Y0024338D01*
X0015956Y0024410D01*
X0016098Y0024480D01*
X0016242Y0024545D01*
X0016388Y0024607D01*
X0016535Y0024665D01*
X0016684Y0024720D01*
X0016834Y0024771D01*
X0016985Y0024818D01*
X0017137Y0024861D01*
X0017290Y0024900D01*
X0017445Y0024936D01*
X0017600Y0024967D01*
X0017756Y0024995D01*
X0017912Y0025019D01*
X0018069Y0025039D01*
X0018227Y0025055D01*
X0018384Y0025067D01*
X0018543Y0025075D01*
X0018701Y0025079D01*
X0018859Y0025079D01*
X0019017Y0025075D01*
X0019176Y0025067D01*
X0019333Y0025055D01*
X0019491Y0025039D01*
X0019648Y0025019D01*
X0019804Y0024995D01*
X0019960Y0024967D01*
X0020115Y0024936D01*
X0020270Y0024900D01*
X0020423Y0024861D01*
X0020575Y0024818D01*
X0020726Y0024771D01*
X0020876Y0024720D01*
X0021025Y0024665D01*
X0021172Y0024607D01*
X0021318Y0024545D01*
X0021462Y0024480D01*
X0021604Y0024410D01*
X0021745Y0024338D01*
X0021884Y0024261D01*
X0022020Y0024182D01*
X0022155Y0024098D01*
X0022288Y0024012D01*
X0022418Y0023922D01*
X0022546Y0023829D01*
X0022672Y0023733D01*
X0022795Y0023633D01*
X0022916Y0023531D01*
X0023034Y0023426D01*
X0023149Y0023317D01*
X0023262Y0023206D01*
X0023372Y0023092D01*
X0023479Y0022975D01*
X0023583Y0022856D01*
X0023684Y0022734D01*
X0023781Y0022609D01*
X0023876Y0022482D01*
X0023967Y0022353D01*
X0024056Y0022222D01*
X0024140Y0022088D01*
X0024222Y0021952D01*
X0024300Y0021815D01*
X0024374Y0021675D01*
X0024445Y0021533D01*
X0024513Y0021390D01*
X0024577Y0021245D01*
X0024637Y0021099D01*
X0024693Y0020951D01*
X0024746Y0020802D01*
X0024795Y0020651D01*
X0024840Y0020499D01*
X0024881Y0020346D01*
X0024919Y0020193D01*
X0024952Y0020038D01*
X0024982Y0019882D01*
X0025008Y0019726D01*
X0025029Y0019569D01*
X0025047Y0019412D01*
X0025061Y0019254D01*
X0025071Y0019096D01*
X0025077Y0018938D01*
X0025079Y0018780D01*
X0025077Y0018622D01*
X0025071Y0018464D01*
X0025061Y0018306D01*
X0025047Y0018148D01*
X0025029Y0017991D01*
X0025008Y0017834D01*
X0024982Y0017678D01*
X0024952Y0017522D01*
X0024919Y0017367D01*
X0024881Y0017214D01*
X0024840Y0017061D01*
X0024795Y0016909D01*
X0024746Y0016758D01*
X0024693Y0016609D01*
X0024637Y0016461D01*
X0024577Y0016315D01*
X0024513Y0016170D01*
X0024445Y0016027D01*
X0024374Y0015885D01*
X0024300Y0015745D01*
X0024222Y0015608D01*
X0024140Y0015472D01*
X0024056Y0015338D01*
X0023967Y0015207D01*
X0023876Y0015078D01*
X0023781Y0014951D01*
X0023684Y0014826D01*
X0023583Y0014704D01*
X0023479Y0014585D01*
X0023372Y0014468D01*
X0023262Y0014354D01*
X0023149Y0014243D01*
X0023034Y0014134D01*
X0022916Y0014029D01*
X0022795Y0013927D01*
X0022672Y0013827D01*
X0022546Y0013731D01*
X0022418Y0013638D01*
X0022288Y0013548D01*
X0022155Y0013462D01*
X0022020Y0013378D01*
X0021884Y0013299D01*
X0021745Y0013222D01*
X0021604Y0013150D01*
X0021462Y0013080D01*
X0021318Y0013015D01*
X0021172Y0012953D01*
X0021025Y0012895D01*
X0020876Y0012840D01*
X0020726Y0012789D01*
X0020575Y0012742D01*
X0020423Y0012699D01*
X0020270Y0012660D01*
X0020115Y0012624D01*
X0019960Y0012593D01*
X0019804Y0012565D01*
X0019648Y0012541D01*
X0019491Y0012521D01*
X0019333Y0012505D01*
X0019176Y0012493D01*
X0019017Y0012485D01*
X0018859Y0012481D01*
X0018701Y0012481D01*
X0018543Y0012485D01*
X0018384Y0012493D01*
X0018227Y0012505D01*
X0018069Y0012521D01*
X0017912Y0012541D01*
X0017756Y0012565D01*
X0017600Y0012593D01*
X0017445Y0012624D01*
X0017290Y0012660D01*
X0017137Y0012699D01*
X0016985Y0012742D01*
X0016834Y0012789D01*
X0016684Y0012840D01*
X0016535Y0012895D01*
X0016388Y0012953D01*
X0016242Y0013015D01*
X0016098Y0013080D01*
X0015956Y0013150D01*
X0015815Y0013222D01*
X0015676Y0013299D01*
X0015540Y0013378D01*
X0015405Y0013462D01*
X0015272Y0013548D01*
X0015142Y0013638D01*
X0015014Y0013731D01*
X0014888Y0013827D01*
X0014765Y0013927D01*
X0014644Y0014029D01*
X0014526Y0014134D01*
X0014411Y0014243D01*
X0014298Y0014354D01*
X0014188Y0014468D01*
X0014081Y0014585D01*
X0013977Y0014704D01*
X0013876Y0014826D01*
X0013779Y0014951D01*
X0013684Y0015078D01*
X0013593Y0015207D01*
X0013504Y0015338D01*
X0013420Y0015472D01*
X0013338Y0015608D01*
X0013260Y0015745D01*
X0013186Y0015885D01*
X0013115Y0016027D01*
X0013047Y0016170D01*
X0012983Y0016315D01*
X0012923Y0016461D01*
X0012867Y0016609D01*
X0012814Y0016758D01*
X0012765Y0016909D01*
X0012720Y0017061D01*
X0012679Y0017214D01*
X0012641Y0017367D01*
X0012608Y0017522D01*
X0012578Y0017678D01*
X0012552Y0017834D01*
X0012531Y0017991D01*
X0012513Y0018148D01*
X0012499Y0018306D01*
X0012489Y0018464D01*
X0012483Y0018622D01*
X0012481Y0018780D01*
X0005000Y0020748D02*
X0005005Y0020367D01*
X0005018Y0019987D01*
X0005041Y0019607D01*
X0005074Y0019228D01*
X0005115Y0018850D01*
X0005165Y0018473D01*
X0005225Y0018097D01*
X0005293Y0017722D01*
X0005371Y0017350D01*
X0005458Y0016979D01*
X0005553Y0016611D01*
X0005658Y0016245D01*
X0005771Y0015882D01*
X0005893Y0015521D01*
X0006023Y0015164D01*
X0006163Y0014810D01*
X0006310Y0014459D01*
X0006467Y0014112D01*
X0006631Y0013769D01*
X0006804Y0013430D01*
X0006985Y0013095D01*
X0007174Y0012764D01*
X0007371Y0012439D01*
X0007575Y0012118D01*
X0007788Y0011802D01*
X0008008Y0011492D01*
X0008235Y0011186D01*
X0008470Y0010887D01*
X0008712Y0010593D01*
X0008960Y0010305D01*
X0009216Y0010023D01*
X0009479Y0009748D01*
X0009748Y0009479D01*
X0010023Y0009216D01*
X0010305Y0008960D01*
X0010593Y0008712D01*
X0010887Y0008470D01*
X0011186Y0008235D01*
X0011492Y0008008D01*
X0011802Y0007788D01*
X0012118Y0007575D01*
X0012439Y0007371D01*
X0012764Y0007174D01*
X0013095Y0006985D01*
X0013430Y0006804D01*
X0013769Y0006631D01*
X0014112Y0006467D01*
X0014459Y0006310D01*
X0014810Y0006163D01*
X0015164Y0006023D01*
X0015521Y0005893D01*
X0015882Y0005771D01*
X0016245Y0005658D01*
X0016611Y0005553D01*
X0016979Y0005458D01*
X0017350Y0005371D01*
X0017722Y0005293D01*
X0018097Y0005225D01*
X0018473Y0005165D01*
X0018850Y0005115D01*
X0019228Y0005074D01*
X0019607Y0005041D01*
X0019987Y0005018D01*
X0020367Y0005005D01*
X0020748Y0005000D01*
X0005000Y0209724D02*
X0005005Y0210105D01*
X0005018Y0210485D01*
X0005041Y0210865D01*
X0005074Y0211244D01*
X0005115Y0211622D01*
X0005165Y0211999D01*
X0005225Y0212375D01*
X0005293Y0212750D01*
X0005371Y0213122D01*
X0005458Y0213493D01*
X0005553Y0213861D01*
X0005658Y0214227D01*
X0005771Y0214590D01*
X0005893Y0214951D01*
X0006023Y0215308D01*
X0006163Y0215662D01*
X0006310Y0216013D01*
X0006467Y0216360D01*
X0006631Y0216703D01*
X0006804Y0217042D01*
X0006985Y0217377D01*
X0007174Y0217708D01*
X0007371Y0218033D01*
X0007575Y0218354D01*
X0007788Y0218670D01*
X0008008Y0218980D01*
X0008235Y0219286D01*
X0008470Y0219585D01*
X0008712Y0219879D01*
X0008960Y0220167D01*
X0009216Y0220449D01*
X0009479Y0220724D01*
X0009748Y0220993D01*
X0010023Y0221256D01*
X0010305Y0221512D01*
X0010593Y0221760D01*
X0010887Y0222002D01*
X0011186Y0222237D01*
X0011492Y0222464D01*
X0011802Y0222684D01*
X0012118Y0222897D01*
X0012439Y0223101D01*
X0012764Y0223298D01*
X0013095Y0223487D01*
X0013430Y0223668D01*
X0013769Y0223841D01*
X0014112Y0224005D01*
X0014459Y0224162D01*
X0014810Y0224309D01*
X0015164Y0224449D01*
X0015521Y0224579D01*
X0015882Y0224701D01*
X0016245Y0224814D01*
X0016611Y0224919D01*
X0016979Y0225014D01*
X0017350Y0225101D01*
X0017722Y0225179D01*
X0018097Y0225247D01*
X0018473Y0225307D01*
X0018850Y0225357D01*
X0019228Y0225398D01*
X0019607Y0225431D01*
X0019987Y0225454D01*
X0020367Y0225467D01*
X0020748Y0225472D01*
D11*
X0091614Y0158150D03*
X0091614Y0151063D03*
X0091614Y0142402D03*
X0091614Y0135315D03*
X0154606Y0135315D03*
X0154606Y0142402D03*
X0249094Y0155000D03*
X0249094Y0162087D03*
X0249094Y0170748D03*
X0249094Y0177835D03*
D12*
X0020748Y0182165D03*
X0020748Y0130984D03*
D13*
X0020748Y0111299D03*
X0020748Y0162480D03*
D14*
X0037953Y0206693D03*
D15*
X0047900Y0206700D03*
X0057900Y0206700D03*
X0067900Y0206700D03*
X0077900Y0206700D03*
X0087900Y0206700D03*
X0097900Y0206700D03*
X0107900Y0206700D03*
X0117900Y0206700D03*
X0127900Y0206700D03*
X0137900Y0206700D03*
X0147900Y0206700D03*
X0157900Y0206700D03*
X0167900Y0206700D03*
X0177900Y0206700D03*
X0187900Y0206700D03*
X0197900Y0206700D03*
X0207900Y0206700D03*
X0217900Y0206700D03*
X0227900Y0206700D03*
X0227900Y0216700D03*
X0217900Y0216700D03*
X0207900Y0216700D03*
X0197900Y0216700D03*
X0187900Y0216700D03*
X0177900Y0216700D03*
X0167900Y0216700D03*
X0157900Y0216700D03*
X0147900Y0216700D03*
X0137900Y0216700D03*
X0127900Y0216700D03*
X0117900Y0216700D03*
X0107900Y0216700D03*
X0097900Y0216700D03*
X0087900Y0216700D03*
X0077900Y0216700D03*
X0067900Y0216700D03*
X0057900Y0216700D03*
X0047900Y0216700D03*
X0037900Y0216700D03*
D16*
X0018780Y0211693D03*
X0018780Y0018780D03*
X0247126Y0018780D03*
X0247126Y0211693D03*
D17*
X0208889Y0178543D03*
X0208889Y0173543D03*
X0208889Y0168543D03*
X0208889Y0163543D03*
X0208889Y0158543D03*
X0208889Y0153543D03*
X0208889Y0148543D03*
X0208889Y0143543D03*
X0208889Y0138543D03*
X0171189Y0138543D03*
X0171189Y0143543D03*
X0171189Y0148543D03*
X0171189Y0153543D03*
X0171189Y0158543D03*
X0171189Y0163543D03*
X0171189Y0168543D03*
X0171189Y0173543D03*
X0171189Y0178543D03*
X0130197Y0162106D03*
X0130197Y0157106D03*
X0130197Y0152106D03*
X0130197Y0147106D03*
X0108150Y0147106D03*
X0108150Y0152106D03*
X0108150Y0157106D03*
X0108150Y0162106D03*
D18*
X0229409Y0156417D03*
X0229409Y0176417D03*
M02*
